<?xml version="1.0" encoding="UTF-8" standalone="no"?>
<!DOCTYPE svg PUBLIC "-//W3C//DTD SVG 1.1//EN"
 "http://www.w3.org/Graphics/SVG/1.1/DTD/svg11.dtd">
<!-- Generated by graphviz version 2.40.1 (20161225.0304)
 -->
<!-- Title: G Pages: 1 -->
<svg width="1396pt" height="605pt"
 viewBox="0.00 0.00 1395.70 604.82" xmlns="http://www.w3.org/2000/svg" xmlns:xlink="http://www.w3.org/1999/xlink">
<g id="graph0" class="graph" transform="scale(1 1) rotate(0) translate(21.6 583.2165)">
<title>G</title>
<polygon fill="#111111" stroke="transparent" points="-21.6,21.6 -21.6,-583.2165 1374.101,-583.2165 1374.101,21.6 -21.6,21.6"/>
<!-- app/button.js -->
<g id="node1" class="node">
<title>app/button.js</title>
<path fill="none" stroke="#cfffac" d="M1174.2526,-56.6905C1174.2526,-56.6905 1094.0403,-56.6905 1094.0403,-56.6905 1090.0074,-56.6905 1085.9745,-52.6575 1085.9745,-48.6246 1085.9745,-48.6246 1085.9745,-40.5587 1085.9745,-40.5587 1085.9745,-36.5257 1090.0074,-32.4928 1094.0403,-32.4928 1094.0403,-32.4928 1174.2526,-32.4928 1174.2526,-32.4928 1178.2856,-32.4928 1182.3185,-36.5257 1182.3185,-40.5587 1182.3185,-40.5587 1182.3185,-48.6246 1182.3185,-48.6246 1182.3185,-52.6575 1178.2856,-56.6905 1174.2526,-56.6905"/>
<text text-anchor="middle" x="1134.1465" y="-41.4409" font-family="Arial" font-size="14.00" fill="#cfffac">app/button.js</text>
</g>
<!-- app/dateInput.js -->
<g id="node2" class="node">
<title>app/dateInput.js</title>
<path fill="none" stroke="#c6c5fe" d="M1002.3961,-172.6905C1002.3961,-172.6905 903.2592,-172.6905 903.2592,-172.6905 899.2262,-172.6905 895.1933,-168.6575 895.1933,-164.6246 895.1933,-164.6246 895.1933,-156.5587 895.1933,-156.5587 895.1933,-152.5257 899.2262,-148.4928 903.2592,-148.4928 903.2592,-148.4928 1002.3961,-148.4928 1002.3961,-148.4928 1006.4291,-148.4928 1010.462,-152.5257 1010.462,-156.5587 1010.462,-156.5587 1010.462,-164.6246 1010.462,-164.6246 1010.462,-168.6575 1006.4291,-172.6905 1002.3961,-172.6905"/>
<text text-anchor="middle" x="952.8276" y="-157.4409" font-family="Arial" font-size="14.00" fill="#c6c5fe">app/dateInput.js</text>
</g>
<!-- app/dateInput.js&#45;&gt;app/button.js -->
<g id="edge1" class="edge">
<title>app/dateInput.js&#45;&gt;app/button.js</title>
<path fill="none" stroke="#757575" d="M971.8892,-148.3968C1003.9924,-127.8586 1068.9809,-86.2818 1106.2321,-62.4501"/>
<polygon fill="#757575" stroke="#757575" points="1108.5308,-65.1345 1115.0682,-56.7971 1104.7584,-59.2379 1108.5308,-65.1345"/>
</g>
<!-- theme.js -->
<g id="node3" class="node">
<title>theme.js</title>
<path fill="none" stroke="#cfffac" d="M1160.4908,-391.6905C1160.4908,-391.6905 1107.8022,-391.6905 1107.8022,-391.6905 1103.7692,-391.6905 1099.7363,-387.6575 1099.7363,-383.6246 1099.7363,-383.6246 1099.7363,-375.5587 1099.7363,-375.5587 1099.7363,-371.5257 1103.7692,-367.4928 1107.8022,-367.4928 1107.8022,-367.4928 1160.4908,-367.4928 1160.4908,-367.4928 1164.5238,-367.4928 1168.5567,-371.5257 1168.5567,-375.5587 1168.5567,-375.5587 1168.5567,-383.6246 1168.5567,-383.6246 1168.5567,-387.6575 1164.5238,-391.6905 1160.4908,-391.6905"/>
<text text-anchor="middle" x="1134.1465" y="-376.4409" font-family="Arial" font-size="14.00" fill="#cfffac">theme.js</text>
</g>
<!-- app/dateInput.js&#45;&gt;theme.js -->
<g id="edge2" class="edge">
<title>app/dateInput.js&#45;&gt;theme.js</title>
<path fill="none" stroke="#757575" d="M1010.6381,-163.829C1024.7397,-166.9729 1038.9476,-172.4019 1050.0605,-181.5916 1105.2919,-227.2647 1124.9688,-315.7271 1131.3596,-357.1607"/>
<polygon fill="#757575" stroke="#757575" points="1127.9284,-357.8934 1132.7995,-367.302 1134.8589,-356.9093 1127.9284,-357.8934"/>
</g>
<!-- utils/index.js -->
<g id="node4" class="node">
<title>utils/index.js</title>
<path fill="none" stroke="#c6c5fe" d="M1172.3358,-214.6905C1172.3358,-214.6905 1095.9571,-214.6905 1095.9571,-214.6905 1091.9242,-214.6905 1087.8912,-210.6575 1087.8912,-206.6246 1087.8912,-206.6246 1087.8912,-198.5587 1087.8912,-198.5587 1087.8912,-194.5257 1091.9242,-190.4928 1095.9571,-190.4928 1095.9571,-190.4928 1172.3358,-190.4928 1172.3358,-190.4928 1176.3688,-190.4928 1180.4017,-194.5257 1180.4017,-198.5587 1180.4017,-198.5587 1180.4017,-206.6246 1180.4017,-206.6246 1180.4017,-210.6575 1176.3688,-214.6905 1172.3358,-214.6905"/>
<text text-anchor="middle" x="1134.1465" y="-199.4409" font-family="Arial" font-size="14.00" fill="#c6c5fe">utils/index.js</text>
</g>
<!-- app/dateInput.js&#45;&gt;utils/index.js -->
<g id="edge3" class="edge">
<title>app/dateInput.js&#45;&gt;utils/index.js</title>
<path fill="none" stroke="#757575" d="M1010.2231,-172.6685C1023.3333,-175.5156 1037.1931,-178.5961 1050.0605,-181.5916 1059.1007,-183.6962 1068.6666,-186.0058 1077.9798,-188.2995"/>
<polygon fill="#757575" stroke="#757575" points="1077.4013,-191.762 1087.9498,-190.7717 1079.0861,-184.9678 1077.4013,-191.762"/>
</g>
<!-- utils/date.js -->
<g id="node18" class="node">
<title>utils/date.js</title>
<path fill="none" stroke="#cfffac" d="M1320.335,-256.6905C1320.335,-256.6905 1250.3984,-256.6905 1250.3984,-256.6905 1246.3655,-256.6905 1242.3325,-252.6575 1242.3325,-248.6246 1242.3325,-248.6246 1242.3325,-240.5587 1242.3325,-240.5587 1242.3325,-236.5257 1246.3655,-232.4928 1250.3984,-232.4928 1250.3984,-232.4928 1320.335,-232.4928 1320.335,-232.4928 1324.3679,-232.4928 1328.4009,-236.5257 1328.4009,-240.5587 1328.4009,-240.5587 1328.4009,-248.6246 1328.4009,-248.6246 1328.4009,-252.6575 1324.3679,-256.6905 1320.335,-256.6905"/>
<text text-anchor="middle" x="1285.3667" y="-241.4409" font-family="Arial" font-size="14.00" fill="#cfffac">utils/date.js</text>
</g>
<!-- utils/index.js&#45;&gt;utils/date.js -->
<g id="edge38" class="edge">
<title>utils/index.js&#45;&gt;utils/date.js</title>
<path fill="none" stroke="#757575" d="M1177.8856,-214.7398C1194.9606,-219.4822 1214.69,-224.9618 1232.5481,-229.9218"/>
<polygon fill="#757575" stroke="#757575" points="1231.6761,-233.312 1242.2481,-232.6158 1233.5495,-226.5673 1231.6761,-233.312"/>
</g>
<!-- utils/money.js -->
<g id="node19" class="node">
<title>utils/money.js</title>
<path fill="none" stroke="#cfffac" d="M1327.0687,-214.6905C1327.0687,-214.6905 1243.6647,-214.6905 1243.6647,-214.6905 1239.6318,-214.6905 1235.5989,-210.6575 1235.5989,-206.6246 1235.5989,-206.6246 1235.5989,-198.5587 1235.5989,-198.5587 1235.5989,-194.5257 1239.6318,-190.4928 1243.6647,-190.4928 1243.6647,-190.4928 1327.0687,-190.4928 1327.0687,-190.4928 1331.1016,-190.4928 1335.1345,-194.5257 1335.1345,-198.5587 1335.1345,-198.5587 1335.1345,-206.6246 1335.1345,-206.6246 1335.1345,-210.6575 1331.1016,-214.6905 1327.0687,-214.6905"/>
<text text-anchor="middle" x="1285.3667" y="-199.4409" font-family="Arial" font-size="14.00" fill="#cfffac">utils/money.js</text>
</g>
<!-- utils/index.js&#45;&gt;utils/money.js -->
<g id="edge39" class="edge">
<title>utils/index.js&#45;&gt;utils/money.js</title>
<path fill="none" stroke="#757575" d="M1180.3392,-202.5916C1194.5242,-202.5916 1210.3456,-202.5916 1225.3164,-202.5916"/>
<polygon fill="#757575" stroke="#757575" points="1225.5144,-206.0917 1235.5144,-202.5916 1225.5143,-199.0917 1225.5144,-206.0917"/>
</g>
<!-- utils/transactions.js -->
<g id="node20" class="node">
<title>utils/transactions.js</title>
<path fill="none" stroke="#cfffac" d="M1344.5696,-172.6905C1344.5696,-172.6905 1226.1638,-172.6905 1226.1638,-172.6905 1222.1308,-172.6905 1218.0979,-168.6575 1218.0979,-164.6246 1218.0979,-164.6246 1218.0979,-156.5587 1218.0979,-156.5587 1218.0979,-152.5257 1222.1308,-148.4928 1226.1638,-148.4928 1226.1638,-148.4928 1344.5696,-148.4928 1344.5696,-148.4928 1348.6026,-148.4928 1352.6355,-152.5257 1352.6355,-156.5587 1352.6355,-156.5587 1352.6355,-164.6246 1352.6355,-164.6246 1352.6355,-168.6575 1348.6026,-172.6905 1344.5696,-172.6905"/>
<text text-anchor="middle" x="1285.3667" y="-157.4409" font-family="Arial" font-size="14.00" fill="#cfffac">utils/transactions.js</text>
</g>
<!-- utils/index.js&#45;&gt;utils/transactions.js -->
<g id="edge40" class="edge">
<title>utils/index.js&#45;&gt;utils/transactions.js</title>
<path fill="none" stroke="#757575" d="M1177.8856,-190.4435C1194.8135,-185.742 1214.35,-180.3159 1232.0859,-175.3899"/>
<polygon fill="#757575" stroke="#757575" points="1233.0272,-178.761 1241.7258,-172.7125 1231.1539,-172.0163 1233.0272,-178.761"/>
</g>
<!-- app/index.js -->
<g id="node5" class="node">
<title>app/index.js</title>
<path fill="none" stroke="#c6c5fe" d="M181.9785,-490.6905C181.9785,-490.6905 107.6758,-490.6905 107.6758,-490.6905 103.6429,-490.6905 99.6099,-486.6575 99.6099,-482.6246 99.6099,-482.6246 99.6099,-474.5587 99.6099,-474.5587 99.6099,-470.5257 103.6429,-466.4928 107.6758,-466.4928 107.6758,-466.4928 181.9785,-466.4928 181.9785,-466.4928 186.0114,-466.4928 190.0444,-470.5257 190.0444,-474.5587 190.0444,-474.5587 190.0444,-482.6246 190.0444,-482.6246 190.0444,-486.6575 186.0114,-490.6905 181.9785,-490.6905"/>
<text text-anchor="middle" x="144.8271" y="-475.4409" font-family="Arial" font-size="14.00" fill="#c6c5fe">app/index.js</text>
</g>
<!-- app/index.js&#45;&gt;theme.js -->
<g id="edge7" class="edge">
<title>app/index.js&#45;&gt;theme.js</title>
<path fill="none" stroke="#757575" d="M175.7239,-490.7791C234.2086,-512.7166 365.5313,-556.5916 480.3569,-556.5916 480.3569,-556.5916 480.3569,-556.5916 708.748,-556.5916 862.3994,-556.5916 920.1694,-583.6711 1050.0605,-501.5916 1088.2148,-477.4816 1113.5671,-429.1136 1125.7435,-401.0637"/>
<polygon fill="#757575" stroke="#757575" points="1129.0165,-402.3083 1129.6327,-391.7314 1122.5552,-399.6155 1129.0165,-402.3083"/>
</g>
<!-- app/money/index.js -->
<g id="node6" class="node">
<title>app/money/index.js</title>
<path fill="none" stroke="#c6c5fe" d="M354.5606,-452.6905C354.5606,-452.6905 234.4375,-452.6905 234.4375,-452.6905 230.4045,-452.6905 226.3716,-448.6575 226.3716,-444.6246 226.3716,-444.6246 226.3716,-436.5587 226.3716,-436.5587 226.3716,-432.5257 230.4045,-428.4928 234.4375,-428.4928 234.4375,-428.4928 354.5606,-428.4928 354.5606,-428.4928 358.5935,-428.4928 362.6265,-432.5257 362.6265,-436.5587 362.6265,-436.5587 362.6265,-444.6246 362.6265,-444.6246 362.6265,-448.6575 358.5935,-452.6905 354.5606,-452.6905"/>
<text text-anchor="middle" x="294.499" y="-437.4409" font-family="Arial" font-size="14.00" fill="#c6c5fe">app/money/index.js</text>
</g>
<!-- app/index.js&#45;&gt;app/money/index.js -->
<g id="edge4" class="edge">
<title>app/index.js&#45;&gt;app/money/index.js</title>
<path fill="none" stroke="#757575" d="M190.1398,-467.0873C204.8909,-463.3421 221.4646,-459.1343 236.9863,-455.1935"/>
<polygon fill="#757575" stroke="#757575" points="238.1734,-458.5032 247.0046,-452.6499 236.4508,-451.7185 238.1734,-458.5032"/>
</g>
<!-- app/settings/index.js -->
<g id="node7" class="node">
<title>app/settings/index.js</title>
<path fill="none" stroke="#c6c5fe" d="M543.6456,-519.6905C543.6456,-519.6905 417.0683,-519.6905 417.0683,-519.6905 413.0353,-519.6905 409.0024,-515.6575 409.0024,-511.6246 409.0024,-511.6246 409.0024,-503.5587 409.0024,-503.5587 409.0024,-499.5257 413.0353,-495.4928 417.0683,-495.4928 417.0683,-495.4928 543.6456,-495.4928 543.6456,-495.4928 547.6786,-495.4928 551.7115,-499.5257 551.7115,-503.5587 551.7115,-503.5587 551.7115,-511.6246 551.7115,-511.6246 551.7115,-515.6575 547.6786,-519.6905 543.6456,-519.6905"/>
<text text-anchor="middle" x="480.3569" y="-504.4409" font-family="Arial" font-size="14.00" fill="#c6c5fe">app/settings/index.js</text>
</g>
<!-- app/index.js&#45;&gt;app/settings/index.js -->
<g id="edge5" class="edge">
<title>app/index.js&#45;&gt;app/settings/index.js</title>
<path fill="none" stroke="#757575" d="M190.0782,-482.5027C243.3935,-487.1108 333.0061,-494.856 398.5882,-500.5243"/>
<polygon fill="#757575" stroke="#757575" points="398.6338,-504.0412 408.8981,-501.4154 399.2367,-497.0672 398.6338,-504.0412"/>
</g>
<!-- config.json -->
<g id="node8" class="node">
<title>config.json</title>
<path fill="none" stroke="#cfffac" d="M327.8638,-410.6905C327.8638,-410.6905 261.1342,-410.6905 261.1342,-410.6905 257.1013,-410.6905 253.0683,-406.6575 253.0683,-402.6246 253.0683,-402.6246 253.0683,-394.5587 253.0683,-394.5587 253.0683,-390.5257 257.1013,-386.4928 261.1342,-386.4928 261.1342,-386.4928 327.8638,-386.4928 327.8638,-386.4928 331.8968,-386.4928 335.9297,-390.5257 335.9297,-394.5587 335.9297,-394.5587 335.9297,-402.6246 335.9297,-402.6246 335.9297,-406.6575 331.8968,-410.6905 327.8638,-410.6905"/>
<text text-anchor="middle" x="294.499" y="-395.4409" font-family="Arial" font-size="14.00" fill="#cfffac">config.json</text>
</g>
<!-- app/index.js&#45;&gt;config.json -->
<g id="edge6" class="edge">
<title>app/index.js&#45;&gt;config.json</title>
<path fill="none" stroke="#757575" d="M158.5944,-466.399C174.0738,-453.2397 200.4254,-432.4455 226.1855,-419.5916 231.5199,-416.9299 237.2582,-414.5276 243.061,-412.381"/>
<polygon fill="#757575" stroke="#757575" points="244.5171,-415.5811 252.8276,-409.0094 242.2328,-408.9643 244.5171,-415.5811"/>
</g>
<!-- app/money/expenses.js -->
<g id="node9" class="node">
<title>app/money/expenses.js</title>
<path fill="none" stroke="#c6c5fe" d="M553.8799,-365.6905C553.8799,-365.6905 406.8339,-365.6905 406.8339,-365.6905 402.801,-365.6905 398.768,-361.6575 398.768,-357.6246 398.768,-357.6246 398.768,-349.5587 398.768,-349.5587 398.768,-345.5257 402.801,-341.4928 406.8339,-341.4928 406.8339,-341.4928 553.8799,-341.4928 553.8799,-341.4928 557.9129,-341.4928 561.9458,-345.5257 561.9458,-349.5587 561.9458,-349.5587 561.9458,-357.6246 561.9458,-357.6246 561.9458,-361.6575 557.9129,-365.6905 553.8799,-365.6905"/>
<text text-anchor="middle" x="480.3569" y="-350.4409" font-family="Arial" font-size="14.00" fill="#c6c5fe">app/money/expenses.js</text>
</g>
<!-- app/money/index.js&#45;&gt;app/money/expenses.js -->
<g id="edge15" class="edge">
<title>app/money/index.js&#45;&gt;app/money/expenses.js</title>
<path fill="none" stroke="#757575" d="M338.7299,-428.5092C346.851,-425.8658 355.1716,-422.8666 362.8125,-419.5916 394.9062,-405.8358 429.5157,-385.6967 452.808,-371.2869"/>
<polygon fill="#757575" stroke="#757575" points="454.8309,-374.1499 461.4531,-365.8796 451.1189,-368.2151 454.8309,-374.1499"/>
</g>
<!-- app/money/monthTransactions.js -->
<g id="node14" class="node">
<title>app/money/monthTransactions.js</title>
<path fill="none" stroke="#c6c5fe" d="M811.3757,-452.6905C811.3757,-452.6905 606.1204,-452.6905 606.1204,-452.6905 602.0874,-452.6905 598.0545,-448.6575 598.0545,-444.6246 598.0545,-444.6246 598.0545,-436.5587 598.0545,-436.5587 598.0545,-432.5257 602.0874,-428.4928 606.1204,-428.4928 606.1204,-428.4928 811.3757,-428.4928 811.3757,-428.4928 815.4087,-428.4928 819.4416,-432.5257 819.4416,-436.5587 819.4416,-436.5587 819.4416,-444.6246 819.4416,-444.6246 819.4416,-448.6575 815.4087,-452.6905 811.3757,-452.6905"/>
<text text-anchor="middle" x="708.748" y="-437.4409" font-family="Arial" font-size="14.00" fill="#c6c5fe">app/money/monthTransactions.js</text>
</g>
<!-- app/money/index.js&#45;&gt;app/money/monthTransactions.js -->
<g id="edge16" class="edge">
<title>app/money/index.js&#45;&gt;app/money/monthTransactions.js</title>
<path fill="none" stroke="#757575" d="M362.9038,-440.5916C423.8091,-440.5916 514.3308,-440.5916 587.4875,-440.5916"/>
<polygon fill="#757575" stroke="#757575" points="587.6901,-444.0917 597.6901,-440.5916 587.6901,-437.0917 587.6901,-444.0917"/>
</g>
<!-- app/money/transactionDetails.js -->
<g id="node15" class="node">
<title>app/money/transactionDetails.js</title>
<path fill="none" stroke="#c6c5fe" d="M808.1162,-276.6905C808.1162,-276.6905 609.3799,-276.6905 609.3799,-276.6905 605.347,-276.6905 601.314,-272.6575 601.314,-268.6246 601.314,-268.6246 601.314,-260.5587 601.314,-260.5587 601.314,-256.5257 605.347,-252.4928 609.3799,-252.4928 609.3799,-252.4928 808.1162,-252.4928 808.1162,-252.4928 812.1491,-252.4928 816.1821,-256.5257 816.1821,-260.5587 816.1821,-260.5587 816.1821,-268.6246 816.1821,-268.6246 816.1821,-272.6575 812.1491,-276.6905 808.1162,-276.6905"/>
<text text-anchor="middle" x="708.748" y="-261.4409" font-family="Arial" font-size="14.00" fill="#c6c5fe">app/money/transactionDetails.js</text>
</g>
<!-- app/money/index.js&#45;&gt;app/money/transactionDetails.js -->
<g id="edge17" class="edge">
<title>app/money/index.js&#45;&gt;app/money/transactionDetails.js</title>
<path fill="none" stroke="#757575" d="M349.8198,-428.455C354.5301,-426.021 358.9584,-423.0991 362.8125,-419.5916 393.7613,-391.4263 366.7318,-359.4606 398.8125,-332.5916 452.0289,-288.0206 527.9487,-270.8521 591.3282,-264.9086"/>
<polygon fill="#757575" stroke="#757575" points="591.7217,-268.3878 601.3872,-264.0486 591.1253,-261.4132 591.7217,-268.3878"/>
</g>
<!-- app/screen.js -->
<g id="node13" class="node">
<title>app/screen.js</title>
<path fill="none" stroke="#c6c5fe" d="M994.5307,-492.6905C994.5307,-492.6905 911.1246,-492.6905 911.1246,-492.6905 907.0917,-492.6905 903.0587,-488.6575 903.0587,-484.6246 903.0587,-484.6246 903.0587,-476.5587 903.0587,-476.5587 903.0587,-472.5257 907.0917,-468.4928 911.1246,-468.4928 911.1246,-468.4928 994.5307,-468.4928 994.5307,-468.4928 998.5636,-468.4928 1002.5966,-472.5257 1002.5966,-476.5587 1002.5966,-476.5587 1002.5966,-484.6246 1002.5966,-484.6246 1002.5966,-488.6575 998.5636,-492.6905 994.5307,-492.6905"/>
<text text-anchor="middle" x="952.8276" y="-477.4409" font-family="Arial" font-size="14.00" fill="#c6c5fe">app/screen.js</text>
</g>
<!-- app/settings/index.js&#45;&gt;app/screen.js -->
<g id="edge36" class="edge">
<title>app/settings/index.js&#45;&gt;app/screen.js</title>
<path fill="none" stroke="#757575" d="M551.9086,-506.2286C620.6165,-504.5938 727.2974,-501.202 819.5947,-494.5916 843.5346,-492.877 869.8236,-490.2698 892.6776,-487.7683"/>
<polygon fill="#757575" stroke="#757575" points="893.3636,-491.2137 902.9156,-486.6299 892.59,-484.2565 893.3636,-491.2137"/>
</g>
<!-- app/money/expenses.js&#45;&gt;app/button.js -->
<g id="edge8" class="edge">
<title>app/money/expenses.js&#45;&gt;app/button.js</title>
<path fill="none" stroke="#757575" d="M481.0038,-341.3159C484.1415,-295.6779 501.8841,-134.9656 597.9014,-67.5916 746.465,36.6533 979.361,-4.4078 1082.2787,-30.0162"/>
<polygon fill="#757575" stroke="#757575" points="1081.5658,-33.4462 1092.1198,-32.5171 1083.29,-26.6618 1081.5658,-33.4462"/>
</g>
<!-- app/money/expenses.js&#45;&gt;theme.js -->
<g id="edge13" class="edge">
<title>app/money/expenses.js&#45;&gt;theme.js</title>
<path fill="none" stroke="#757575" d="M518.1431,-365.6413C541.0299,-372.5775 570.9199,-381 597.9014,-386.5916 711.0785,-410.0464 740.276,-413.7961 855.5947,-421.5916 941.8272,-427.4209 965.9393,-441.4318 1050.0605,-421.5916 1070.3737,-416.8007 1091.378,-406.3136 1107.3125,-397.0177"/>
<polygon fill="#757575" stroke="#757575" points="1109.3128,-399.8986 1116.0652,-391.7342 1105.6953,-393.9058 1109.3128,-399.8986"/>
</g>
<!-- app/money/expenses.js&#45;&gt;utils/index.js -->
<g id="edge14" class="edge">
<title>app/money/expenses.js&#45;&gt;utils/index.js</title>
<path fill="none" stroke="#757575" d="M483.809,-341.3075C494.3197,-306.3832 529.4674,-206.1132 597.9014,-160.5916 765.845,-48.8771 862.9955,-46.147 1050.0605,-121.5916 1080.0559,-133.6889 1105.3263,-162.1738 1120.1088,-181.9181"/>
<polygon fill="#757575" stroke="#757575" points="1117.4541,-184.2206 1126.1421,-190.2844 1123.1318,-180.1262 1117.4541,-184.2206"/>
</g>
<!-- app/money/spendTracking.js -->
<g id="node10" class="node">
<title>app/money/spendTracking.js</title>
<path fill="none" stroke="#c6c5fe" d="M1042.2281,-370.6905C1042.2281,-370.6905 863.4271,-370.6905 863.4271,-370.6905 859.3942,-370.6905 855.3613,-366.6575 855.3613,-362.6246 855.3613,-362.6246 855.3613,-354.5587 855.3613,-354.5587 855.3613,-350.5257 859.3942,-346.4928 863.4271,-346.4928 863.4271,-346.4928 1042.2281,-346.4928 1042.2281,-346.4928 1046.2611,-346.4928 1050.294,-350.5257 1050.294,-354.5587 1050.294,-354.5587 1050.294,-362.6246 1050.294,-362.6246 1050.294,-366.6575 1046.2611,-370.6905 1042.2281,-370.6905"/>
<text text-anchor="middle" x="952.8276" y="-355.4409" font-family="Arial" font-size="14.00" fill="#c6c5fe">app/money/spendTracking.js</text>
</g>
<!-- app/money/expenses.js&#45;&gt;app/money/spendTracking.js -->
<g id="edge9" class="edge">
<title>app/money/expenses.js&#45;&gt;app/money/spendTracking.js</title>
<path fill="none" stroke="#757575" d="M561.9136,-349.6735C573.9776,-349.2242 586.2615,-348.8391 597.9014,-348.5916 696.4095,-346.4975 721.1335,-344.9017 819.5947,-348.5916 827.9249,-348.9038 836.5418,-349.3254 845.2009,-349.8196"/>
<polygon fill="#757575" stroke="#757575" points="845.1786,-353.3244 855.3706,-350.4308 845.5986,-346.337 845.1786,-353.3244"/>
</g>
<!-- app/money/transactionForm.js -->
<g id="node11" class="node">
<title>app/money/transactionForm.js</title>
<path fill="none" stroke="#c6c5fe" d="M802.9851,-193.6905C802.9851,-193.6905 614.511,-193.6905 614.511,-193.6905 610.478,-193.6905 606.4451,-189.6575 606.4451,-185.6246 606.4451,-185.6246 606.4451,-177.5587 606.4451,-177.5587 606.4451,-173.5257 610.478,-169.4928 614.511,-169.4928 614.511,-169.4928 802.9851,-169.4928 802.9851,-169.4928 807.0181,-169.4928 811.051,-173.5257 811.051,-177.5587 811.051,-177.5587 811.051,-185.6246 811.051,-185.6246 811.051,-189.6575 807.0181,-193.6905 802.9851,-193.6905"/>
<text text-anchor="middle" x="708.748" y="-178.4409" font-family="Arial" font-size="14.00" fill="#c6c5fe">app/money/transactionForm.js</text>
</g>
<!-- app/money/expenses.js&#45;&gt;app/money/transactionForm.js -->
<g id="edge10" class="edge">
<title>app/money/expenses.js&#45;&gt;app/money/transactionForm.js</title>
<path fill="none" stroke="#757575" d="M491.533,-341.3364C511.509,-319.8629 555.2531,-274.7601 597.9014,-243.5916 621.8902,-226.06 651.3366,-209.8066 673.8488,-198.3432"/>
<polygon fill="#757575" stroke="#757575" points="675.6676,-201.3466 683.0362,-193.7338 672.5285,-195.0899 675.6676,-201.3466"/>
</g>
<!-- app/money/transactionList.js -->
<g id="node12" class="node">
<title>app/money/transactionList.js</title>
<path fill="none" stroke="#c6c5fe" d="M1041.689,-412.6905C1041.689,-412.6905 863.9663,-412.6905 863.9663,-412.6905 859.9334,-412.6905 855.9004,-408.6575 855.9004,-404.6246 855.9004,-404.6246 855.9004,-396.5587 855.9004,-396.5587 855.9004,-392.5257 859.9334,-388.4928 863.9663,-388.4928 863.9663,-388.4928 1041.689,-388.4928 1041.689,-388.4928 1045.7219,-388.4928 1049.7549,-392.5257 1049.7549,-396.5587 1049.7549,-396.5587 1049.7549,-404.6246 1049.7549,-404.6246 1049.7549,-408.6575 1045.7219,-412.6905 1041.689,-412.6905"/>
<text text-anchor="middle" x="952.8276" y="-397.4409" font-family="Arial" font-size="14.00" fill="#c6c5fe">app/money/transactionList.js</text>
</g>
<!-- app/money/expenses.js&#45;&gt;app/money/transactionList.js -->
<g id="edge11" class="edge">
<title>app/money/expenses.js&#45;&gt;app/money/transactionList.js</title>
<path fill="none" stroke="#757575" d="M561.9437,-361.3499C630.6706,-367.9281 731.5798,-377.6866 819.5947,-386.5916 828.1692,-387.4592 837.0527,-388.3689 845.9764,-389.2904"/>
<polygon fill="#757575" stroke="#757575" points="845.7467,-392.7852 856.0541,-390.3341 846.4679,-385.8225 845.7467,-392.7852"/>
</g>
<!-- app/money/expenses.js&#45;&gt;app/screen.js -->
<g id="edge12" class="edge">
<title>app/money/expenses.js&#45;&gt;app/screen.js</title>
<path fill="none" stroke="#757575" d="M488.9811,-365.8582C506.3949,-389.4693 548.3466,-440.7398 597.9014,-461.5916 649.4141,-483.2673 805.7229,-483.7814 892.7379,-482.2284"/>
<polygon fill="#757575" stroke="#757575" points="893.0639,-485.7229 902.9943,-482.0301 892.9285,-478.7242 893.0639,-485.7229"/>
</g>
<!-- app/money/spendTracking.js&#45;&gt;theme.js -->
<g id="edge20" class="edge">
<title>app/money/spendTracking.js&#45;&gt;theme.js</title>
<path fill="none" stroke="#757575" d="M1050.1219,-369.8601C1063.7671,-371.4404 1077.2108,-372.9974 1089.2076,-374.3869"/>
<polygon fill="#757575" stroke="#757575" points="1089.0102,-377.8873 1099.3465,-375.5612 1089.8156,-370.9338 1089.0102,-377.8873"/>
</g>
<!-- app/money/spendTracking.js&#45;&gt;utils/index.js -->
<g id="edge21" class="edge">
<title>app/money/spendTracking.js&#45;&gt;utils/index.js</title>
<path fill="none" stroke="#757575" d="M967.0554,-346.3506C998.567,-319.2392 1074.4283,-253.971 1112.1229,-221.5399"/>
<polygon fill="#757575" stroke="#757575" points="1114.687,-223.951 1119.9848,-214.7758 1110.1216,-218.6447 1114.687,-223.951"/>
</g>
<!-- app/money/transactionForm.js&#45;&gt;app/button.js -->
<g id="edge27" class="edge">
<title>app/money/transactionForm.js&#45;&gt;app/button.js</title>
<path fill="none" stroke="#757575" d="M735.7177,-169.4469C764.8989,-156.5729 812.9785,-136.1312 855.5947,-121.5916 930.6282,-95.992 1019.1579,-72.6589 1075.9367,-58.5473"/>
<polygon fill="#757575" stroke="#757575" points="1076.9427,-61.904 1085.8107,-56.1067 1075.263,-55.1086 1076.9427,-61.904"/>
</g>
<!-- app/money/transactionForm.js&#45;&gt;app/dateInput.js -->
<g id="edge28" class="edge">
<title>app/money/transactionForm.js&#45;&gt;app/dateInput.js</title>
<path fill="none" stroke="#757575" d="M811.1989,-172.777C836.088,-170.6356 862.0933,-168.3982 884.9271,-166.4336"/>
<polygon fill="#757575" stroke="#757575" points="885.5167,-169.8959 895.1798,-165.5515 884.9166,-162.9217 885.5167,-169.8959"/>
</g>
<!-- app/money/transactionForm.js&#45;&gt;theme.js -->
<g id="edge30" class="edge">
<title>app/money/transactionForm.js&#45;&gt;theme.js</title>
<path fill="none" stroke="#757575" d="M748.6862,-193.6617C833.0288,-219.3172 1023.7389,-278.2626 1050.0605,-294.5916 1077.8999,-311.8622 1103.3728,-340.1454 1118.8157,-359.298"/>
<polygon fill="#757575" stroke="#757575" points="1116.2432,-361.6886 1125.1777,-367.3829 1121.7443,-357.3598 1116.2432,-361.6886"/>
</g>
<!-- app/money/transactionForm.js&#45;&gt;utils/index.js -->
<g id="edge31" class="edge">
<title>app/money/transactionForm.js&#45;&gt;utils/index.js</title>
<path fill="none" stroke="#757575" d="M738.3714,-169.4834C798.6679,-146.6531 939.3225,-102.7092 1050.0605,-139.5916 1075.7038,-148.1324 1099.8319,-167.8918 1115.6081,-183.022"/>
<polygon fill="#757575" stroke="#757575" points="1113.5003,-185.8617 1123.0605,-190.4282 1118.4346,-180.8965 1113.5003,-185.8617"/>
</g>
<!-- app/moneyInput.js -->
<g id="node16" class="node">
<title>app/moneyInput.js</title>
<path fill="none" stroke="#c6c5fe" d="M1010.1686,-214.6905C1010.1686,-214.6905 895.4866,-214.6905 895.4866,-214.6905 891.4537,-214.6905 887.4208,-210.6575 887.4208,-206.6246 887.4208,-206.6246 887.4208,-198.5587 887.4208,-198.5587 887.4208,-194.5257 891.4537,-190.4928 895.4866,-190.4928 895.4866,-190.4928 1010.1686,-190.4928 1010.1686,-190.4928 1014.2016,-190.4928 1018.2345,-194.5257 1018.2345,-198.5587 1018.2345,-198.5587 1018.2345,-206.6246 1018.2345,-206.6246 1018.2345,-210.6575 1014.2016,-214.6905 1010.1686,-214.6905"/>
<text text-anchor="middle" x="952.8276" y="-199.4409" font-family="Arial" font-size="14.00" fill="#c6c5fe">app/moneyInput.js</text>
</g>
<!-- app/money/transactionForm.js&#45;&gt;app/moneyInput.js -->
<g id="edge29" class="edge">
<title>app/money/transactionForm.js&#45;&gt;app/moneyInput.js</title>
<path fill="none" stroke="#757575" d="M811.1989,-190.4062C833.3973,-192.3161 856.4835,-194.3024 877.4158,-196.1034"/>
<polygon fill="#757575" stroke="#757575" points="877.242,-199.6013 887.5053,-196.9715 877.8421,-192.627 877.242,-199.6013"/>
</g>
<!-- app/money/transactionList.js&#45;&gt;theme.js -->
<g id="edge32" class="edge">
<title>app/money/transactionList.js&#45;&gt;theme.js</title>
<path fill="none" stroke="#757575" d="M1049.5918,-389.3846C1063.4286,-387.782 1077.0749,-386.2015 1089.2336,-384.7934"/>
<polygon fill="#757575" stroke="#757575" points="1089.9721,-388.2313 1099.503,-383.604 1089.1667,-381.2778 1089.9721,-388.2313"/>
</g>
<!-- app/money/transactionList.js&#45;&gt;utils/index.js -->
<g id="edge33" class="edge">
<title>app/money/transactionList.js&#45;&gt;utils/index.js</title>
<path fill="none" stroke="#757575" d="M1035.9332,-388.3764C1040.9608,-385.9254 1045.7289,-383.0235 1050.0605,-379.5916 1100.2997,-339.7892 1122.1346,-262.7054 1130.1629,-224.7721"/>
<polygon fill="#757575" stroke="#757575" points="1133.6369,-225.2467 1132.1508,-214.7567 1126.7708,-223.8839 1133.6369,-225.2467"/>
</g>
<!-- app/screen.js&#45;&gt;theme.js -->
<g id="edge35" class="edge">
<title>app/screen.js&#45;&gt;theme.js</title>
<path fill="none" stroke="#757575" d="M1002.4938,-472.0293C1018.2951,-468.0873 1035.4515,-462.4745 1050.0605,-454.5916 1076.2465,-440.462 1101.0005,-416.6448 1116.7794,-399.6408"/>
<polygon fill="#757575" stroke="#757575" points="1119.6574,-401.6766 1123.7713,-391.913 1114.4667,-396.9801 1119.6574,-401.6766"/>
</g>
<!-- app/money/monthTransactions.js&#45;&gt;app/money/transactionList.js -->
<g id="edge18" class="edge">
<title>app/money/monthTransactions.js&#45;&gt;app/money/transactionList.js</title>
<path fill="none" stroke="#757575" d="M782.311,-428.5361C809.5639,-424.0698 840.6682,-418.9724 868.7837,-414.3648"/>
<polygon fill="#757575" stroke="#757575" points="869.6919,-417.7628 878.9942,-412.6915 868.5598,-410.8549 869.6919,-417.7628"/>
</g>
<!-- app/money/monthTransactions.js&#45;&gt;app/screen.js -->
<g id="edge19" class="edge">
<title>app/money/monthTransactions.js&#45;&gt;app/screen.js</title>
<path fill="none" stroke="#757575" d="M782.311,-452.6472C817.6745,-458.4426 859.5226,-465.3007 892.9111,-470.7725"/>
<polygon fill="#757575" stroke="#757575" points="892.5505,-474.26 902.9849,-472.4234 893.6826,-467.3521 892.5505,-474.26"/>
</g>
<!-- app/money/transactionDetails.js&#45;&gt;app/dateInput.js -->
<g id="edge22" class="edge">
<title>app/money/transactionDetails.js&#45;&gt;app/dateInput.js</title>
<path fill="none" stroke="#757575" d="M730.8971,-252.3573C753.32,-239.9355 788.9611,-220.0917 819.5947,-202.5916 835.6785,-193.4034 838.3276,-188.2967 855.5947,-181.5916 864.9521,-177.958 875.0729,-174.8918 885.128,-172.3227"/>
<polygon fill="#757575" stroke="#757575" points="886.2263,-175.6585 895.1304,-169.9167 884.5892,-168.8526 886.2263,-175.6585"/>
</g>
<!-- app/money/transactionDetails.js&#45;&gt;theme.js -->
<g id="edge25" class="edge">
<title>app/money/transactionDetails.js&#45;&gt;theme.js</title>
<path fill="none" stroke="#757575" d="M767.2315,-276.7002C861.2056,-296.2138 1036.7107,-332.9147 1050.0605,-337.5916 1068.6805,-344.1148 1088.4684,-353.8448 1104.1678,-362.2974"/>
<polygon fill="#757575" stroke="#757575" points="1102.9183,-365.6045 1113.3675,-367.3552 1106.2907,-359.4704 1102.9183,-365.6045"/>
</g>
<!-- app/money/transactionDetails.js&#45;&gt;utils/index.js -->
<g id="edge26" class="edge">
<title>app/money/transactionDetails.js&#45;&gt;utils/index.js</title>
<path fill="none" stroke="#757575" d="M816.1101,-255.1733C883.5914,-248.3956 972.2905,-237.9158 1050.0605,-223.5916 1059.938,-221.7723 1070.3813,-219.4741 1080.4237,-217.0703"/>
<polygon fill="#757575" stroke="#757575" points="1081.4203,-220.4296 1090.2967,-214.6451 1079.7505,-213.6317 1081.4203,-220.4296"/>
</g>
<!-- app/money/transactionDetails.js&#45;&gt;app/screen.js -->
<g id="edge24" class="edge">
<title>app/money/transactionDetails.js&#45;&gt;app/screen.js</title>
<path fill="none" stroke="#757575" d="M718.1064,-276.6694C740.0468,-304.485 797.3633,-374.2996 855.5947,-421.5916 875.5748,-437.8182 900.4182,-452.8175 919.9916,-463.632"/>
<polygon fill="#757575" stroke="#757575" points="918.396,-466.7483 928.8544,-468.4435 921.7358,-460.5964 918.396,-466.7483"/>
</g>
<!-- app/money/transactionDetails.js&#45;&gt;app/moneyInput.js -->
<g id="edge23" class="edge">
<title>app/money/transactionDetails.js&#45;&gt;app/moneyInput.js</title>
<path fill="none" stroke="#757575" d="M756.3885,-252.4902C796.2039,-242.3765 853.1041,-227.923 895.4261,-217.1725"/>
<polygon fill="#757575" stroke="#757575" points="896.4769,-220.5168 905.3074,-214.6625 894.7535,-213.7323 896.4769,-220.5168"/>
</g>
<!-- app/moneyInput.js&#45;&gt;utils/index.js -->
<g id="edge34" class="edge">
<title>app/moneyInput.js&#45;&gt;utils/index.js</title>
<path fill="none" stroke="#757575" d="M1018.0317,-202.5916C1037.5632,-202.5916 1058.8099,-202.5916 1077.7256,-202.5916"/>
<polygon fill="#757575" stroke="#757575" points="1077.9688,-206.0917 1087.9688,-202.5916 1077.9688,-199.0917 1077.9688,-206.0917"/>
</g>
<!-- index.js -->
<g id="node17" class="node">
<title>index.js</title>
<path fill="none" stroke="#c6c5fe" d="M55.639,-490.6905C55.639,-490.6905 7.8298,-490.6905 7.8298,-490.6905 3.7968,-490.6905 -.2361,-486.6575 -.2361,-482.6246 -.2361,-482.6246 -.2361,-474.5587 -.2361,-474.5587 -.2361,-470.5257 3.7968,-466.4928 7.8298,-466.4928 7.8298,-466.4928 55.639,-466.4928 55.639,-466.4928 59.6719,-466.4928 63.7049,-470.5257 63.7049,-474.5587 63.7049,-474.5587 63.7049,-482.6246 63.7049,-482.6246 63.7049,-486.6575 59.6719,-490.6905 55.639,-490.6905"/>
<text text-anchor="middle" x="31.7344" y="-475.4409" font-family="Arial" font-size="14.00" fill="#c6c5fe">index.js</text>
</g>
<!-- index.js&#45;&gt;app/index.js -->
<g id="edge37" class="edge">
<title>index.js&#45;&gt;app/index.js</title>
<path fill="none" stroke="#757575" d="M63.538,-478.5916C71.5207,-478.5916 80.323,-478.5916 89.099,-478.5916"/>
<polygon fill="#757575" stroke="#757575" points="89.3385,-482.0917 99.3385,-478.5916 89.3384,-475.0917 89.3385,-482.0917"/>
</g>
</g>
</svg>
