<?xml version="1.0" encoding="UTF-8" standalone="no"?>
<!DOCTYPE svg PUBLIC "-//W3C//DTD SVG 1.1//EN"
 "http://www.w3.org/Graphics/SVG/1.1/DTD/svg11.dtd">
<!-- Generated by graphviz version 2.40.1 (20161225.0304)
 -->
<!-- Title: G Pages: 1 -->
<svg width="1806pt" height="1472pt"
 viewBox="0.00 0.00 1806.12 1472.19" xmlns="http://www.w3.org/2000/svg" xmlns:xlink="http://www.w3.org/1999/xlink">
<g id="graph0" class="graph" transform="scale(1 1) rotate(0) translate(21.6 1450.5938)">
<title>G</title>
<polygon fill="#111111" stroke="transparent" points="-21.6,21.6 -21.6,-1450.5938 1784.5229,-1450.5938 1784.5229,21.6 -21.6,21.6"/>
<!-- app/card.js -->
<g id="node1" class="node">
<title>app/card.js</title>
<path fill="none" stroke="#c6c5fe" d="M1075.6616,-1355.5729C1075.6616,-1355.5729 1006.8257,-1355.5729 1006.8257,-1355.5729 1002.7928,-1355.5729 998.7598,-1351.5399 998.7598,-1347.507 998.7598,-1347.507 998.7598,-1339.4411 998.7598,-1339.4411 998.7598,-1335.4081 1002.7928,-1331.3752 1006.8257,-1331.3752 1006.8257,-1331.3752 1075.6616,-1331.3752 1075.6616,-1331.3752 1079.6945,-1331.3752 1083.7275,-1335.4081 1083.7275,-1339.4411 1083.7275,-1339.4411 1083.7275,-1347.507 1083.7275,-1347.507 1083.7275,-1351.5399 1079.6945,-1355.5729 1075.6616,-1355.5729"/>
<text text-anchor="middle" x="1041.2437" y="-1340.3233" font-family="Arial" font-size="14.00" fill="#c6c5fe">app/card.js</text>
</g>
<!-- theme.js -->
<g id="node2" class="node">
<title>theme.js</title>
<path fill="none" stroke="#cfffac" d="M1754.8121,-771.5729C1754.8121,-771.5729 1702.1234,-771.5729 1702.1234,-771.5729 1698.0905,-771.5729 1694.0576,-767.5399 1694.0576,-763.507 1694.0576,-763.507 1694.0576,-755.4411 1694.0576,-755.4411 1694.0576,-751.4081 1698.0905,-747.3752 1702.1234,-747.3752 1702.1234,-747.3752 1754.8121,-747.3752 1754.8121,-747.3752 1758.845,-747.3752 1762.878,-751.4081 1762.878,-755.4411 1762.878,-755.4411 1762.878,-763.507 1762.878,-763.507 1762.878,-767.5399 1758.845,-771.5729 1754.8121,-771.5729"/>
<text text-anchor="middle" x="1728.4678" y="-756.3233" font-family="Arial" font-size="14.00" fill="#cfffac">theme.js</text>
</g>
<!-- app/card.js&#45;&gt;theme.js -->
<g id="edge1" class="edge">
<title>app/card.js&#45;&gt;theme.js</title>
<path fill="none" stroke="#757575" d="M1083.5796,-1344.7771C1215.9906,-1348.4343 1615.9605,-1356.1549 1658.0127,-1317.474 1698.2344,-1280.4769 1721.9889,-881.4569 1727.3178,-781.8858"/>
<polygon fill="#757575" stroke="#757575" points="1730.8209,-781.9159 1727.8517,-771.7457 1723.8306,-781.5478 1730.8209,-781.9159"/>
</g>
<!-- app/dateInput.js -->
<g id="node3" class="node">
<title>app/dateInput.js</title>
<path fill="none" stroke="#c6c5fe" d="M1399.7203,-457.5729C1399.7203,-457.5729 1300.5834,-457.5729 1300.5834,-457.5729 1296.5504,-457.5729 1292.5175,-453.5399 1292.5175,-449.507 1292.5175,-449.507 1292.5175,-441.4411 1292.5175,-441.4411 1292.5175,-437.4081 1296.5504,-433.3752 1300.5834,-433.3752 1300.5834,-433.3752 1399.7203,-433.3752 1399.7203,-433.3752 1403.7533,-433.3752 1407.7862,-437.4081 1407.7862,-441.4411 1407.7862,-441.4411 1407.7862,-449.507 1407.7862,-449.507 1407.7862,-453.5399 1403.7533,-457.5729 1399.7203,-457.5729"/>
<text text-anchor="middle" x="1350.1519" y="-442.3233" font-family="Arial" font-size="14.00" fill="#c6c5fe">app/dateInput.js</text>
</g>
<!-- app/dateInput.js&#45;&gt;theme.js -->
<g id="edge4" class="edge">
<title>app/dateInput.js&#45;&gt;theme.js</title>
<path fill="none" stroke="#757575" d="M1407.9761,-440.9627C1486.5459,-436.1248 1621.448,-432.8157 1658.0127,-463.474 1700.3989,-499.0136 1720.5866,-674.4998 1726.5292,-737.1761"/>
<polygon fill="#757575" stroke="#757575" points="1723.0489,-737.5522 1727.4472,-747.1909 1730.0196,-736.9131 1723.0489,-737.5522"/>
</g>
<!-- app/outlineButton.js -->
<g id="node4" class="node">
<title>app/outlineButton.js</title>
<path fill="none" stroke="#cfffac" d="M1649.9361,-851.5729C1649.9361,-851.5729 1527.1108,-851.5729 1527.1108,-851.5729 1523.0779,-851.5729 1519.0449,-847.5399 1519.0449,-843.507 1519.0449,-843.507 1519.0449,-835.4411 1519.0449,-835.4411 1519.0449,-831.4081 1523.0779,-827.3752 1527.1108,-827.3752 1527.1108,-827.3752 1649.9361,-827.3752 1649.9361,-827.3752 1653.969,-827.3752 1658.002,-831.4081 1658.002,-835.4411 1658.002,-835.4411 1658.002,-843.507 1658.002,-843.507 1658.002,-847.5399 1653.969,-851.5729 1649.9361,-851.5729"/>
<text text-anchor="middle" x="1588.5234" y="-836.3233" font-family="Arial" font-size="14.00" fill="#cfffac">app/outlineButton.js</text>
</g>
<!-- app/dateInput.js&#45;&gt;app/outlineButton.js -->
<g id="edge2" class="edge">
<title>app/dateInput.js&#45;&gt;app/outlineButton.js</title>
<path fill="none" stroke="#757575" d="M1408.0769,-439.8643C1434.4948,-440.6104 1464.0463,-446.6598 1483.0342,-466.474 1531.629,-517.1838 1485.9487,-718.5201 1519.0342,-780.474 1527.9862,-797.237 1543.8287,-811.2552 1558.1282,-821.4155"/>
<polygon fill="#757575" stroke="#757575" points="1556.5087,-824.5448 1566.7568,-827.2332 1560.422,-818.7408 1556.5087,-824.5448"/>
</g>
<!-- app/sharedStyles.js -->
<g id="node5" class="node">
<title>app/sharedStyles.js</title>
<path fill="none" stroke="#c6c5fe" d="M1649.6364,-771.5729C1649.6364,-771.5729 1527.4105,-771.5729 1527.4105,-771.5729 1523.3776,-771.5729 1519.3446,-767.5399 1519.3446,-763.507 1519.3446,-763.507 1519.3446,-755.4411 1519.3446,-755.4411 1519.3446,-751.4081 1523.3776,-747.3752 1527.4105,-747.3752 1527.4105,-747.3752 1649.6364,-747.3752 1649.6364,-747.3752 1653.6693,-747.3752 1657.7023,-751.4081 1657.7023,-755.4411 1657.7023,-755.4411 1657.7023,-763.507 1657.7023,-763.507 1657.7023,-767.5399 1653.6693,-771.5729 1649.6364,-771.5729"/>
<text text-anchor="middle" x="1588.5234" y="-756.3233" font-family="Arial" font-size="14.00" fill="#c6c5fe">app/sharedStyles.js</text>
</g>
<!-- app/dateInput.js&#45;&gt;app/sharedStyles.js -->
<g id="edge3" class="edge">
<title>app/dateInput.js&#45;&gt;app/sharedStyles.js</title>
<path fill="none" stroke="#757575" d="M1407.8164,-440.8318C1433.8524,-441.8733 1463.1576,-447.8918 1483.0342,-466.474 1535.6456,-515.6594 1494.3587,-556.811 1519.0342,-624.474 1534.4777,-666.8218 1560.2945,-712.8302 1575.7359,-738.714"/>
<polygon fill="#757575" stroke="#757575" points="1572.7522,-740.5438 1580.917,-747.2956 1578.7447,-736.9258 1572.7522,-740.5438"/>
</g>
<!-- utils/date.js -->
<g id="node6" class="node">
<title>utils/date.js</title>
<path fill="none" stroke="#cfffac" d="M1623.4917,-320.5729C1623.4917,-320.5729 1553.5551,-320.5729 1553.5551,-320.5729 1549.5222,-320.5729 1545.4893,-316.5399 1545.4893,-312.507 1545.4893,-312.507 1545.4893,-304.4411 1545.4893,-304.4411 1545.4893,-300.4081 1549.5222,-296.3752 1553.5551,-296.3752 1553.5551,-296.3752 1623.4917,-296.3752 1623.4917,-296.3752 1627.5247,-296.3752 1631.5576,-300.4081 1631.5576,-304.4411 1631.5576,-304.4411 1631.5576,-312.507 1631.5576,-312.507 1631.5576,-316.5399 1627.5247,-320.5729 1623.4917,-320.5729"/>
<text text-anchor="middle" x="1588.5234" y="-305.3233" font-family="Arial" font-size="14.00" fill="#cfffac">utils/date.js</text>
</g>
<!-- app/dateInput.js&#45;&gt;utils/date.js -->
<g id="edge5" class="edge">
<title>app/dateInput.js&#45;&gt;utils/date.js</title>
<path fill="none" stroke="#757575" d="M1382.5283,-433.4114C1410.0497,-422.6203 1450.2051,-405.5891 1483.0342,-386.474 1513.4818,-368.7456 1545.6494,-343.9629 1566.3415,-327.1239"/>
<polygon fill="#757575" stroke="#757575" points="1568.7061,-329.7108 1574.2062,-320.6554 1564.2595,-324.3045 1568.7061,-329.7108"/>
</g>
<!-- app/sharedStyles.js&#45;&gt;theme.js -->
<g id="edge105" class="edge">
<title>app/sharedStyles.js&#45;&gt;theme.js</title>
<path fill="none" stroke="#757575" d="M1657.6756,-759.474C1666.4878,-759.474 1675.3173,-759.474 1683.605,-759.474"/>
<polygon fill="#757575" stroke="#757575" points="1683.7709,-762.9741 1693.7709,-759.474 1683.7708,-755.9741 1683.7709,-762.9741"/>
</g>
<!-- app/index.js -->
<g id="node7" class="node">
<title>app/index.js</title>
<path fill="none" stroke="#c6c5fe" d="M181.9785,-640.5729C181.9785,-640.5729 107.6758,-640.5729 107.6758,-640.5729 103.6429,-640.5729 99.6099,-636.5399 99.6099,-632.507 99.6099,-632.507 99.6099,-624.4411 99.6099,-624.4411 99.6099,-620.4081 103.6429,-616.3752 107.6758,-616.3752 107.6758,-616.3752 181.9785,-616.3752 181.9785,-616.3752 186.0114,-616.3752 190.0444,-620.4081 190.0444,-624.4411 190.0444,-624.4411 190.0444,-632.507 190.0444,-632.507 190.0444,-636.5399 186.0114,-640.5729 181.9785,-640.5729"/>
<text text-anchor="middle" x="144.8271" y="-625.3233" font-family="Arial" font-size="14.00" fill="#c6c5fe">app/index.js</text>
</g>
<!-- app/index.js&#45;&gt;theme.js -->
<g id="edge10" class="edge">
<title>app/index.js&#45;&gt;theme.js</title>
<path fill="none" stroke="#757575" d="M147.4073,-640.6741C168.9521,-740.9466 322.6199,-1425.474 502.5327,-1425.474 502.5327,-1425.474 502.5327,-1425.474 1350.1519,-1425.474 1491.7493,-1425.474 1569.7909,-1454.2294 1658.0127,-1343.474 1693.7368,-1298.6253 1721.0039,-883.0177 1727.1588,-781.678"/>
<polygon fill="#757575" stroke="#757575" points="1730.6557,-781.834 1727.7614,-771.6422 1723.6683,-781.4144 1730.6557,-781.834"/>
</g>
<!-- app/misc/index.js -->
<g id="node8" class="node">
<title>app/misc/index.js</title>
<path fill="none" stroke="#c6c5fe" d="M556.3463,-1145.5729C556.3463,-1145.5729 448.7191,-1145.5729 448.7191,-1145.5729 444.6862,-1145.5729 440.6532,-1141.5399 440.6532,-1137.507 440.6532,-1137.507 440.6532,-1129.4411 440.6532,-1129.4411 440.6532,-1125.4081 444.6862,-1121.3752 448.7191,-1121.3752 448.7191,-1121.3752 556.3463,-1121.3752 556.3463,-1121.3752 560.3793,-1121.3752 564.4122,-1125.4081 564.4122,-1129.4411 564.4122,-1129.4411 564.4122,-1137.507 564.4122,-1137.507 564.4122,-1141.5399 560.3793,-1145.5729 556.3463,-1145.5729"/>
<text text-anchor="middle" x="502.5327" y="-1130.3233" font-family="Arial" font-size="14.00" fill="#c6c5fe">app/misc/index.js</text>
</g>
<!-- app/index.js&#45;&gt;app/misc/index.js -->
<g id="edge6" class="edge">
<title>app/index.js&#45;&gt;app/misc/index.js</title>
<path fill="none" stroke="#757575" d="M153.6694,-640.9572C201.3149,-708.2221 427.5454,-1027.6087 487.7736,-1112.6374"/>
<polygon fill="#757575" stroke="#757575" points="485.0431,-1114.8379 493.6794,-1120.9751 490.7553,-1110.7917 485.0431,-1114.8379"/>
</g>
<!-- app/money/index.js -->
<g id="node9" class="node">
<title>app/money/index.js</title>
<path fill="none" stroke="#c6c5fe" d="M357.6744,-640.5729C357.6744,-640.5729 237.5512,-640.5729 237.5512,-640.5729 233.5183,-640.5729 229.4853,-636.5399 229.4853,-632.507 229.4853,-632.507 229.4853,-624.4411 229.4853,-624.4411 229.4853,-620.4081 233.5183,-616.3752 237.5512,-616.3752 237.5512,-616.3752 357.6744,-616.3752 357.6744,-616.3752 361.7073,-616.3752 365.7403,-620.4081 365.7403,-624.4411 365.7403,-624.4411 365.7403,-632.507 365.7403,-632.507 365.7403,-636.5399 361.7073,-640.5729 357.6744,-640.5729"/>
<text text-anchor="middle" x="297.6128" y="-625.3233" font-family="Arial" font-size="14.00" fill="#c6c5fe">app/money/index.js</text>
</g>
<!-- app/index.js&#45;&gt;app/money/index.js -->
<g id="edge7" class="edge">
<title>app/index.js&#45;&gt;app/money/index.js</title>
<path fill="none" stroke="#757575" d="M190.2542,-628.474C199.3941,-628.474 209.2459,-628.474 219.1442,-628.474"/>
<polygon fill="#757575" stroke="#757575" points="219.4482,-631.9741 229.4482,-628.474 219.4481,-624.9741 219.4482,-631.9741"/>
</g>
<!-- app/settings/index.js -->
<g id="node10" class="node">
<title>app/settings/index.js</title>
<path fill="none" stroke="#c6c5fe" d="M360.9015,-598.5729C360.9015,-598.5729 234.3241,-598.5729 234.3241,-598.5729 230.2912,-598.5729 226.2582,-594.5399 226.2582,-590.507 226.2582,-590.507 226.2582,-582.4411 226.2582,-582.4411 226.2582,-578.4081 230.2912,-574.3752 234.3241,-574.3752 234.3241,-574.3752 360.9015,-574.3752 360.9015,-574.3752 364.9344,-574.3752 368.9674,-578.4081 368.9674,-582.4411 368.9674,-582.4411 368.9674,-590.507 368.9674,-590.507 368.9674,-594.5399 364.9344,-598.5729 360.9015,-598.5729"/>
<text text-anchor="middle" x="297.6128" y="-583.3233" font-family="Arial" font-size="14.00" fill="#c6c5fe">app/settings/index.js</text>
</g>
<!-- app/index.js&#45;&gt;app/settings/index.js -->
<g id="edge8" class="edge">
<title>app/index.js&#45;&gt;app/settings/index.js</title>
<path fill="none" stroke="#757575" d="M189.0191,-616.3259C206.1221,-611.6243 225.8609,-606.1982 243.7804,-601.2723"/>
<polygon fill="#757575" stroke="#757575" points="244.8056,-604.6204 253.5202,-598.5949 242.9501,-597.8707 244.8056,-604.6204"/>
</g>
<!-- config.json -->
<g id="node11" class="node">
<title>config.json</title>
<path fill="none" stroke="#cfffac" d="M330.9776,-556.5729C330.9776,-556.5729 264.248,-556.5729 264.248,-556.5729 260.215,-556.5729 256.1821,-552.5399 256.1821,-548.507 256.1821,-548.507 256.1821,-540.4411 256.1821,-540.4411 256.1821,-536.4081 260.215,-532.3752 264.248,-532.3752 264.248,-532.3752 330.9776,-532.3752 330.9776,-532.3752 335.0105,-532.3752 339.0435,-536.4081 339.0435,-540.4411 339.0435,-540.4411 339.0435,-548.507 339.0435,-548.507 339.0435,-552.5399 335.0105,-556.5729 330.9776,-556.5729"/>
<text text-anchor="middle" x="297.6128" y="-541.3233" font-family="Arial" font-size="14.00" fill="#cfffac">config.json</text>
</g>
<!-- app/index.js&#45;&gt;config.json -->
<g id="edge9" class="edge">
<title>app/index.js&#45;&gt;config.json</title>
<path fill="none" stroke="#757575" d="M157.3149,-616.3512C172.4564,-602.2676 199.3016,-579.2123 226.1855,-565.474 232.372,-562.3126 239.1094,-559.553 245.8936,-557.1658"/>
<polygon fill="#757575" stroke="#757575" points="247.3868,-560.3603 255.8082,-553.9314 245.2157,-553.7055 247.3868,-560.3603"/>
</g>
<!-- app/misc/electricityReadingsList.js -->
<g id="node16" class="node">
<title>app/misc/electricityReadingsList.js</title>
<path fill="none" stroke="#c6c5fe" d="M857.2482,-1044.5729C857.2482,-1044.5729 643.995,-1044.5729 643.995,-1044.5729 639.9621,-1044.5729 635.9291,-1040.5399 635.9291,-1036.507 635.9291,-1036.507 635.9291,-1028.4411 635.9291,-1028.4411 635.9291,-1024.4081 639.9621,-1020.3752 643.995,-1020.3752 643.995,-1020.3752 857.2482,-1020.3752 857.2482,-1020.3752 861.2811,-1020.3752 865.314,-1024.4081 865.314,-1028.4411 865.314,-1028.4411 865.314,-1036.507 865.314,-1036.507 865.314,-1040.5399 861.2811,-1044.5729 857.2482,-1044.5729"/>
<text text-anchor="middle" x="750.6216" y="-1029.3233" font-family="Arial" font-size="14.00" fill="#c6c5fe">app/misc/electricityReadingsList.js</text>
</g>
<!-- app/misc/index.js&#45;&gt;app/misc/electricityReadingsList.js -->
<g id="edge26" class="edge">
<title>app/misc/index.js&#45;&gt;app/misc/electricityReadingsList.js</title>
<path fill="none" stroke="#757575" d="M532.458,-1121.2911C577.2824,-1103.0425 661.884,-1068.6002 711.5344,-1048.3869"/>
<polygon fill="#757575" stroke="#757575" points="713.0342,-1051.5553 720.9763,-1044.543 710.3947,-1045.072 713.0342,-1051.5553"/>
</g>
<!-- app/misc/home.js -->
<g id="node18" class="node">
<title>app/misc/home.js</title>
<path fill="none" stroke="#c6c5fe" d="M804.9864,-1246.5729C804.9864,-1246.5729 696.2568,-1246.5729 696.2568,-1246.5729 692.2238,-1246.5729 688.1909,-1242.5399 688.1909,-1238.507 688.1909,-1238.507 688.1909,-1230.4411 688.1909,-1230.4411 688.1909,-1226.4081 692.2238,-1222.3752 696.2568,-1222.3752 696.2568,-1222.3752 804.9864,-1222.3752 804.9864,-1222.3752 809.0193,-1222.3752 813.0523,-1226.4081 813.0523,-1230.4411 813.0523,-1230.4411 813.0523,-1238.507 813.0523,-1238.507 813.0523,-1242.5399 809.0193,-1246.5729 804.9864,-1246.5729"/>
<text text-anchor="middle" x="750.6216" y="-1231.3233" font-family="Arial" font-size="14.00" fill="#c6c5fe">app/misc/home.js</text>
</g>
<!-- app/misc/index.js&#45;&gt;app/misc/home.js -->
<g id="edge27" class="edge">
<title>app/misc/index.js&#45;&gt;app/misc/home.js</title>
<path fill="none" stroke="#757575" d="M518.4098,-1145.6074C542.4811,-1163.373 590.2659,-1196.2204 636.0254,-1213.474 649.1988,-1218.4411 663.6804,-1222.2596 677.785,-1225.1868"/>
<polygon fill="#757575" stroke="#757575" points="677.4806,-1228.6931 687.9646,-1227.1646 678.8157,-1221.8216 677.4806,-1228.6931"/>
</g>
<!-- app/misc/store.js -->
<g id="node19" class="node">
<title>app/misc/store.js</title>
<path fill="none" stroke="#c6c5fe" d="M803.0899,-1396.5729C803.0899,-1396.5729 698.1533,-1396.5729 698.1533,-1396.5729 694.1203,-1396.5729 690.0874,-1392.5399 690.0874,-1388.507 690.0874,-1388.507 690.0874,-1380.4411 690.0874,-1380.4411 690.0874,-1376.4081 694.1203,-1372.3752 698.1533,-1372.3752 698.1533,-1372.3752 803.0899,-1372.3752 803.0899,-1372.3752 807.1228,-1372.3752 811.1558,-1376.4081 811.1558,-1380.4411 811.1558,-1380.4411 811.1558,-1388.507 811.1558,-1388.507 811.1558,-1392.5399 807.1228,-1396.5729 803.0899,-1396.5729"/>
<text text-anchor="middle" x="750.6216" y="-1381.3233" font-family="Arial" font-size="14.00" fill="#c6c5fe">app/misc/store.js</text>
</g>
<!-- app/misc/index.js&#45;&gt;app/misc/store.js -->
<g id="edge28" class="edge">
<title>app/misc/index.js&#45;&gt;app/misc/store.js</title>
<path fill="none" stroke="#757575" d="M506.102,-1145.6721C517.8212,-1183.4778 558.8611,-1299.5579 636.0254,-1356.474 648.8021,-1365.8981 664.3488,-1372.1822 679.8164,-1376.3638"/>
<polygon fill="#757575" stroke="#757575" points="679.3961,-1379.8633 689.9394,-1378.82 681.0467,-1373.0607 679.3961,-1379.8633"/>
</g>
<!-- app/money/accountDetails.js -->
<g id="node22" class="node">
<title>app/money/accountDetails.js</title>
<path fill="none" stroke="#c6c5fe" d="M591.9522,-679.5729C591.9522,-679.5729 413.1133,-679.5729 413.1133,-679.5729 409.0803,-679.5729 405.0474,-675.5399 405.0474,-671.507 405.0474,-671.507 405.0474,-663.4411 405.0474,-663.4411 405.0474,-659.4081 409.0803,-655.3752 413.1133,-655.3752 413.1133,-655.3752 591.9522,-655.3752 591.9522,-655.3752 595.9851,-655.3752 600.0181,-659.4081 600.0181,-663.4411 600.0181,-663.4411 600.0181,-671.507 600.0181,-671.507 600.0181,-675.5399 595.9851,-679.5729 591.9522,-679.5729"/>
<text text-anchor="middle" x="502.5327" y="-664.3233" font-family="Arial" font-size="14.00" fill="#c6c5fe">app/money/accountDetails.js</text>
</g>
<!-- app/money/index.js&#45;&gt;app/money/accountDetails.js -->
<g id="edge63" class="edge">
<title>app/money/index.js&#45;&gt;app/money/accountDetails.js</title>
<path fill="none" stroke="#757575" d="M361.0474,-640.5468C382.5553,-644.6401 406.7606,-649.2468 428.9883,-653.4772"/>
<polygon fill="#757575" stroke="#757575" points="428.567,-656.9598 439.0451,-655.3912 429.8758,-650.0832 428.567,-656.9598"/>
</g>
<!-- app/money/accounts.js -->
<g id="node27" class="node">
<title>app/money/accounts.js</title>
<path fill="none" stroke="#c6c5fe" d="M574.1593,-628.5729C574.1593,-628.5729 430.9061,-628.5729 430.9061,-628.5729 426.8732,-628.5729 422.8402,-624.5399 422.8402,-620.507 422.8402,-620.507 422.8402,-612.4411 422.8402,-612.4411 422.8402,-608.4081 426.8732,-604.3752 430.9061,-604.3752 430.9061,-604.3752 574.1593,-604.3752 574.1593,-604.3752 578.1923,-604.3752 582.2252,-608.4081 582.2252,-612.4411 582.2252,-612.4411 582.2252,-620.507 582.2252,-620.507 582.2252,-624.5399 578.1923,-628.5729 574.1593,-628.5729"/>
<text text-anchor="middle" x="502.5327" y="-613.3233" font-family="Arial" font-size="14.00" fill="#c6c5fe">app/money/accounts.js</text>
</g>
<!-- app/money/index.js&#45;&gt;app/money/accounts.js -->
<g id="edge64" class="edge">
<title>app/money/index.js&#45;&gt;app/money/accounts.js</title>
<path fill="none" stroke="#757575" d="M365.8482,-624.4782C380.8429,-623.6001 396.9424,-622.6573 412.6423,-621.738"/>
<polygon fill="#757575" stroke="#757575" points="413.1077,-625.2168 422.8859,-621.1381 412.6984,-618.2288 413.1077,-625.2168"/>
</g>
<!-- app/money/home.js -->
<g id="node31" class="node">
<title>app/money/home.js</title>
<path fill="none" stroke="#c6c5fe" d="M563.6457,-966.5729C563.6457,-966.5729 441.4198,-966.5729 441.4198,-966.5729 437.3868,-966.5729 433.3539,-962.5399 433.3539,-958.507 433.3539,-958.507 433.3539,-950.4411 433.3539,-950.4411 433.3539,-946.4081 437.3868,-942.3752 441.4198,-942.3752 441.4198,-942.3752 563.6457,-942.3752 563.6457,-942.3752 567.6786,-942.3752 571.7115,-946.4081 571.7115,-950.4411 571.7115,-950.4411 571.7115,-958.507 571.7115,-958.507 571.7115,-962.5399 567.6786,-966.5729 563.6457,-966.5729"/>
<text text-anchor="middle" x="502.5327" y="-951.3233" font-family="Arial" font-size="14.00" fill="#c6c5fe">app/money/home.js</text>
</g>
<!-- app/money/index.js&#45;&gt;app/money/home.js -->
<g id="edge65" class="edge">
<title>app/money/index.js&#45;&gt;app/money/home.js</title>
<path fill="none" stroke="#757575" d="M305.3957,-640.8555C336.2705,-689.9732 450.3372,-871.4381 489.3489,-933.5003"/>
<polygon fill="#757575" stroke="#757575" points="486.457,-935.4765 494.7421,-942.0802 492.3834,-931.7512 486.457,-935.4765"/>
</g>
<!-- app/money/monthTransactions.js -->
<g id="node34" class="node">
<title>app/money/monthTransactions.js</title>
<path fill="none" stroke="#c6c5fe" d="M1143.8713,-294.5729C1143.8713,-294.5729 938.616,-294.5729 938.616,-294.5729 934.583,-294.5729 930.5501,-290.5399 930.5501,-286.507 930.5501,-286.507 930.5501,-278.4411 930.5501,-278.4411 930.5501,-274.4081 934.583,-270.3752 938.616,-270.3752 938.616,-270.3752 1143.8713,-270.3752 1143.8713,-270.3752 1147.9043,-270.3752 1151.9372,-274.4081 1151.9372,-278.4411 1151.9372,-278.4411 1151.9372,-286.507 1151.9372,-286.507 1151.9372,-290.5399 1147.9043,-294.5729 1143.8713,-294.5729"/>
<text text-anchor="middle" x="1041.2437" y="-279.3233" font-family="Arial" font-size="14.00" fill="#c6c5fe">app/money/monthTransactions.js</text>
</g>
<!-- app/money/index.js&#45;&gt;app/money/monthTransactions.js -->
<g id="edge66" class="edge">
<title>app/money/index.js&#45;&gt;app/money/monthTransactions.js</title>
<path fill="none" stroke="#757575" d="M354.7538,-616.3814C359.8796,-613.9389 364.7462,-611.003 369.04,-607.474 395.7627,-585.5117 379.9362,-562.2699 405.04,-538.474 580.9075,-371.7698 671.139,-388.523 901.2178,-312.474 920.0991,-306.2331 940.8513,-300.9634 960.4621,-296.6673"/>
<polygon fill="#757575" stroke="#757575" points="961.2386,-300.0805 970.2895,-294.5732 959.7796,-293.2342 961.2386,-300.0805"/>
</g>
<!-- app/money/monthlyAnalytics.js -->
<g id="node35" class="node">
<title>app/money/monthlyAnalytics.js</title>
<path fill="none" stroke="#c6c5fe" d="M1137.3771,-766.5729C1137.3771,-766.5729 945.1102,-766.5729 945.1102,-766.5729 941.0773,-766.5729 937.0443,-762.5399 937.0443,-758.507 937.0443,-758.507 937.0443,-750.4411 937.0443,-750.4411 937.0443,-746.4081 941.0773,-742.3752 945.1102,-742.3752 945.1102,-742.3752 1137.3771,-742.3752 1137.3771,-742.3752 1141.41,-742.3752 1145.443,-746.4081 1145.443,-750.4411 1145.443,-750.4411 1145.443,-758.507 1145.443,-758.507 1145.443,-762.5399 1141.41,-766.5729 1137.3771,-766.5729"/>
<text text-anchor="middle" x="1041.2437" y="-751.3233" font-family="Arial" font-size="14.00" fill="#c6c5fe">app/money/monthlyAnalytics.js</text>
</g>
<!-- app/money/index.js&#45;&gt;app/money/monthlyAnalytics.js -->
<g id="edge67" class="edge">
<title>app/money/index.js&#45;&gt;app/money/monthlyAnalytics.js</title>
<path fill="none" stroke="#757575" d="M314.1153,-640.5301C334.4032,-654.6564 370.415,-677.5213 405.04,-688.474 581.1823,-744.192 797.0791,-755.3647 926.6662,-756.3581"/>
<polygon fill="#757575" stroke="#757575" points="926.9821,-759.8599 937.0019,-756.4171 927.0221,-752.86 926.9821,-759.8599"/>
</g>
<!-- app/money/store.js -->
<g id="node36" class="node">
<title>app/money/store.js</title>
<path fill="none" stroke="#c6c5fe" d="M561.7493,-220.5729C561.7493,-220.5729 443.3161,-220.5729 443.3161,-220.5729 439.2831,-220.5729 435.2502,-216.5399 435.2502,-212.507 435.2502,-212.507 435.2502,-204.4411 435.2502,-204.4411 435.2502,-200.4081 439.2831,-196.3752 443.3161,-196.3752 443.3161,-196.3752 561.7493,-196.3752 561.7493,-196.3752 565.7823,-196.3752 569.8152,-200.4081 569.8152,-204.4411 569.8152,-204.4411 569.8152,-212.507 569.8152,-212.507 569.8152,-216.5399 565.7823,-220.5729 561.7493,-220.5729"/>
<text text-anchor="middle" x="502.5327" y="-205.3233" font-family="Arial" font-size="14.00" fill="#c6c5fe">app/money/store.js</text>
</g>
<!-- app/money/index.js&#45;&gt;app/money/store.js -->
<g id="edge68" class="edge">
<title>app/money/index.js&#45;&gt;app/money/store.js</title>
<path fill="none" stroke="#757575" d="M358.9574,-616.3415C362.7299,-613.8879 366.1586,-610.9615 369.04,-607.474 422.0813,-543.2775 351.1901,-297.9938 405.04,-234.474 410.6579,-227.8474 417.758,-222.8124 425.5551,-219.0012"/>
<polygon fill="#757575" stroke="#757575" points="427.1009,-222.1487 434.9815,-215.0673 424.4049,-215.6887 427.1009,-222.1487"/>
</g>
<!-- app/money/transactionDetails.js -->
<g id="node37" class="node">
<title>app/money/transactionDetails.js</title>
<path fill="none" stroke="#c6c5fe" d="M1140.6118,-526.5729C1140.6118,-526.5729 941.8755,-526.5729 941.8755,-526.5729 937.8426,-526.5729 933.8096,-522.5399 933.8096,-518.507 933.8096,-518.507 933.8096,-510.4411 933.8096,-510.4411 933.8096,-506.4081 937.8426,-502.3752 941.8755,-502.3752 941.8755,-502.3752 1140.6118,-502.3752 1140.6118,-502.3752 1144.6447,-502.3752 1148.6777,-506.4081 1148.6777,-510.4411 1148.6777,-510.4411 1148.6777,-518.507 1148.6777,-518.507 1148.6777,-522.5399 1144.6447,-526.5729 1140.6118,-526.5729"/>
<text text-anchor="middle" x="1041.2437" y="-511.3233" font-family="Arial" font-size="14.00" fill="#c6c5fe">app/money/transactionDetails.js</text>
</g>
<!-- app/money/index.js&#45;&gt;app/money/transactionDetails.js -->
<g id="edge69" class="edge">
<title>app/money/index.js&#45;&gt;app/money/transactionDetails.js</title>
<path fill="none" stroke="#757575" d="M339.6125,-616.3983C349.2976,-613.5381 359.5434,-610.4518 369.04,-607.474 385.1329,-602.428 388.8689,-600.2635 405.04,-595.474 506.7402,-565.3528 531.1967,-551.6347 636.0254,-535.474 732.1695,-520.6522 842.4996,-515.7103 923.7346,-514.3023"/>
<polygon fill="#757575" stroke="#757575" points="924.0513,-517.7978 933.9948,-514.1405 923.9409,-510.7987 924.0513,-517.7978"/>
</g>
<!-- app/screen.js -->
<g id="node17" class="node">
<title>app/screen.js</title>
<path fill="none" stroke="#c6c5fe" d="M1391.8549,-377.5729C1391.8549,-377.5729 1308.4488,-377.5729 1308.4488,-377.5729 1304.4159,-377.5729 1300.3829,-373.5399 1300.3829,-369.507 1300.3829,-369.507 1300.3829,-361.4411 1300.3829,-361.4411 1300.3829,-357.4081 1304.4159,-353.3752 1308.4488,-353.3752 1308.4488,-353.3752 1391.8549,-353.3752 1391.8549,-353.3752 1395.8878,-353.3752 1399.9208,-357.4081 1399.9208,-361.4411 1399.9208,-361.4411 1399.9208,-369.507 1399.9208,-369.507 1399.9208,-373.5399 1395.8878,-377.5729 1391.8549,-377.5729"/>
<text text-anchor="middle" x="1350.1519" y="-362.3233" font-family="Arial" font-size="14.00" fill="#c6c5fe">app/screen.js</text>
</g>
<!-- app/settings/index.js&#45;&gt;app/screen.js -->
<g id="edge104" class="edge">
<title>app/settings/index.js&#45;&gt;app/screen.js</title>
<path fill="none" stroke="#757575" d="M358.9624,-574.3456C362.7337,-571.8911 366.1608,-568.9633 369.04,-565.474 422.7446,-500.3908 342.6099,-244.2409 405.04,-187.474 452.1894,-144.6018 971.5317,-187.4474 1181.2695,-261.474 1238.2548,-281.5869 1296.4783,-323.0005 1327.4607,-347.057"/>
<polygon fill="#757575" stroke="#757575" points="1325.4311,-349.9136 1335.4533,-353.3497 1329.7614,-344.4137 1325.4311,-349.9136"/>
</g>
<!-- app/misc/electricityReadingAdd.js -->
<g id="node12" class="node">
<title>app/misc/electricityReadingAdd.js</title>
<path fill="none" stroke="#c6c5fe" d="M1145.9944,-1086.5729C1145.9944,-1086.5729 936.4929,-1086.5729 936.4929,-1086.5729 932.46,-1086.5729 928.427,-1082.5399 928.427,-1078.507 928.427,-1078.507 928.427,-1070.4411 928.427,-1070.4411 928.427,-1066.4081 932.46,-1062.3752 936.4929,-1062.3752 936.4929,-1062.3752 1145.9944,-1062.3752 1145.9944,-1062.3752 1150.0273,-1062.3752 1154.0603,-1066.4081 1154.0603,-1070.4411 1154.0603,-1070.4411 1154.0603,-1078.507 1154.0603,-1078.507 1154.0603,-1082.5399 1150.0273,-1086.5729 1145.9944,-1086.5729"/>
<text text-anchor="middle" x="1041.2437" y="-1071.3233" font-family="Arial" font-size="14.00" fill="#c6c5fe">app/misc/electricityReadingAdd.js</text>
</g>
<!-- app/misc/electricityReadingAdd.js&#45;&gt;theme.js -->
<g id="edge15" class="edge">
<title>app/misc/electricityReadingAdd.js&#45;&gt;theme.js</title>
<path fill="none" stroke="#757575" d="M1098.4487,-1086.5571C1221.4068,-1108.8076 1511.5685,-1140.6839 1658.0127,-983.474 1685.9715,-953.4599 1713.5098,-832.2207 1724.0128,-781.7213"/>
<polygon fill="#757575" stroke="#757575" points="1727.4647,-782.3107 1726.043,-771.8117 1720.6071,-780.9057 1727.4647,-782.3107"/>
</g>
<!-- app/misc/electricityReadingAdd.js&#45;&gt;app/outlineButton.js -->
<g id="edge11" class="edge">
<title>app/misc/electricityReadingAdd.js&#45;&gt;app/outlineButton.js</title>
<path fill="none" stroke="#757575" d="M1154.0575,-1076.4311C1249.0674,-1072.9146 1384.8062,-1055.3099 1483.0342,-990.474 1532.1339,-958.0655 1565.1422,-894.256 1579.8301,-860.9133"/>
<polygon fill="#757575" stroke="#757575" points="1583.0934,-862.1836 1583.7978,-851.6122 1576.6547,-859.437 1583.0934,-862.1836"/>
</g>
<!-- app/misc/electricityReadingAdd.js&#45;&gt;app/sharedStyles.js -->
<g id="edge13" class="edge">
<title>app/misc/electricityReadingAdd.js&#45;&gt;app/sharedStyles.js</title>
<path fill="none" stroke="#757575" d="M1154.1859,-1065.1166C1163.6587,-1062.0911 1172.8285,-1058.2731 1181.2695,-1053.474 1203.2347,-1040.986 1196.0391,-1023.174 1217.2695,-1009.474 1319.9979,-943.1837 1395.2792,-1023.601 1483.0342,-938.474 1523.0009,-899.7042 1488.5587,-865.0754 1519.0342,-818.474 1529.6504,-802.2404 1546.029,-788.0273 1560.2192,-777.621"/>
<polygon fill="#757575" stroke="#757575" points="1562.5388,-780.2683 1568.7006,-771.6495 1558.509,-774.5446 1562.5388,-780.2683"/>
</g>
<!-- app/pill.js -->
<g id="node13" class="node">
<title>app/pill.js</title>
<path fill="none" stroke="#cfffac" d="M1379.4521,-1199.5729C1379.4521,-1199.5729 1320.8516,-1199.5729 1320.8516,-1199.5729 1316.8187,-1199.5729 1312.7857,-1195.5399 1312.7857,-1191.507 1312.7857,-1191.507 1312.7857,-1183.4411 1312.7857,-1183.4411 1312.7857,-1179.4081 1316.8187,-1175.3752 1320.8516,-1175.3752 1320.8516,-1175.3752 1379.4521,-1175.3752 1379.4521,-1175.3752 1383.485,-1175.3752 1387.518,-1179.4081 1387.518,-1183.4411 1387.518,-1183.4411 1387.518,-1191.507 1387.518,-1191.507 1387.518,-1195.5399 1383.485,-1199.5729 1379.4521,-1199.5729"/>
<text text-anchor="middle" x="1350.1519" y="-1184.3233" font-family="Arial" font-size="14.00" fill="#cfffac">app/pill.js</text>
</g>
<!-- app/misc/electricityReadingAdd.js&#45;&gt;app/pill.js -->
<g id="edge12" class="edge">
<title>app/misc/electricityReadingAdd.js&#45;&gt;app/pill.js</title>
<path fill="none" stroke="#757575" d="M1154.0702,-1086.3875C1163.7271,-1090.0439 1172.9639,-1094.6615 1181.2695,-1100.474 1207.0612,-1118.524 1191.565,-1143.3001 1217.2695,-1161.474 1242.0335,-1178.983 1275.5876,-1185.4476 1302.7818,-1187.5528"/>
<polygon fill="#757575" stroke="#757575" points="1302.6689,-1191.0523 1312.8614,-1188.1602 1303.09,-1184.0649 1302.6689,-1191.0523"/>
</g>
<!-- firebaseHelper.js -->
<g id="node14" class="node">
<title>firebaseHelper.js</title>
<path fill="none" stroke="#cfffac" d="M1402.3617,-887.5729C1402.3617,-887.5729 1297.942,-887.5729 1297.942,-887.5729 1293.9091,-887.5729 1289.8761,-883.5399 1289.8761,-879.507 1289.8761,-879.507 1289.8761,-871.4411 1289.8761,-871.4411 1289.8761,-867.4081 1293.9091,-863.3752 1297.942,-863.3752 1297.942,-863.3752 1402.3617,-863.3752 1402.3617,-863.3752 1406.3946,-863.3752 1410.4276,-867.4081 1410.4276,-871.4411 1410.4276,-871.4411 1410.4276,-879.507 1410.4276,-879.507 1410.4276,-883.5399 1406.3946,-887.5729 1402.3617,-887.5729"/>
<text text-anchor="middle" x="1350.1519" y="-872.3233" font-family="Arial" font-size="14.00" fill="#cfffac">firebaseHelper.js</text>
</g>
<!-- app/misc/electricityReadingAdd.js&#45;&gt;firebaseHelper.js -->
<g id="edge14" class="edge">
<title>app/misc/electricityReadingAdd.js&#45;&gt;firebaseHelper.js</title>
<path fill="none" stroke="#757575" d="M1153.9564,-1070.2433C1163.9905,-1066.2676 1173.3344,-1060.8239 1181.2695,-1053.474 1233.7901,-1004.827 1164.9409,-945.3274 1217.2695,-896.474 1233.9252,-880.9245 1257.1846,-874.1766 1279.5956,-871.7803"/>
<polygon fill="#757575" stroke="#757575" points="1280.1145,-875.2502 1289.8061,-870.9695 1279.5604,-868.2722 1280.1145,-875.2502"/>
</g>
<!-- app/misc/electricityReadingItem.js -->
<g id="node15" class="node">
<title>app/misc/electricityReadingItem.js</title>
<path fill="none" stroke="#c6c5fe" d="M1146.8118,-1044.5729C1146.8118,-1044.5729 935.6755,-1044.5729 935.6755,-1044.5729 931.6425,-1044.5729 927.6096,-1040.5399 927.6096,-1036.507 927.6096,-1036.507 927.6096,-1028.4411 927.6096,-1028.4411 927.6096,-1024.4081 931.6425,-1020.3752 935.6755,-1020.3752 935.6755,-1020.3752 1146.8118,-1020.3752 1146.8118,-1020.3752 1150.8448,-1020.3752 1154.8777,-1024.4081 1154.8777,-1028.4411 1154.8777,-1028.4411 1154.8777,-1036.507 1154.8777,-1036.507 1154.8777,-1040.5399 1150.8448,-1044.5729 1146.8118,-1044.5729"/>
<text text-anchor="middle" x="1041.2437" y="-1029.3233" font-family="Arial" font-size="14.00" fill="#c6c5fe">app/misc/electricityReadingItem.js</text>
</g>
<!-- app/misc/electricityReadingItem.js&#45;&gt;theme.js -->
<g id="edge18" class="edge">
<title>app/misc/electricityReadingItem.js&#45;&gt;theme.js</title>
<path fill="none" stroke="#757575" d="M1119.0407,-1044.5246C1248.8998,-1059.8734 1510.1286,-1069.6729 1658.0127,-930.474 1701.4491,-889.5886 1718.9465,-817.9874 1725.2774,-781.7842"/>
<polygon fill="#757575" stroke="#757575" points="1728.7573,-782.1891 1726.8999,-771.7584 1721.8472,-781.0707 1728.7573,-782.1891"/>
</g>
<!-- app/misc/electricityReadingItem.js&#45;&gt;app/outlineButton.js -->
<g id="edge16" class="edge">
<title>app/misc/electricityReadingItem.js&#45;&gt;app/outlineButton.js</title>
<path fill="none" stroke="#757575" d="M1155.105,-1025.5325C1247.9771,-1015.9285 1380.1595,-993.0369 1483.0342,-938.474 1520.2196,-918.7515 1553.9272,-882.4238 1572.7741,-859.6843"/>
<polygon fill="#757575" stroke="#757575" points="1575.6696,-861.6704 1579.2461,-851.6975 1570.231,-857.2634 1575.6696,-861.6704"/>
</g>
<!-- app/misc/electricityReadingItem.js&#45;&gt;firebaseHelper.js -->
<g id="edge17" class="edge">
<title>app/misc/electricityReadingItem.js&#45;&gt;firebaseHelper.js</title>
<path fill="none" stroke="#757575" d="M1155.1618,-1022.5373C1164.6514,-1018.4834 1173.5487,-1013.2327 1181.2695,-1006.474 1219.975,-972.5917 1178.1127,-929.8337 1217.2695,-896.474 1234.4602,-881.8285 1257.6217,-875.2504 1279.7913,-872.7349"/>
<polygon fill="#757575" stroke="#757575" points="1280.2262,-876.2103 1289.8825,-871.8506 1279.6151,-869.237 1280.2262,-876.2103"/>
</g>
<!-- app/misc/electricityReadingsList.js&#45;&gt;app/misc/electricityReadingItem.js -->
<g id="edge19" class="edge">
<title>app/misc/electricityReadingsList.js&#45;&gt;app/misc/electricityReadingItem.js</title>
<path fill="none" stroke="#757575" d="M865.4831,-1032.474C882.4597,-1032.474 900.0169,-1032.474 917.1705,-1032.474"/>
<polygon fill="#757575" stroke="#757575" points="917.2163,-1035.9741 927.2162,-1032.474 917.2162,-1028.9741 917.2163,-1035.9741"/>
</g>
<!-- app/misc/electricityReadingsList.js&#45;&gt;app/screen.js -->
<g id="edge20" class="edge">
<title>app/misc/electricityReadingsList.js&#45;&gt;app/screen.js</title>
<path fill="none" stroke="#757575" d="M754.2104,-1020.3679C768.8352,-970.8691 825.065,-778.9437 865.2178,-619.474 882.9091,-549.2117 848.6467,-510.3344 901.2178,-460.474 992.8439,-373.5723 1062.5962,-455.6468 1181.2695,-412.474 1198.6767,-406.1414 1199.9379,-398.0105 1217.2695,-391.474 1240.4528,-382.7306 1267.0719,-376.7795 1290.3675,-372.8035"/>
<polygon fill="#757575" stroke="#757575" points="1291.1584,-376.2211 1300.4692,-371.1655 1290.0379,-369.3113 1291.1584,-376.2211"/>
</g>
<!-- app/screen.js&#45;&gt;theme.js -->
<g id="edge103" class="edge">
<title>app/screen.js&#45;&gt;theme.js</title>
<path fill="none" stroke="#757575" d="M1398.9974,-353.3969C1466.2741,-339.943 1587.1536,-327.6845 1658.0127,-391.474 1709.7538,-438.053 1724.2264,-664.0126 1727.5802,-736.8186"/>
<polygon fill="#757575" stroke="#757575" points="1724.0976,-737.2984 1728.027,-747.1376 1731.0911,-736.9955 1724.0976,-737.2984"/>
</g>
<!-- app/misc/home.js&#45;&gt;app/card.js -->
<g id="edge21" class="edge">
<title>app/misc/home.js&#45;&gt;app/card.js</title>
<path fill="none" stroke="#757575" d="M782.8336,-1246.5554C835.6421,-1266.3616 940.6045,-1305.7286 999.2021,-1327.706"/>
<polygon fill="#757575" stroke="#757575" points="998.2951,-1331.1039 1008.8873,-1331.3385 1000.7533,-1324.5497 998.2951,-1331.1039"/>
</g>
<!-- app/misc/home.js&#45;&gt;theme.js -->
<g id="edge25" class="edge">
<title>app/misc/home.js&#45;&gt;theme.js</title>
<path fill="none" stroke="#757575" d="M813.3329,-1245.2345C941.783,-1264.936 1242.9277,-1299.0722 1483.0342,-1233.474 1570.0852,-1209.6913 1606.0785,-1204.2733 1658.0127,-1130.474 1698.304,-1073.2194 1720.405,-853.2759 1726.6238,-781.9478"/>
<polygon fill="#757575" stroke="#757575" points="1730.1247,-782.0847 1727.4859,-771.8237 1723.15,-781.4907 1730.1247,-782.0847"/>
</g>
<!-- app/misc/home.js&#45;&gt;app/misc/electricityReadingAdd.js -->
<g id="edge22" class="edge">
<title>app/misc/home.js&#45;&gt;app/misc/electricityReadingAdd.js</title>
<path fill="none" stroke="#757575" d="M813.2488,-1228.6375C830.603,-1225.5298 849.0928,-1220.7685 865.2178,-1213.474 930.3533,-1184.0088 992.5974,-1125.3154 1022.5966,-1094.4713"/>
<polygon fill="#757575" stroke="#757575" points="1025.4514,-1096.551 1029.8455,-1086.9103 1020.3985,-1091.7066 1025.4514,-1096.551"/>
</g>
<!-- app/misc/home.js&#45;&gt;firebaseHelper.js -->
<g id="edge24" class="edge">
<title>app/misc/home.js&#45;&gt;firebaseHelper.js</title>
<path fill="none" stroke="#757575" d="M813.2061,-1236.2066C832.1852,-1233.5649 851.5924,-1227.1659 865.2178,-1213.474 929.5431,-1148.8343 840.2139,-1079.2573 901.2178,-1011.474 987.8941,-915.1654 1068.775,-994.7634 1181.2695,-930.474 1200.3772,-919.5542 1197.518,-906.1809 1217.2695,-896.474 1236.4543,-887.0456 1258.9059,-881.6747 1279.8363,-878.665"/>
<polygon fill="#757575" stroke="#757575" points="1280.4927,-882.1097 1289.9681,-877.3699 1279.605,-875.1662 1280.4927,-882.1097"/>
</g>
<!-- app/misc/home.js&#45;&gt;app/screen.js -->
<g id="edge23" class="edge">
<title>app/misc/home.js&#45;&gt;app/screen.js</title>
<path fill="none" stroke="#757575" d="M813.0616,-1237.346C832.4975,-1234.8831 852.2178,-1228.3034 865.2178,-1213.474 918.0198,-1153.2416 847.5513,-552.9375 901.2178,-493.474 985.5875,-399.9907 1076.4676,-520.2876 1181.2695,-450.474 1206.8347,-433.4439 1192.0577,-409.023 1217.2695,-391.474 1238.3719,-376.7855 1265.6987,-369.9022 1290.0792,-366.8358"/>
<polygon fill="#757575" stroke="#757575" points="1290.7483,-370.2844 1300.3208,-365.7438 1290.0061,-363.3239 1290.7483,-370.2844"/>
</g>
<!-- app/misc/reducers/index.js -->
<g id="node21" class="node">
<title>app/misc/reducers/index.js</title>
<path fill="none" stroke="#c6c5fe" d="M1123.9153,-1397.5729C1123.9153,-1397.5729 958.572,-1397.5729 958.572,-1397.5729 954.5391,-1397.5729 950.5062,-1393.5399 950.5062,-1389.507 950.5062,-1389.507 950.5062,-1381.4411 950.5062,-1381.4411 950.5062,-1377.4081 954.5391,-1373.3752 958.572,-1373.3752 958.572,-1373.3752 1123.9153,-1373.3752 1123.9153,-1373.3752 1127.9482,-1373.3752 1131.9811,-1377.4081 1131.9811,-1381.4411 1131.9811,-1381.4411 1131.9811,-1389.507 1131.9811,-1389.507 1131.9811,-1393.5399 1127.9482,-1397.5729 1123.9153,-1397.5729"/>
<text text-anchor="middle" x="1041.2437" y="-1382.3233" font-family="Arial" font-size="14.00" fill="#c6c5fe">app/misc/reducers/index.js</text>
</g>
<!-- app/misc/store.js&#45;&gt;app/misc/reducers/index.js -->
<g id="edge30" class="edge">
<title>app/misc/store.js&#45;&gt;app/misc/reducers/index.js</title>
<path fill="none" stroke="#757575" d="M811.1917,-1384.6824C848.4614,-1384.8107 897.1632,-1384.9783 940.1561,-1385.1262"/>
<polygon fill="#757575" stroke="#757575" points="940.3652,-1388.6268 950.3772,-1385.1614 940.3893,-1381.6269 940.3652,-1388.6268"/>
</g>
<!-- app/misc/reducers/electricityReadings.js -->
<g id="node20" class="node">
<title>app/misc/reducers/electricityReadings.js</title>
<path fill="none" stroke="#cfffac" d="M1474.8507,-1397.5729C1474.8507,-1397.5729 1225.453,-1397.5729 1225.453,-1397.5729 1221.42,-1397.5729 1217.3871,-1393.5399 1217.3871,-1389.507 1217.3871,-1389.507 1217.3871,-1381.4411 1217.3871,-1381.4411 1217.3871,-1377.4081 1221.42,-1373.3752 1225.453,-1373.3752 1225.453,-1373.3752 1474.8507,-1373.3752 1474.8507,-1373.3752 1478.8837,-1373.3752 1482.9166,-1377.4081 1482.9166,-1381.4411 1482.9166,-1381.4411 1482.9166,-1389.507 1482.9166,-1389.507 1482.9166,-1393.5399 1478.8837,-1397.5729 1474.8507,-1397.5729"/>
<text text-anchor="middle" x="1350.1519" y="-1382.3233" font-family="Arial" font-size="14.00" fill="#cfffac">app/misc/reducers/electricityReadings.js</text>
</g>
<!-- app/misc/reducers/index.js&#45;&gt;app/misc/reducers/electricityReadings.js -->
<g id="edge29" class="edge">
<title>app/misc/reducers/index.js&#45;&gt;app/misc/reducers/electricityReadings.js</title>
<path fill="none" stroke="#757575" d="M1132.2555,-1385.474C1155.744,-1385.474 1181.6017,-1385.474 1207.0465,-1385.474"/>
<polygon fill="#757575" stroke="#757575" points="1207.151,-1388.9741 1217.151,-1385.474 1207.1509,-1381.9741 1207.151,-1388.9741"/>
</g>
<!-- app/money/accountDetails.js&#45;&gt;theme.js -->
<g id="edge37" class="edge">
<title>app/money/accountDetails.js&#45;&gt;theme.js</title>
<path fill="none" stroke="#757575" d="M576.7939,-655.3852C585.7372,-651.0547 593.8667,-645.2469 600.0254,-637.474 673.3367,-544.9481 562.7772,-200.05 636.0254,-107.474 751.1925,38.0818 855.6367,-6.474 1041.2437,-6.474 1041.2437,-6.474 1041.2437,-6.474 1350.1519,-6.474 1508.6499,-6.474 1570.8829,-54.073 1658.0127,-186.474 1688.8829,-233.3839 1719.6996,-637.3052 1726.8976,-737.2018"/>
<polygon fill="#757575" stroke="#757575" points="1723.4195,-737.634 1727.6232,-747.3592 1730.4017,-737.1351 1723.4195,-737.634"/>
</g>
<!-- app/money/accountDetails.js&#45;&gt;app/pill.js -->
<g id="edge34" class="edge">
<title>app/money/accountDetails.js&#45;&gt;app/pill.js</title>
<path fill="none" stroke="#757575" d="M507.2638,-679.5789C521.8436,-717.0455 567.0882,-834.5414 600.0254,-933.474 617.6141,-986.3047 594.6226,-1016.2417 636.0254,-1053.474 661.2113,-1076.123 1146.9593,-1155.1136 1302.6037,-1179.9437"/>
<polygon fill="#757575" stroke="#757575" points="1302.3738,-1183.4512 1312.8,-1181.5682 1303.4752,-1176.5383 1302.3738,-1183.4512"/>
</g>
<!-- app/money/accountDetails.js&#45;&gt;firebaseHelper.js -->
<g id="edge36" class="edge">
<title>app/money/accountDetails.js&#45;&gt;firebaseHelper.js</title>
<path fill="none" stroke="#757575" d="M528.4526,-679.6459C591.022,-708.4864 755.9049,-781.2708 901.2178,-817.474 919.3434,-821.9899 1158.2357,-851.7978 1279.9273,-866.8329"/>
<polygon fill="#757575" stroke="#757575" points="1279.5515,-870.313 1289.9051,-868.065 1280.4095,-863.3657 1279.5515,-870.313"/>
</g>
<!-- app/money/accountDetails.js&#45;&gt;app/screen.js -->
<g id="edge35" class="edge">
<title>app/money/accountDetails.js&#45;&gt;app/screen.js</title>
<path fill="none" stroke="#757575" d="M575.3016,-655.4064C584.6963,-651.0903 593.3508,-645.281 600.0254,-637.474 673.2598,-551.8156 551.9615,-461.5334 636.0254,-386.474 684.2057,-343.4546 1126.7823,-356.5396 1290.0334,-362.9091"/>
<polygon fill="#757575" stroke="#757575" points="1290.2448,-366.4201 1300.3754,-363.3182 1290.5216,-359.4256 1290.2448,-366.4201"/>
</g>
<!-- app/money/accountEntry.js -->
<g id="node23" class="node">
<title>app/money/accountEntry.js</title>
<path fill="none" stroke="#c6c5fe" d="M834.3849,-568.5729C834.3849,-568.5729 666.8583,-568.5729 666.8583,-568.5729 662.8253,-568.5729 658.7924,-564.5399 658.7924,-560.507 658.7924,-560.507 658.7924,-552.4411 658.7924,-552.4411 658.7924,-548.4081 662.8253,-544.3752 666.8583,-544.3752 666.8583,-544.3752 834.3849,-544.3752 834.3849,-544.3752 838.4178,-544.3752 842.4508,-548.4081 842.4508,-552.4411 842.4508,-552.4411 842.4508,-560.507 842.4508,-560.507 842.4508,-564.5399 838.4178,-568.5729 834.3849,-568.5729"/>
<text text-anchor="middle" x="750.6216" y="-553.3233" font-family="Arial" font-size="14.00" fill="#c6c5fe">app/money/accountEntry.js</text>
</g>
<!-- app/money/accountDetails.js&#45;&gt;app/money/accountEntry.js -->
<g id="edge31" class="edge">
<title>app/money/accountDetails.js&#45;&gt;app/money/accountEntry.js</title>
<path fill="none" stroke="#757575" d="M565.9254,-655.3536C578.0521,-651.0683 590.0572,-645.2817 600.0254,-637.474 624.5078,-618.298 610.4612,-595.1823 636.0254,-577.474 640.1224,-574.636 644.4924,-572.1498 649.0448,-569.974"/>
<polygon fill="#757575" stroke="#757575" points="650.767,-573.046 658.6167,-565.9303 648.0429,-566.5978 650.767,-573.046"/>
</g>
<!-- app/money/accountEntryForm.js -->
<g id="node24" class="node">
<title>app/money/accountEntryForm.js</title>
<path fill="none" stroke="#c6c5fe" d="M1141.7085,-644.5729C1141.7085,-644.5729 940.7788,-644.5729 940.7788,-644.5729 936.7458,-644.5729 932.7129,-640.5399 932.7129,-636.507 932.7129,-636.507 932.7129,-628.4411 932.7129,-628.4411 932.7129,-624.4081 936.7458,-620.3752 940.7788,-620.3752 940.7788,-620.3752 1141.7085,-620.3752 1141.7085,-620.3752 1145.7415,-620.3752 1149.7744,-624.4081 1149.7744,-628.4411 1149.7744,-628.4411 1149.7744,-636.507 1149.7744,-636.507 1149.7744,-640.5399 1145.7415,-644.5729 1141.7085,-644.5729"/>
<text text-anchor="middle" x="1041.2437" y="-629.3233" font-family="Arial" font-size="14.00" fill="#c6c5fe">app/money/accountEntryForm.js</text>
</g>
<!-- app/money/accountDetails.js&#45;&gt;app/money/accountEntryForm.js -->
<g id="edge32" class="edge">
<title>app/money/accountDetails.js&#45;&gt;app/money/accountEntryForm.js</title>
<path fill="none" stroke="#757575" d="M600.0892,-661.1358C690.5777,-655.2568 825.4627,-646.4933 922.2436,-640.2054"/>
<polygon fill="#757575" stroke="#757575" points="922.6198,-643.6885 932.3719,-639.5474 922.1659,-636.7032 922.6198,-643.6885"/>
</g>
<!-- app/moneyDisplay.js -->
<g id="node25" class="node">
<title>app/moneyDisplay.js</title>
<path fill="none" stroke="#c6c5fe" d="M1414.2188,-693.5729C1414.2188,-693.5729 1286.0849,-693.5729 1286.0849,-693.5729 1282.0519,-693.5729 1278.019,-689.5399 1278.019,-685.507 1278.019,-685.507 1278.019,-677.4411 1278.019,-677.4411 1278.019,-673.4081 1282.0519,-669.3752 1286.0849,-669.3752 1286.0849,-669.3752 1414.2188,-669.3752 1414.2188,-669.3752 1418.2518,-669.3752 1422.2847,-673.4081 1422.2847,-677.4411 1422.2847,-677.4411 1422.2847,-685.507 1422.2847,-685.507 1422.2847,-689.5399 1418.2518,-693.5729 1414.2188,-693.5729"/>
<text text-anchor="middle" x="1350.1519" y="-678.3233" font-family="Arial" font-size="14.00" fill="#c6c5fe">app/moneyDisplay.js</text>
</g>
<!-- app/money/accountDetails.js&#45;&gt;app/moneyDisplay.js -->
<g id="edge33" class="edge">
<title>app/money/accountDetails.js&#45;&gt;app/moneyDisplay.js</title>
<path fill="none" stroke="#757575" d="M600.3289,-676.2633C680.9765,-683.0489 798.4153,-691.8685 901.2178,-695.474 1025.6087,-699.8367 1056.9085,-700.6198 1181.2695,-695.474 1209.5441,-694.3041 1240.4133,-692.0369 1267.9356,-689.6621"/>
<polygon fill="#757575" stroke="#757575" points="1268.2583,-693.1473 1277.913,-688.7841 1267.6447,-686.1743 1268.2583,-693.1473"/>
</g>
<!-- app/money/accountEntry.js&#45;&gt;theme.js -->
<g id="edge41" class="edge">
<title>app/money/accountEntry.js&#45;&gt;theme.js</title>
<path fill="none" stroke="#757575" d="M752.4916,-544.408C760.3861,-498.0568 795.6002,-330.5832 901.2178,-261.474 1041.9765,-169.3708 1532.2002,-133.8172 1658.0127,-245.474 1695.478,-278.724 1721.0323,-642.3158 1727.0856,-737.0258"/>
<polygon fill="#757575" stroke="#757575" points="1723.6048,-737.4424 1727.7267,-747.2026 1730.591,-737.0023 1723.6048,-737.4424"/>
</g>
<!-- app/money/accountEntry.js&#45;&gt;app/dateInput.js -->
<g id="edge38" class="edge">
<title>app/money/accountEntry.js&#45;&gt;app/dateInput.js</title>
<path fill="none" stroke="#757575" d="M842.7357,-562.4299C952.3067,-567.7406 1127.2065,-570.0747 1181.2695,-535.474 1210.4033,-516.8282 1189.1847,-486.6653 1217.2695,-466.474 1235.9349,-453.0548 1259.8903,-446.8501 1282.3089,-444.2959"/>
<polygon fill="#757575" stroke="#757575" points="1282.8369,-447.7623 1292.4767,-443.3664 1282.1996,-440.7913 1282.8369,-447.7623"/>
</g>
<!-- app/money/accountEntry.js&#45;&gt;app/money/accountEntryForm.js -->
<g id="edge39" class="edge">
<title>app/money/accountEntry.js&#45;&gt;app/money/accountEntryForm.js</title>
<path fill="none" stroke="#757575" d="M840.7862,-568.5449C849.2215,-570.9922 857.4949,-573.9351 865.2178,-577.474 883.8958,-586.0329 882.5498,-597.8932 901.2178,-606.474 910.936,-610.9411 921.3681,-614.6408 931.9953,-617.7051"/>
<polygon fill="#757575" stroke="#757575" points="931.2288,-621.1233 941.7949,-620.3443 933.0492,-614.3641 931.2288,-621.1233"/>
</g>
<!-- app/moneyInput.js -->
<g id="node26" class="node">
<title>app/moneyInput.js</title>
<path fill="none" stroke="#c6c5fe" d="M1407.4928,-499.5729C1407.4928,-499.5729 1292.8109,-499.5729 1292.8109,-499.5729 1288.7779,-499.5729 1284.745,-495.5399 1284.745,-491.507 1284.745,-491.507 1284.745,-483.4411 1284.745,-483.4411 1284.745,-479.4081 1288.7779,-475.3752 1292.8109,-475.3752 1292.8109,-475.3752 1407.4928,-475.3752 1407.4928,-475.3752 1411.5258,-475.3752 1415.5587,-479.4081 1415.5587,-483.4411 1415.5587,-483.4411 1415.5587,-491.507 1415.5587,-491.507 1415.5587,-495.5399 1411.5258,-499.5729 1407.4928,-499.5729"/>
<text text-anchor="middle" x="1350.1519" y="-484.3233" font-family="Arial" font-size="14.00" fill="#c6c5fe">app/moneyInput.js</text>
</g>
<!-- app/money/accountEntry.js&#45;&gt;app/moneyInput.js -->
<g id="edge40" class="edge">
<title>app/money/accountEntry.js&#45;&gt;app/moneyInput.js</title>
<path fill="none" stroke="#757575" d="M834.4628,-568.5465C942.5661,-582.4643 1123.5347,-599.6869 1181.2695,-568.474 1206.9695,-554.58 1193.0296,-529.7823 1217.2695,-513.474 1234.1214,-502.1363 1254.735,-495.49 1274.6513,-491.6599"/>
<polygon fill="#757575" stroke="#757575" points="1275.3961,-495.0835 1284.6646,-489.9507 1274.2183,-488.1833 1275.3961,-495.0835"/>
</g>
<!-- app/money/accountEntryForm.js&#45;&gt;theme.js -->
<g id="edge47" class="edge">
<title>app/money/accountEntryForm.js&#45;&gt;theme.js</title>
<path fill="none" stroke="#757575" d="M1078.1743,-620.3406C1113.4526,-609.3963 1168.3437,-594.041 1217.2695,-587.474 1411.4268,-561.4136 1495.888,-472.5114 1658.0127,-582.474 1709.9425,-617.6959 1723.5979,-697.9234 1727.1879,-737.1058"/>
<polygon fill="#757575" stroke="#757575" points="1723.7088,-737.5124 1727.9706,-747.2123 1730.6879,-736.9719 1723.7088,-737.5124"/>
</g>
<!-- app/money/accountEntryForm.js&#45;&gt;app/dateInput.js -->
<g id="edge42" class="edge">
<title>app/money/accountEntryForm.js&#45;&gt;app/dateInput.js</title>
<path fill="none" stroke="#757575" d="M1090.8803,-620.4095C1120.7001,-610.8369 1157.371,-594.611 1181.2695,-568.474 1213.7098,-532.9953 1180.3191,-497.2275 1217.2695,-466.474 1235.253,-451.5066 1259.5098,-445.0374 1282.3765,-442.7074"/>
<polygon fill="#757575" stroke="#757575" points="1282.7118,-446.192 1292.4119,-441.9308 1282.1717,-439.2129 1282.7118,-446.192"/>
</g>
<!-- app/money/accountEntryForm.js&#45;&gt;app/outlineButton.js -->
<g id="edge44" class="edge">
<title>app/money/accountEntryForm.js&#45;&gt;app/outlineButton.js</title>
<path fill="none" stroke="#757575" d="M1149.9494,-625.6336C1263.9539,-620.8036 1433.3508,-621.0056 1483.0342,-660.474 1526.6331,-695.109 1488.5587,-733.8726 1519.0342,-780.474 1529.6504,-796.7077 1546.029,-810.9207 1560.2192,-821.327"/>
<polygon fill="#757575" stroke="#757575" points="1558.509,-824.4034 1568.7006,-827.2985 1562.5388,-818.6797 1558.509,-824.4034"/>
</g>
<!-- app/money/accountEntryForm.js&#45;&gt;app/sharedStyles.js -->
<g id="edge45" class="edge">
<title>app/money/accountEntryForm.js&#45;&gt;app/sharedStyles.js</title>
<path fill="none" stroke="#757575" d="M1082.8339,-620.3873C1164.3663,-599.1052 1348.9304,-562.9782 1483.0342,-627.474 1530.9834,-650.5347 1563.9402,-707.176 1579.0804,-738.2403"/>
<polygon fill="#757575" stroke="#757575" points="1575.9429,-739.7932 1583.3665,-747.3524 1582.2772,-736.8137 1575.9429,-739.7932"/>
</g>
<!-- app/money/accountEntryForm.js&#45;&gt;firebaseHelper.js -->
<g id="edge46" class="edge">
<title>app/money/accountEntryForm.js&#45;&gt;firebaseHelper.js</title>
<path fill="none" stroke="#757575" d="M1149.7873,-639.8883C1160.8653,-643.21 1171.5884,-647.6311 1181.2695,-653.474 1204.4059,-667.4376 1201.0379,-680.8683 1217.2695,-702.474 1259.0633,-758.1052 1309.3112,-822.9921 1334.3518,-855.1955"/>
<polygon fill="#757575" stroke="#757575" points="1331.8147,-857.6343 1340.7181,-863.377 1337.3392,-853.3354 1331.8147,-857.6343"/>
</g>
<!-- app/money/accountEntryForm.js&#45;&gt;app/moneyInput.js -->
<g id="edge43" class="edge">
<title>app/money/accountEntryForm.js&#45;&gt;app/moneyInput.js</title>
<path fill="none" stroke="#757575" d="M1149.9055,-624.0109C1161.2819,-619.8193 1172.0401,-614.1307 1181.2695,-606.474 1215.3814,-578.1751 1183.2944,-541.9369 1217.2695,-513.474 1233.2971,-500.0469 1254.2284,-492.8114 1274.7211,-489.086"/>
<polygon fill="#757575" stroke="#757575" points="1275.3808,-492.5256 1284.7226,-487.5274 1274.3029,-485.609 1275.3808,-492.5256"/>
</g>
<!-- app/moneyDisplay.js&#45;&gt;theme.js -->
<g id="edge99" class="edge">
<title>app/moneyDisplay.js&#45;&gt;theme.js</title>
<path fill="none" stroke="#757575" d="M1422.3614,-675.7519C1486.4122,-673.2878 1581.418,-676.129 1658.0127,-705.474 1677.5578,-712.9622 1696.1944,-727.7034 1709.3854,-739.8944"/>
<polygon fill="#757575" stroke="#757575" points="1707.2177,-742.6652 1716.8545,-747.0678 1712.0665,-737.6165 1707.2177,-742.6652"/>
</g>
<!-- utils/money.js -->
<g id="node38" class="node">
<title>utils/money.js</title>
<path fill="none" stroke="#cfffac" d="M1630.2254,-615.5729C1630.2254,-615.5729 1546.8215,-615.5729 1546.8215,-615.5729 1542.7885,-615.5729 1538.7556,-611.5399 1538.7556,-607.507 1538.7556,-607.507 1538.7556,-599.4411 1538.7556,-599.4411 1538.7556,-595.4081 1542.7885,-591.3752 1546.8215,-591.3752 1546.8215,-591.3752 1630.2254,-591.3752 1630.2254,-591.3752 1634.2583,-591.3752 1638.2913,-595.4081 1638.2913,-599.4411 1638.2913,-599.4411 1638.2913,-607.507 1638.2913,-607.507 1638.2913,-611.5399 1634.2583,-615.5729 1630.2254,-615.5729"/>
<text text-anchor="middle" x="1588.5234" y="-600.3233" font-family="Arial" font-size="14.00" fill="#cfffac">utils/money.js</text>
</g>
<!-- app/moneyDisplay.js&#45;&gt;utils/money.js -->
<g id="edge100" class="edge">
<title>app/moneyDisplay.js&#45;&gt;utils/money.js</title>
<path fill="none" stroke="#757575" d="M1387.1359,-669.3721C1428.8019,-655.7381 1496.6003,-633.5531 1541.8706,-618.7398"/>
<polygon fill="#757575" stroke="#757575" points="1543.037,-622.0408 1551.4527,-615.6043 1540.86,-615.3879 1543.037,-622.0408"/>
</g>
<!-- app/moneyInput.js&#45;&gt;theme.js -->
<g id="edge101" class="edge">
<title>app/moneyInput.js&#45;&gt;theme.js</title>
<path fill="none" stroke="#757575" d="M1403.0649,-475.4214C1470.2701,-463.441 1586.1236,-454.3758 1658.0127,-513.474 1693.0884,-542.3089 1717.0707,-681.9459 1725.3113,-737.0479"/>
<polygon fill="#757575" stroke="#757575" points="1721.8809,-737.7793 1726.7888,-747.1688 1728.8074,-736.7681 1721.8809,-737.7793"/>
</g>
<!-- app/moneyInput.js&#45;&gt;utils/money.js -->
<g id="edge102" class="edge">
<title>app/moneyInput.js&#45;&gt;utils/money.js</title>
<path fill="none" stroke="#757575" d="M1375.6597,-499.6742C1402.436,-512.5011 1445.7437,-533.3034 1483.0342,-551.474 1507.0694,-563.1857 1534.1163,-576.5214 1554.8054,-586.7555"/>
<polygon fill="#757575" stroke="#757575" points="1553.3152,-589.9231 1563.8301,-591.2224 1556.4205,-583.6496 1553.3152,-589.9231"/>
</g>
<!-- app/money/accounts.js&#45;&gt;app/screen.js -->
<g id="edge50" class="edge">
<title>app/money/accounts.js&#45;&gt;app/screen.js</title>
<path fill="none" stroke="#757575" d="M504.1752,-604.1753C510.82,-559.9346 540.1234,-408.3466 636.0254,-348.474 744.1303,-280.9831 1138.947,-332.8187 1290.4273,-355.8818"/>
<polygon fill="#757575" stroke="#757575" points="1290.0619,-359.3666 1300.4771,-357.4242 1291.1238,-352.4476 1290.0619,-359.3666"/>
</g>
<!-- app/money/category.js -->
<g id="node28" class="node">
<title>app/money/category.js</title>
<path fill="none" stroke="#c6c5fe" d="M820.3712,-610.5729C820.3712,-610.5729 680.8719,-610.5729 680.8719,-610.5729 676.839,-610.5729 672.806,-606.5399 672.806,-602.507 672.806,-602.507 672.806,-594.4411 672.806,-594.4411 672.806,-590.4081 676.839,-586.3752 680.8719,-586.3752 680.8719,-586.3752 820.3712,-586.3752 820.3712,-586.3752 824.4042,-586.3752 828.4371,-590.4081 828.4371,-594.4411 828.4371,-594.4411 828.4371,-602.507 828.4371,-602.507 828.4371,-606.5399 824.4042,-610.5729 820.3712,-610.5729"/>
<text text-anchor="middle" x="750.6216" y="-595.3233" font-family="Arial" font-size="14.00" fill="#c6c5fe">app/money/category.js</text>
</g>
<!-- app/money/accounts.js&#45;&gt;app/money/category.js -->
<g id="edge48" class="edge">
<title>app/money/accounts.js&#45;&gt;app/money/category.js</title>
<path fill="none" stroke="#757575" d="M582.3952,-610.6796C607.9053,-608.8288 636.2831,-606.7698 662.3549,-604.8782"/>
<polygon fill="#757575" stroke="#757575" points="662.883,-608.3492 672.6035,-604.1346 662.3764,-601.3675 662.883,-608.3492"/>
</g>
<!-- app/money/lineItem.js -->
<g id="node29" class="node">
<title>app/money/lineItem.js</title>
<path fill="none" stroke="#c6c5fe" d="M1109.3566,-686.5729C1109.3566,-686.5729 973.1307,-686.5729 973.1307,-686.5729 969.0978,-686.5729 965.0648,-682.5399 965.0648,-678.507 965.0648,-678.507 965.0648,-670.4411 965.0648,-670.4411 965.0648,-666.4081 969.0978,-662.3752 973.1307,-662.3752 973.1307,-662.3752 1109.3566,-662.3752 1109.3566,-662.3752 1113.3895,-662.3752 1117.4225,-666.4081 1117.4225,-670.4411 1117.4225,-670.4411 1117.4225,-678.507 1117.4225,-678.507 1117.4225,-682.5399 1113.3895,-686.5729 1109.3566,-686.5729"/>
<text text-anchor="middle" x="1041.2437" y="-671.3233" font-family="Arial" font-size="14.00" fill="#c6c5fe">app/money/lineItem.js</text>
</g>
<!-- app/money/accounts.js&#45;&gt;app/money/lineItem.js -->
<g id="edge49" class="edge">
<title>app/money/accounts.js&#45;&gt;app/money/lineItem.js</title>
<path fill="none" stroke="#757575" d="M582.3112,-625.0633C682.0864,-635.8056 852.2534,-654.1265 954.974,-665.1859"/>
<polygon fill="#757575" stroke="#757575" points="954.689,-668.6753 965.0062,-666.266 955.4383,-661.7155 954.689,-668.6753"/>
</g>
<!-- app/money/category.js&#45;&gt;app/money/lineItem.js -->
<g id="edge51" class="edge">
<title>app/money/category.js&#45;&gt;app/money/lineItem.js</title>
<path fill="none" stroke="#757575" d="M826.5684,-610.5711C839.8138,-614.1107 853.1891,-618.6544 865.2178,-624.474 883.7126,-633.422 882.4036,-645.2186 901.2178,-653.474 917.9316,-660.8079 936.7295,-665.6541 954.9965,-668.8387"/>
<polygon fill="#757575" stroke="#757575" points="954.6477,-672.3272 965.0735,-670.4423 955.7479,-665.4142 954.6477,-672.3272"/>
</g>
<!-- app/money/lineItem.js&#45;&gt;app/moneyDisplay.js -->
<g id="edge70" class="edge">
<title>app/money/lineItem.js&#45;&gt;app/moneyDisplay.js</title>
<path fill="none" stroke="#757575" d="M1117.603,-676.2044C1163.2108,-677.2379 1221.1468,-678.5507 1267.7811,-679.6075"/>
<polygon fill="#757575" stroke="#757575" points="1267.7778,-683.1082 1277.8546,-679.8357 1267.9365,-676.11 1267.7778,-683.1082"/>
</g>
<!-- app/money/financeOverview.js -->
<g id="node30" class="node">
<title>app/money/financeOverview.js</title>
<path fill="none" stroke="#c6c5fe" d="M1136.0528,-888.5729C1136.0528,-888.5729 946.4345,-888.5729 946.4345,-888.5729 942.4016,-888.5729 938.3686,-884.5399 938.3686,-880.507 938.3686,-880.507 938.3686,-872.4411 938.3686,-872.4411 938.3686,-868.4081 942.4016,-864.3752 946.4345,-864.3752 946.4345,-864.3752 1136.0528,-864.3752 1136.0528,-864.3752 1140.0857,-864.3752 1144.1187,-868.4081 1144.1187,-872.4411 1144.1187,-872.4411 1144.1187,-880.507 1144.1187,-880.507 1144.1187,-884.5399 1140.0857,-888.5729 1136.0528,-888.5729"/>
<text text-anchor="middle" x="1041.2437" y="-873.3233" font-family="Arial" font-size="14.00" fill="#c6c5fe">app/money/financeOverview.js</text>
</g>
<!-- app/money/financeOverview.js&#45;&gt;theme.js -->
<g id="edge54" class="edge">
<title>app/money/financeOverview.js&#45;&gt;theme.js</title>
<path fill="none" stroke="#757575" d="M1066.7501,-888.5583C1100.3503,-903.7453 1161.6993,-928.9736 1217.2695,-938.474 1333.6979,-958.379 1365.6615,-951.7189 1483.0342,-938.474 1562.3054,-929.5287 1595.1485,-947.5866 1658.0127,-898.474 1696.1554,-868.6751 1715.3957,-812.6394 1723.525,-781.5918"/>
<polygon fill="#757575" stroke="#757575" points="1726.9593,-782.2826 1725.9497,-771.736 1720.162,-780.6103 1726.9593,-782.2826"/>
</g>
<!-- app/money/financeOverview.js&#45;&gt;firebaseHelper.js -->
<g id="edge53" class="edge">
<title>app/money/financeOverview.js&#45;&gt;firebaseHelper.js</title>
<path fill="none" stroke="#757575" d="M1144.5351,-876.1397C1188.906,-875.996 1239.6277,-875.8318 1279.5918,-875.7024"/>
<polygon fill="#757575" stroke="#757575" points="1279.7839,-879.2019 1289.7725,-875.6695 1279.7612,-872.202 1279.7839,-879.2019"/>
</g>
<!-- app/money/financeOverview.js&#45;&gt;app/moneyDisplay.js -->
<g id="edge52" class="edge">
<title>app/money/financeOverview.js&#45;&gt;app/moneyDisplay.js</title>
<path fill="none" stroke="#757575" d="M1077.3789,-864.4143C1106.4675,-853.9718 1147.8632,-837.4247 1181.2695,-817.474 1239.7168,-782.5685 1299.8629,-729.1127 1330.142,-700.7328"/>
<polygon fill="#757575" stroke="#757575" points="1332.6591,-703.1697 1337.5213,-693.7564 1327.8501,-698.083 1332.6591,-703.1697"/>
</g>
<!-- app/money/home.js&#45;&gt;app/card.js -->
<g id="edge55" class="edge">
<title>app/money/home.js&#45;&gt;app/card.js</title>
<path fill="none" stroke="#757575" d="M512.3886,-966.712C532.3522,-992.1773 577.5726,-1053.4233 600.0254,-1112.474 632.9022,-1198.9399 567.1247,-1255.7494 636.0254,-1317.474 686.6229,-1362.8018 890.7025,-1354.6163 988.4915,-1347.8012"/>
<polygon fill="#757575" stroke="#757575" points="989.0217,-1351.2722 998.7451,-1347.0643 988.5199,-1344.2902 989.0217,-1351.2722"/>
</g>
<!-- app/money/home.js&#45;&gt;theme.js -->
<g id="edge62" class="edge">
<title>app/money/home.js&#45;&gt;theme.js</title>
<path fill="none" stroke="#757575" d="M512.0369,-966.8531C531.3521,-992.5786 575.4389,-1054.2794 600.0254,-1112.474 625.5316,-1172.8457 586.798,-1212.2077 636.0254,-1255.474 704.1355,-1315.3366 950.5656,-1303.474 1041.2437,-1303.474 1041.2437,-1303.474 1041.2437,-1303.474 1350.1519,-1303.474 1495.9048,-1303.474 1568.1953,-1305.264 1658.0127,-1190.474 1708.6681,-1125.7345 1724.0586,-861.4512 1727.5821,-782.1038"/>
<polygon fill="#757575" stroke="#757575" points="1731.0928,-781.9235 1728.0186,-771.7845 1724.099,-781.6276 1731.0928,-781.9235"/>
</g>
<!-- app/money/home.js&#45;&gt;app/pill.js -->
<g id="edge59" class="edge">
<title>app/money/home.js&#45;&gt;app/pill.js</title>
<path fill="none" stroke="#757575" d="M507.5196,-966.5316C521.8284,-999.3844 566.5028,-1090.5474 636.0254,-1128.474 694.2827,-1160.2551 1151.5568,-1180.0461 1302.2039,-1185.7552"/>
<polygon fill="#757575" stroke="#757575" points="1302.3867,-1189.2644 1312.5109,-1186.1419 1302.6492,-1182.2693 1302.3867,-1189.2644"/>
</g>
<!-- app/money/home.js&#45;&gt;firebaseHelper.js -->
<g id="edge61" class="edge">
<title>app/money/home.js&#45;&gt;firebaseHelper.js</title>
<path fill="none" stroke="#757575" d="M571.7846,-946.8682C592.4414,-944.6922 615.1407,-942.3924 636.0254,-940.474 878.0895,-918.2395 939.5028,-922.7381 1181.2695,-897.474 1213.635,-894.0919 1249.3857,-889.5516 1279.629,-885.4741"/>
<polygon fill="#757575" stroke="#757575" points="1280.2235,-888.9256 1289.6614,-884.1114 1279.2813,-881.9893 1280.2235,-888.9256"/>
</g>
<!-- app/money/home.js&#45;&gt;app/screen.js -->
<g id="edge60" class="edge">
<title>app/money/home.js&#45;&gt;app/screen.js</title>
<path fill="none" stroke="#757575" d="M507.6388,-942.1886C523.0977,-904.6775 570.1594,-788.12 600.0254,-688.474 620.0815,-621.558 591.8936,-589.6255 636.0254,-535.474 718.1041,-434.7602 775.9767,-447.0408 901.2178,-412.474 972.954,-392.6747 1185.3466,-376.3842 1290.2062,-369.2939"/>
<polygon fill="#757575" stroke="#757575" points="1290.5712,-372.7774 1300.3147,-368.6164 1290.103,-365.793 1290.5712,-372.7774"/>
</g>
<!-- app/money/home.js&#45;&gt;app/money/financeOverview.js -->
<g id="edge56" class="edge">
<title>app/money/home.js&#45;&gt;app/money/financeOverview.js</title>
<path fill="none" stroke="#757575" d="M526.9128,-942.3401C553.1458,-929.9192 596.4414,-911.2329 636.0254,-902.474 732.9894,-881.0186 845.9446,-875.3033 927.9289,-874.5019"/>
<polygon fill="#757575" stroke="#757575" points="928.0487,-878.0012 938.0223,-874.4265 927.9964,-871.0014 928.0487,-878.0012"/>
</g>
<!-- app/money/spendTracking.js -->
<g id="node32" class="node">
<title>app/money/spendTracking.js</title>
<path fill="none" stroke="#c6c5fe" d="M1439.5523,-929.5729C1439.5523,-929.5729 1260.7514,-929.5729 1260.7514,-929.5729 1256.7184,-929.5729 1252.6855,-925.5399 1252.6855,-921.507 1252.6855,-921.507 1252.6855,-913.4411 1252.6855,-913.4411 1252.6855,-909.4081 1256.7184,-905.3752 1260.7514,-905.3752 1260.7514,-905.3752 1439.5523,-905.3752 1439.5523,-905.3752 1443.5853,-905.3752 1447.6182,-909.4081 1447.6182,-913.4411 1447.6182,-913.4411 1447.6182,-921.507 1447.6182,-921.507 1447.6182,-925.5399 1443.5853,-929.5729 1439.5523,-929.5729"/>
<text text-anchor="middle" x="1350.1519" y="-914.3233" font-family="Arial" font-size="14.00" fill="#c6c5fe">app/money/spendTracking.js</text>
</g>
<!-- app/money/home.js&#45;&gt;app/money/spendTracking.js -->
<g id="edge57" class="edge">
<title>app/money/home.js&#45;&gt;app/money/spendTracking.js</title>
<path fill="none" stroke="#757575" d="M571.9498,-952.9697C694.8533,-950.0942 958.7702,-942.966 1181.2695,-930.474 1201.1119,-929.36 1222.2475,-927.9282 1242.6107,-926.424"/>
<polygon fill="#757575" stroke="#757575" points="1243.1451,-929.8938 1252.8557,-925.6565 1242.6221,-922.9134 1243.1451,-929.8938"/>
</g>
<!-- app/money/transactionAdd.js -->
<g id="node33" class="node">
<title>app/money/transactionAdd.js</title>
<path fill="none" stroke="#c6c5fe" d="M840.607,-1204.5729C840.607,-1204.5729 660.6362,-1204.5729 660.6362,-1204.5729 656.6032,-1204.5729 652.5703,-1200.5399 652.5703,-1196.507 652.5703,-1196.507 652.5703,-1188.4411 652.5703,-1188.4411 652.5703,-1184.4081 656.6032,-1180.3752 660.6362,-1180.3752 660.6362,-1180.3752 840.607,-1180.3752 840.607,-1180.3752 844.6399,-1180.3752 848.6729,-1184.4081 848.6729,-1188.4411 848.6729,-1188.4411 848.6729,-1196.507 848.6729,-1196.507 848.6729,-1200.5399 844.6399,-1204.5729 840.607,-1204.5729"/>
<text text-anchor="middle" x="750.6216" y="-1189.3233" font-family="Arial" font-size="14.00" fill="#c6c5fe">app/money/transactionAdd.js</text>
</g>
<!-- app/money/home.js&#45;&gt;app/money/transactionAdd.js -->
<g id="edge58" class="edge">
<title>app/money/home.js&#45;&gt;app/money/transactionAdd.js</title>
<path fill="none" stroke="#757575" d="M509.9748,-966.5675C537.3571,-1011.029 631.1773,-1163.0423 636.0254,-1166.474 641.5633,-1170.394 647.5964,-1173.7343 653.9025,-1176.5793"/>
<polygon fill="#757575" stroke="#757575" points="652.7294,-1179.8805 663.3113,-1180.4031 655.3649,-1173.3956 652.7294,-1179.8805"/>
</g>
<!-- app/money/spendTracking.js&#45;&gt;theme.js -->
<g id="edge83" class="edge">
<title>app/money/spendTracking.js&#45;&gt;theme.js</title>
<path fill="none" stroke="#757575" d="M1447.5564,-918.5228C1512.0211,-914.8726 1595.8169,-901.4279 1658.0127,-860.474 1687.566,-841.0142 1708.3549,-804.5004 1719.3593,-781.1177"/>
<polygon fill="#757575" stroke="#757575" points="1722.6864,-782.2531 1723.5986,-771.6976 1716.303,-779.3804 1722.6864,-782.2531"/>
</g>
<!-- app/money/spendTracking.js&#45;&gt;utils/money.js -->
<g id="edge84" class="edge">
<title>app/money/spendTracking.js&#45;&gt;utils/money.js</title>
<path fill="none" stroke="#757575" d="M1447.5668,-915.9238C1460.6948,-911.9681 1473.0532,-905.805 1483.0342,-896.474 1535.6456,-847.2886 1494.3587,-806.137 1519.0342,-738.474 1534.4777,-696.1262 1560.2945,-650.1178 1575.7359,-624.234"/>
<polygon fill="#757575" stroke="#757575" points="1578.7447,-626.0222 1580.917,-615.6525 1572.7522,-622.4042 1578.7447,-626.0222"/>
</g>
<!-- app/money/transactionAdd.js&#45;&gt;theme.js -->
<g id="edge87" class="edge">
<title>app/money/transactionAdd.js&#45;&gt;theme.js</title>
<path fill="none" stroke="#757575" d="M848.8726,-1204.0721C1021.3328,-1222.875 1370.8672,-1253.604 1483.0342,-1208.474 1583.0522,-1168.2322 1603.9112,-1133.7266 1658.0127,-1040.474 1708.3552,-953.7006 1723.0205,-831.5577 1727.0427,-781.8399"/>
<polygon fill="#757575" stroke="#757575" points="1730.5535,-781.8219 1727.8007,-771.591 1723.5726,-781.3055 1730.5535,-781.8219"/>
</g>
<!-- app/money/transactionForm.js -->
<g id="node43" class="node">
<title>app/money/transactionForm.js</title>
<path fill="none" stroke="#c6c5fe" d="M1135.4807,-808.5729C1135.4807,-808.5729 947.0066,-808.5729 947.0066,-808.5729 942.9736,-808.5729 938.9407,-804.5399 938.9407,-800.507 938.9407,-800.507 938.9407,-792.4411 938.9407,-792.4411 938.9407,-788.4081 942.9736,-784.3752 947.0066,-784.3752 947.0066,-784.3752 1135.4807,-784.3752 1135.4807,-784.3752 1139.5137,-784.3752 1143.5466,-788.4081 1143.5466,-792.4411 1143.5466,-792.4411 1143.5466,-800.507 1143.5466,-800.507 1143.5466,-804.5399 1139.5137,-808.5729 1135.4807,-808.5729"/>
<text text-anchor="middle" x="1041.2437" y="-793.3233" font-family="Arial" font-size="14.00" fill="#c6c5fe">app/money/transactionForm.js</text>
</g>
<!-- app/money/transactionAdd.js&#45;&gt;app/money/transactionForm.js -->
<g id="edge86" class="edge">
<title>app/money/transactionAdd.js&#45;&gt;app/money/transactionForm.js</title>
<path fill="none" stroke="#757575" d="M764.5551,-1180.2684C789.1907,-1157.8324 840.1944,-1107.3723 865.2178,-1053.474 902.8821,-972.3482 845.2598,-925.2502 901.2178,-855.474 918.2669,-834.2148 944.3574,-820.5058 969.4162,-811.7152"/>
<polygon fill="#757575" stroke="#757575" points="970.5419,-815.0294 978.9487,-808.5814 968.3558,-808.3795 970.5419,-815.0294"/>
</g>
<!-- app/money/monthTransactions.js&#45;&gt;theme.js -->
<g id="edge73" class="edge">
<title>app/money/monthTransactions.js&#45;&gt;theme.js</title>
<path fill="none" stroke="#757575" d="M1124.5265,-270.4208C1274.2849,-250.7491 1580.6676,-220.269 1658.0127,-287.474 1692.574,-317.5043 1719.9794,-647.5809 1726.819,-737.158"/>
<polygon fill="#757575" stroke="#757575" points="1723.3408,-737.5809 1727.5826,-747.2895 1730.321,-737.0547 1723.3408,-737.5809"/>
</g>
<!-- app/money/monthTransactions.js&#45;&gt;utils/date.js -->
<g id="edge74" class="edge">
<title>app/money/monthTransactions.js&#45;&gt;utils/date.js</title>
<path fill="none" stroke="#757575" d="M1151.9939,-287.7355C1268.5653,-293.2736 1447.1453,-301.7575 1535.3891,-305.9497"/>
<polygon fill="#757575" stroke="#757575" points="1535.2817,-309.4485 1545.4366,-306.4271 1535.614,-302.4564 1535.2817,-309.4485"/>
</g>
<!-- app/money/monthTransactions.js&#45;&gt;firebaseHelper.js -->
<g id="edge72" class="edge">
<title>app/money/monthTransactions.js&#45;&gt;firebaseHelper.js</title>
<path fill="none" stroke="#757575" d="M1052.1293,-294.7379C1078.8967,-325.6267 1148.1495,-410.1258 1181.2695,-493.474 1216.0769,-581.0685 1179.4576,-616.134 1217.2695,-702.474 1244.7441,-765.2096 1299.7118,-825.6402 1329.6199,-855.7167"/>
<polygon fill="#757575" stroke="#757575" points="1327.434,-858.4781 1337,-863.0326 1332.3621,-853.5068 1327.434,-858.4781"/>
</g>
<!-- app/money/monthTransactions.js&#45;&gt;app/screen.js -->
<g id="edge71" class="edge">
<title>app/money/monthTransactions.js&#45;&gt;app/screen.js</title>
<path fill="none" stroke="#757575" d="M1142.3505,-294.6086C1155.7965,-298.1212 1169.1195,-302.6461 1181.2695,-308.474 1200.3073,-317.6058 1198.2759,-330.2507 1217.2695,-339.474 1239.8428,-350.4357 1266.6962,-356.7765 1290.3351,-360.444"/>
<polygon fill="#757575" stroke="#757575" points="1289.8534,-363.9107 1300.2474,-361.8579 1290.8419,-356.9808 1289.8534,-363.9107"/>
</g>
<!-- app/money/monthTransactions.js&#45;&gt;utils/money.js -->
<g id="edge75" class="edge">
<title>app/money/monthTransactions.js&#45;&gt;utils/money.js</title>
<path fill="none" stroke="#757575" d="M1110.5364,-294.5427C1142.9155,-300.0145 1182.0174,-306.3836 1217.2695,-311.474 1276.171,-319.9795 1435.7937,-308.2792 1483.0342,-344.474 1560.5901,-403.896 1581.3997,-529.9365 1586.7539,-581.1443"/>
<polygon fill="#757575" stroke="#757575" points="1583.2742,-581.5253 1587.6992,-591.1518 1590.2432,-580.867 1583.2742,-581.5253"/>
</g>
<!-- app/money/monthlyAnalytics.js&#45;&gt;theme.js -->
<g id="edge78" class="edge">
<title>app/money/monthlyAnalytics.js&#45;&gt;theme.js</title>
<path fill="none" stroke="#757575" d="M1145.6082,-749.9731C1242.3857,-746.0384 1390.408,-740.6271 1519.0342,-738.474 1580.7938,-737.4402 1596.8912,-729.5588 1658.0127,-738.474 1667.0056,-739.7857 1676.4464,-741.9923 1685.3903,-744.4946"/>
<polygon fill="#757575" stroke="#757575" points="1684.6441,-747.9239 1695.2266,-747.4133 1686.6355,-741.2131 1684.6441,-747.9239"/>
</g>
<!-- app/money/monthlyAnalytics.js&#45;&gt;firebaseHelper.js -->
<g id="edge77" class="edge">
<title>app/money/monthlyAnalytics.js&#45;&gt;firebaseHelper.js</title>
<path fill="none" stroke="#757575" d="M1145.5833,-765.5427C1157.7867,-768.1767 1169.9209,-771.4374 1181.2695,-775.474 1237.0251,-795.3059 1294.8563,-834.2531 1326.2863,-857.2524"/>
<polygon fill="#757575" stroke="#757575" points="1324.3096,-860.1439 1334.4274,-863.2874 1328.4782,-854.5205 1324.3096,-860.1439"/>
</g>
<!-- app/money/monthlyAnalytics.js&#45;&gt;app/screen.js -->
<g id="edge76" class="edge">
<title>app/money/monthlyAnalytics.js&#45;&gt;app/screen.js</title>
<path fill="none" stroke="#757575" d="M1105.4926,-742.329C1132.996,-733.8172 1162.9408,-719.4823 1181.2695,-695.474 1254.9988,-598.8984 1144.4649,-521.7486 1217.2695,-424.474 1234.916,-400.8966 1264.0784,-386.5552 1290.5946,-377.9284"/>
<polygon fill="#757575" stroke="#757575" points="1291.6687,-381.2602 1300.2178,-375.0022 1289.6321,-374.5629 1291.6687,-381.2602"/>
</g>
<!-- app/money/monthlyAnalytics.js&#45;&gt;utils/money.js -->
<g id="edge79" class="edge">
<title>app/money/monthlyAnalytics.js&#45;&gt;utils/money.js</title>
<path fill="none" stroke="#757575" d="M1080.3174,-742.4177C1109.5339,-732.3861 1149.7102,-716.379 1181.2695,-695.474 1199.8736,-683.1507 1197.292,-670.4175 1217.2695,-660.474 1318.0471,-610.3141 1451.7292,-601.8839 1528.1115,-601.7129"/>
<polygon fill="#757575" stroke="#757575" points="1528.4906,-605.2138 1538.4998,-601.7401 1528.509,-598.2139 1528.4906,-605.2138"/>
</g>
<!-- app/money/reducers/index.js -->
<g id="node40" class="node">
<title>app/money/reducers/index.js</title>
<path fill="none" stroke="#c6c5fe" d="M840.041,-140.5729C840.041,-140.5729 661.2021,-140.5729 661.2021,-140.5729 657.1692,-140.5729 653.1362,-136.5399 653.1362,-132.507 653.1362,-132.507 653.1362,-124.4411 653.1362,-124.4411 653.1362,-120.4081 657.1692,-116.3752 661.2021,-116.3752 661.2021,-116.3752 840.041,-116.3752 840.041,-116.3752 844.074,-116.3752 848.1069,-120.4081 848.1069,-124.4411 848.1069,-124.4411 848.1069,-132.507 848.1069,-132.507 848.1069,-136.5399 844.074,-140.5729 840.041,-140.5729"/>
<text text-anchor="middle" x="750.6216" y="-125.3233" font-family="Arial" font-size="14.00" fill="#c6c5fe">app/money/reducers/index.js</text>
</g>
<!-- app/money/store.js&#45;&gt;app/money/reducers/index.js -->
<g id="edge85" class="edge">
<title>app/money/store.js&#45;&gt;app/money/reducers/index.js</title>
<path fill="none" stroke="#757575" d="M539.9427,-196.4106C583.5418,-182.3514 655.661,-159.0955 703.1632,-143.7777"/>
<polygon fill="#757575" stroke="#757575" points="704.4637,-147.0359 712.9069,-140.6357 702.3153,-140.3737 704.4637,-147.0359"/>
</g>
<!-- app/money/transactionDetails.js&#45;&gt;theme.js -->
<g id="edge92" class="edge">
<title>app/money/transactionDetails.js&#45;&gt;theme.js</title>
<path fill="none" stroke="#757575" d="M1148.4651,-503.0236C1160.1626,-498.9311 1171.3901,-493.5426 1181.2695,-486.474 1207.1835,-467.9329 1189.6549,-440.3719 1217.2695,-424.474 1302.1728,-375.5947 1583.539,-370.8233 1658.0127,-434.474 1704.376,-474.0995 1722.2005,-669.6842 1727.0133,-736.8113"/>
<polygon fill="#757575" stroke="#757575" points="1723.544,-737.3799 1727.7209,-747.1166 1730.5275,-736.9003 1723.544,-737.3799"/>
</g>
<!-- app/money/transactionDetails.js&#45;&gt;app/dateInput.js -->
<g id="edge88" class="edge">
<title>app/money/transactionDetails.js&#45;&gt;app/dateInput.js</title>
<path fill="none" stroke="#757575" d="M1132.9665,-502.4203C1149.3441,-498.8729 1166.0319,-494.3153 1181.2695,-488.474 1198.7782,-481.7621 1199.6723,-472.9503 1217.2695,-466.474 1237.8001,-458.9182 1261.0961,-454.0802 1282.3854,-450.9827"/>
<polygon fill="#757575" stroke="#757575" points="1282.8895,-454.4465 1292.3303,-449.6381 1281.9515,-447.5096 1282.8895,-454.4465"/>
</g>
<!-- app/money/transactionDetails.js&#45;&gt;firebaseHelper.js -->
<g id="edge91" class="edge">
<title>app/money/transactionDetails.js&#45;&gt;firebaseHelper.js</title>
<path fill="none" stroke="#757575" d="M1067.4528,-526.6271C1098.5231,-542.2406 1150.0168,-572.0941 1181.2695,-611.474 1208.3075,-645.5431 1195.8149,-664.6395 1217.2695,-702.474 1251.3959,-762.6548 1304.4813,-825.0386 1332.0915,-855.8378"/>
<polygon fill="#757575" stroke="#757575" points="1329.5483,-858.2438 1338.8513,-863.3138 1334.7405,-853.549 1329.5483,-858.2438"/>
</g>
<!-- app/money/transactionDetails.js&#45;&gt;app/screen.js -->
<g id="edge90" class="edge">
<title>app/money/transactionDetails.js&#45;&gt;app/screen.js</title>
<path fill="none" stroke="#757575" d="M1148.603,-506.6511C1160.4818,-502.3925 1171.7154,-496.5133 1181.2695,-488.474 1216.455,-458.8675 1182.227,-421.2497 1217.2695,-391.474 1237.2651,-374.4838 1265.0864,-367.3668 1290.1077,-364.7432"/>
<polygon fill="#757575" stroke="#757575" points="1290.5863,-368.2156 1300.2626,-363.9006 1290.0074,-361.2396 1290.5863,-368.2156"/>
</g>
<!-- app/money/transactionDetails.js&#45;&gt;app/moneyInput.js -->
<g id="edge89" class="edge">
<title>app/money/transactionDetails.js&#45;&gt;app/moneyInput.js</title>
<path fill="none" stroke="#757575" d="M1148.8511,-505.0686C1190.2323,-501.4517 1236.569,-497.4017 1274.3449,-494.0999"/>
<polygon fill="#757575" stroke="#757575" points="1275.1041,-497.547 1284.7614,-493.1895 1274.4946,-490.5736 1275.1041,-497.547"/>
</g>
<!-- app/money/reducers/accounts.js -->
<g id="node39" class="node">
<title>app/money/reducers/accounts.js</title>
<path fill="none" stroke="#cfffac" d="M1141.729,-100.5729C1141.729,-100.5729 940.7583,-100.5729 940.7583,-100.5729 936.7254,-100.5729 932.6924,-96.5399 932.6924,-92.507 932.6924,-92.507 932.6924,-84.4411 932.6924,-84.4411 932.6924,-80.4081 936.7254,-76.3752 940.7583,-76.3752 940.7583,-76.3752 1141.729,-76.3752 1141.729,-76.3752 1145.762,-76.3752 1149.7949,-80.4081 1149.7949,-84.4411 1149.7949,-84.4411 1149.7949,-92.507 1149.7949,-92.507 1149.7949,-96.5399 1145.762,-100.5729 1141.729,-100.5729"/>
<text text-anchor="middle" x="1041.2437" y="-85.3233" font-family="Arial" font-size="14.00" fill="#cfffac">app/money/reducers/accounts.js</text>
</g>
<!-- app/money/reducers/index.js&#45;&gt;app/money/reducers/accounts.js -->
<g id="edge80" class="edge">
<title>app/money/reducers/index.js&#45;&gt;app/money/reducers/accounts.js</title>
<path fill="none" stroke="#757575" d="M838.2119,-116.4185C871.4493,-111.8438 909.4976,-106.607 943.6052,-101.9126"/>
<polygon fill="#757575" stroke="#757575" points="944.1527,-105.3703 953.5821,-100.5394 943.1982,-98.4357 944.1527,-105.3703"/>
</g>
<!-- app/money/reducers/monthTransactions.js -->
<g id="node41" class="node">
<title>app/money/reducers/monthTransactions.js</title>
<path fill="none" stroke="#cfffac" d="M1173.2295,-58.5729C1173.2295,-58.5729 909.2578,-58.5729 909.2578,-58.5729 905.2248,-58.5729 901.1919,-54.5399 901.1919,-50.507 901.1919,-50.507 901.1919,-42.4411 901.1919,-42.4411 901.1919,-38.4081 905.2248,-34.3752 909.2578,-34.3752 909.2578,-34.3752 1173.2295,-34.3752 1173.2295,-34.3752 1177.2625,-34.3752 1181.2954,-38.4081 1181.2954,-42.4411 1181.2954,-42.4411 1181.2954,-50.507 1181.2954,-50.507 1181.2954,-54.5399 1177.2625,-58.5729 1173.2295,-58.5729"/>
<text text-anchor="middle" x="1041.2437" y="-43.3233" font-family="Arial" font-size="14.00" fill="#cfffac">app/money/reducers/monthTransactions.js</text>
</g>
<!-- app/money/reducers/index.js&#45;&gt;app/money/reducers/monthTransactions.js -->
<g id="edge81" class="edge">
<title>app/money/reducers/index.js&#45;&gt;app/money/reducers/monthTransactions.js</title>
<path fill="none" stroke="#757575" d="M775.3061,-116.3595C804.6327,-102.4695 855.3688,-80.0083 901.2178,-67.474 910.9211,-64.8213 921.1002,-62.4801 931.3551,-60.4185"/>
<polygon fill="#757575" stroke="#757575" points="932.0378,-63.8515 941.1973,-58.5267 930.7164,-56.9773 932.0378,-63.8515"/>
</g>
<!-- app/money/reducers/monthlyAnalytics.js -->
<g id="node42" class="node">
<title>app/money/reducers/monthlyAnalytics.js</title>
<path fill="none" stroke="#cfffac" d="M1166.2357,-142.5729C1166.2357,-142.5729 916.2516,-142.5729 916.2516,-142.5729 912.2186,-142.5729 908.1857,-138.5399 908.1857,-134.507 908.1857,-134.507 908.1857,-126.4411 908.1857,-126.4411 908.1857,-122.4081 912.2186,-118.3752 916.2516,-118.3752 916.2516,-118.3752 1166.2357,-118.3752 1166.2357,-118.3752 1170.2687,-118.3752 1174.3016,-122.4081 1174.3016,-126.4411 1174.3016,-126.4411 1174.3016,-134.507 1174.3016,-134.507 1174.3016,-138.5399 1170.2687,-142.5729 1166.2357,-142.5729"/>
<text text-anchor="middle" x="1041.2437" y="-127.3233" font-family="Arial" font-size="14.00" fill="#cfffac">app/money/reducers/monthlyAnalytics.js</text>
</g>
<!-- app/money/reducers/index.js&#45;&gt;app/money/reducers/monthlyAnalytics.js -->
<g id="edge82" class="edge">
<title>app/money/reducers/index.js&#45;&gt;app/money/reducers/monthlyAnalytics.js</title>
<path fill="none" stroke="#757575" d="M848.203,-129.1456C864.112,-129.255 880.8796,-129.3704 897.6174,-129.4856"/>
<polygon fill="#757575" stroke="#757575" points="898.0034,-132.9883 908.0273,-129.5573 898.0516,-125.9884 898.0034,-132.9883"/>
</g>
<!-- app/money/transactionForm.js&#45;&gt;theme.js -->
<g id="edge98" class="edge">
<title>app/money/transactionForm.js&#45;&gt;theme.js</title>
<path fill="none" stroke="#757575" d="M1143.4943,-802.001C1266.459,-806.7699 1478.7105,-809.0064 1658.0127,-780.474 1666.8047,-779.075 1676.0359,-776.8793 1684.8144,-774.4251"/>
<polygon fill="#757575" stroke="#757575" points="1685.8842,-777.7587 1694.4857,-771.5729 1683.9041,-771.0446 1685.8842,-777.7587"/>
</g>
<!-- app/money/transactionForm.js&#45;&gt;app/dateInput.js -->
<g id="edge93" class="edge">
<title>app/money/transactionForm.js&#45;&gt;app/dateInput.js</title>
<path fill="none" stroke="#757575" d="M1143.4103,-797.1371C1157.6534,-792.9705 1170.9277,-786.1616 1181.2695,-775.474 1277.4152,-676.1138 1121.5158,-566.212 1217.2695,-466.474 1233.8998,-449.1518 1258.6051,-442.356 1282.217,-440.4256"/>
<polygon fill="#757575" stroke="#757575" points="1282.4479,-443.9183 1292.2427,-439.8796 1282.0672,-436.9286 1282.4479,-443.9183"/>
</g>
<!-- app/money/transactionForm.js&#45;&gt;app/outlineButton.js -->
<g id="edge95" class="edge">
<title>app/money/transactionForm.js&#45;&gt;app/outlineButton.js</title>
<path fill="none" stroke="#757575" d="M1143.6173,-805.3672C1167.7668,-807.4181 1193.4231,-809.5588 1217.2695,-811.474 1317.5717,-819.5298 1433.1748,-828.1425 1508.3771,-833.6556"/>
<polygon fill="#757575" stroke="#757575" points="1508.4855,-837.1728 1518.7145,-834.4126 1508.9968,-830.1915 1508.4855,-837.1728"/>
</g>
<!-- app/money/transactionForm.js&#45;&gt;app/sharedStyles.js -->
<g id="edge96" class="edge">
<title>app/money/transactionForm.js&#45;&gt;app/sharedStyles.js</title>
<path fill="none" stroke="#757575" d="M1143.6199,-788.754C1167.7693,-786.9771 1193.4249,-785.1252 1217.2695,-783.474 1317.8867,-776.5065 1433.8898,-769.1092 1509.0713,-764.399"/>
<polygon fill="#757575" stroke="#757575" points="1509.641,-767.8703 1519.4029,-763.7525 1509.2038,-760.8839 1509.641,-767.8703"/>
</g>
<!-- app/money/transactionForm.js&#45;&gt;firebaseHelper.js -->
<g id="edge97" class="edge">
<title>app/money/transactionForm.js&#45;&gt;firebaseHelper.js</title>
<path fill="none" stroke="#757575" d="M1138.6535,-808.5529C1153.2726,-812.0705 1167.9112,-816.6117 1181.2695,-822.474 1199.5836,-830.5112 1198.9944,-841.3488 1217.2695,-849.474 1236.7441,-858.1326 1259.0916,-863.9193 1279.8344,-867.7823"/>
<polygon fill="#757575" stroke="#757575" points="1279.4168,-871.2621 1289.8688,-869.5282 1280.6168,-864.3657 1279.4168,-871.2621"/>
</g>
<!-- app/money/transactionForm.js&#45;&gt;app/moneyInput.js -->
<g id="edge94" class="edge">
<title>app/money/transactionForm.js&#45;&gt;app/moneyInput.js</title>
<path fill="none" stroke="#757575" d="M1143.5286,-794.8616C1157.3298,-790.8968 1170.4399,-784.7474 1181.2695,-775.474 1221.9499,-740.6394 1192.5768,-707.9989 1217.2695,-660.474 1249.0066,-599.3912 1302.6619,-537.8378 1331.1137,-507.2731"/>
<polygon fill="#757575" stroke="#757575" points="1333.8002,-509.5254 1338.1038,-499.844 1328.7021,-504.7286 1333.8002,-509.5254"/>
</g>
<!-- index.js -->
<g id="node44" class="node">
<title>index.js</title>
<path fill="none" stroke="#c6c5fe" d="M55.639,-640.5729C55.639,-640.5729 7.8298,-640.5729 7.8298,-640.5729 3.7968,-640.5729 -.2361,-636.5399 -.2361,-632.507 -.2361,-632.507 -.2361,-624.4411 -.2361,-624.4411 -.2361,-620.4081 3.7968,-616.3752 7.8298,-616.3752 7.8298,-616.3752 55.639,-616.3752 55.639,-616.3752 59.6719,-616.3752 63.7049,-620.4081 63.7049,-624.4411 63.7049,-624.4411 63.7049,-632.507 63.7049,-632.507 63.7049,-636.5399 59.6719,-640.5729 55.639,-640.5729"/>
<text text-anchor="middle" x="31.7344" y="-625.3233" font-family="Arial" font-size="14.00" fill="#c6c5fe">index.js</text>
</g>
<!-- index.js&#45;&gt;app/index.js -->
<g id="edge106" class="edge">
<title>index.js&#45;&gt;app/index.js</title>
<path fill="none" stroke="#757575" d="M63.538,-628.474C71.5207,-628.474 80.323,-628.474 89.099,-628.474"/>
<polygon fill="#757575" stroke="#757575" points="89.3385,-631.9741 99.3385,-628.474 89.3384,-624.9741 89.3385,-631.9741"/>
</g>
</g>
</svg>
