<?xml version="1.0" encoding="UTF-8" standalone="no"?>
<!DOCTYPE svg PUBLIC "-//W3C//DTD SVG 1.1//EN"
 "http://www.w3.org/Graphics/SVG/1.1/DTD/svg11.dtd">
<!-- Generated by graphviz version 2.40.1 (20161225.0304)
 -->
<!-- Title: G Pages: 1 -->
<svg width="1837pt" height="1547pt"
 viewBox="0.00 0.00 1836.98 1547.25" xmlns="http://www.w3.org/2000/svg" xmlns:xlink="http://www.w3.org/1999/xlink">
<g id="graph0" class="graph" transform="scale(1 1) rotate(0) translate(21.6 1525.6493)">
<title>G</title>
<polygon fill="#111111" stroke="transparent" points="-21.6,21.6 -21.6,-1525.6493 1815.3803,-1525.6493 1815.3803,21.6 -21.6,21.6"/>
<!-- app/card.js -->
<g id="node1" class="node">
<title>app/card.js</title>
<path fill="none" stroke="#c6c5fe" d="M1075.6616,-1010.1482C1075.6616,-1010.1482 1006.8257,-1010.1482 1006.8257,-1010.1482 1002.7928,-1010.1482 998.7598,-1006.1152 998.7598,-1002.0823 998.7598,-1002.0823 998.7598,-994.0164 998.7598,-994.0164 998.7598,-989.9834 1002.7928,-985.9505 1006.8257,-985.9505 1006.8257,-985.9505 1075.6616,-985.9505 1075.6616,-985.9505 1079.6945,-985.9505 1083.7275,-989.9834 1083.7275,-994.0164 1083.7275,-994.0164 1083.7275,-1002.0823 1083.7275,-1002.0823 1083.7275,-1006.1152 1079.6945,-1010.1482 1075.6616,-1010.1482"/>
<text text-anchor="middle" x="1041.2437" y="-994.8986" font-family="Arial" font-size="14.00" fill="#c6c5fe">app/card.js</text>
</g>
<!-- theme.js -->
<g id="node2" class="node">
<title>theme.js</title>
<path fill="none" stroke="#cfffac" d="M1770.2408,-820.1482C1770.2408,-820.1482 1717.5522,-820.1482 1717.5522,-820.1482 1713.5192,-820.1482 1709.4863,-816.1152 1709.4863,-812.0823 1709.4863,-812.0823 1709.4863,-804.0164 1709.4863,-804.0164 1709.4863,-799.9834 1713.5192,-795.9505 1717.5522,-795.9505 1717.5522,-795.9505 1770.2408,-795.9505 1770.2408,-795.9505 1774.2738,-795.9505 1778.3067,-799.9834 1778.3067,-804.0164 1778.3067,-804.0164 1778.3067,-812.0823 1778.3067,-812.0823 1778.3067,-816.1152 1774.2738,-820.1482 1770.2408,-820.1482"/>
<text text-anchor="middle" x="1743.8965" y="-804.8986" font-family="Arial" font-size="14.00" fill="#cfffac">theme.js</text>
</g>
<!-- app/card.js&#45;&gt;theme.js -->
<g id="edge1" class="edge">
<title>app/card.js&#45;&gt;theme.js</title>
<path fill="none" stroke="#757575" d="M1083.7149,-1001.5638C1113.6923,-1001.8525 1153.3333,-997.5656 1181.2695,-977.0493 1210.7483,-955.4002 1188.1145,-925.1325 1217.2695,-903.0493 1219.6978,-901.21 1572.0149,-838.5504 1698.9611,-816.0187"/>
<polygon fill="#757575" stroke="#757575" points="1699.8858,-819.4094 1709.1203,-814.2159 1698.6626,-812.5171 1699.8858,-819.4094"/>
</g>
<!-- app/dateInput.js -->
<g id="node3" class="node">
<title>app/dateInput.js</title>
<path fill="none" stroke="#c6c5fe" d="M1399.7203,-936.1482C1399.7203,-936.1482 1300.5834,-936.1482 1300.5834,-936.1482 1296.5504,-936.1482 1292.5175,-932.1152 1292.5175,-928.0823 1292.5175,-928.0823 1292.5175,-920.0164 1292.5175,-920.0164 1292.5175,-915.9834 1296.5504,-911.9505 1300.5834,-911.9505 1300.5834,-911.9505 1399.7203,-911.9505 1399.7203,-911.9505 1403.7533,-911.9505 1407.7862,-915.9834 1407.7862,-920.0164 1407.7862,-920.0164 1407.7862,-928.0823 1407.7862,-928.0823 1407.7862,-932.1152 1403.7533,-936.1482 1399.7203,-936.1482"/>
<text text-anchor="middle" x="1350.1519" y="-920.8986" font-family="Arial" font-size="14.00" fill="#c6c5fe">app/dateInput.js</text>
</g>
<!-- app/dateInput.js&#45;&gt;theme.js -->
<g id="edge4" class="edge">
<title>app/dateInput.js&#45;&gt;theme.js</title>
<path fill="none" stroke="#757575" d="M1408.062,-930.9482C1472.4164,-936.0183 1577.8241,-936.4418 1658.0127,-898.0493 1689.887,-882.7886 1716.1015,-850.2687 1730.8697,-828.7867"/>
<polygon fill="#757575" stroke="#757575" points="1733.8638,-830.6049 1736.4813,-820.3384 1728.0329,-826.7318 1733.8638,-830.6049"/>
</g>
<!-- app/outlineButton.js -->
<g id="node4" class="node">
<title>app/outlineButton.js</title>
<path fill="none" stroke="#cfffac" d="M1649.9361,-1088.1482C1649.9361,-1088.1482 1527.1108,-1088.1482 1527.1108,-1088.1482 1523.0779,-1088.1482 1519.0449,-1084.1152 1519.0449,-1080.0823 1519.0449,-1080.0823 1519.0449,-1072.0164 1519.0449,-1072.0164 1519.0449,-1067.9834 1523.0779,-1063.9505 1527.1108,-1063.9505 1527.1108,-1063.9505 1649.9361,-1063.9505 1649.9361,-1063.9505 1653.969,-1063.9505 1658.002,-1067.9834 1658.002,-1072.0164 1658.002,-1072.0164 1658.002,-1080.0823 1658.002,-1080.0823 1658.002,-1084.1152 1653.969,-1088.1482 1649.9361,-1088.1482"/>
<text text-anchor="middle" x="1588.5234" y="-1072.8986" font-family="Arial" font-size="14.00" fill="#cfffac">app/outlineButton.js</text>
</g>
<!-- app/dateInput.js&#45;&gt;app/outlineButton.js -->
<g id="edge2" class="edge">
<title>app/dateInput.js&#45;&gt;app/outlineButton.js</title>
<path fill="none" stroke="#757575" d="M1369.2559,-936.2312C1411.2737,-963.0243 1511.858,-1027.1628 1560.8139,-1058.38"/>
<polygon fill="#757575" stroke="#757575" points="1559.015,-1061.384 1569.3285,-1063.8094 1562.7786,-1055.4818 1559.015,-1061.384"/>
</g>
<!-- app/sharedStyles.js -->
<g id="node5" class="node">
<title>app/sharedStyles.js</title>
<path fill="none" stroke="#c6c5fe" d="M1649.6364,-974.1482C1649.6364,-974.1482 1527.4105,-974.1482 1527.4105,-974.1482 1523.3776,-974.1482 1519.3446,-970.1152 1519.3446,-966.0823 1519.3446,-966.0823 1519.3446,-958.0164 1519.3446,-958.0164 1519.3446,-953.9834 1523.3776,-949.9505 1527.4105,-949.9505 1527.4105,-949.9505 1649.6364,-949.9505 1649.6364,-949.9505 1653.6693,-949.9505 1657.7023,-953.9834 1657.7023,-958.0164 1657.7023,-958.0164 1657.7023,-966.0823 1657.7023,-966.0823 1657.7023,-970.1152 1653.6693,-974.1482 1649.6364,-974.1482"/>
<text text-anchor="middle" x="1588.5234" y="-958.8986" font-family="Arial" font-size="14.00" fill="#c6c5fe">app/sharedStyles.js</text>
</g>
<!-- app/dateInput.js&#45;&gt;app/sharedStyles.js -->
<g id="edge3" class="edge">
<title>app/dateInput.js&#45;&gt;app/sharedStyles.js</title>
<path fill="none" stroke="#757575" d="M1407.855,-933.2481C1438.1982,-938.0852 1475.8627,-944.0895 1508.937,-949.3621"/>
<polygon fill="#757575" stroke="#757575" points="1508.6146,-952.8548 1519.0409,-950.9728 1509.7167,-945.9421 1508.6146,-952.8548"/>
</g>
<!-- utils/index.js -->
<g id="node6" class="node">
<title>utils/index.js</title>
<path fill="none" stroke="#c6c5fe" d="M1626.7128,-310.1482C1626.7128,-310.1482 1550.3341,-310.1482 1550.3341,-310.1482 1546.3011,-310.1482 1542.2682,-306.1152 1542.2682,-302.0823 1542.2682,-302.0823 1542.2682,-294.0164 1542.2682,-294.0164 1542.2682,-289.9834 1546.3011,-285.9505 1550.3341,-285.9505 1550.3341,-285.9505 1626.7128,-285.9505 1626.7128,-285.9505 1630.7457,-285.9505 1634.7787,-289.9834 1634.7787,-294.0164 1634.7787,-294.0164 1634.7787,-302.0823 1634.7787,-302.0823 1634.7787,-306.1152 1630.7457,-310.1482 1626.7128,-310.1482"/>
<text text-anchor="middle" x="1588.5234" y="-294.8986" font-family="Arial" font-size="14.00" fill="#c6c5fe">utils/index.js</text>
</g>
<!-- app/dateInput.js&#45;&gt;utils/index.js -->
<g id="edge5" class="edge">
<title>app/dateInput.js&#45;&gt;utils/index.js</title>
<path fill="none" stroke="#757575" d="M1367.5469,-911.711C1396.3951,-890.2623 1453.8444,-843.1785 1483.0342,-789.0493 1528.3822,-704.9564 1573.3987,-404.9937 1585.4158,-320.4026"/>
<polygon fill="#757575" stroke="#757575" points="1588.9027,-320.7406 1586.8319,-310.3501 1581.9711,-319.7641 1588.9027,-320.7406"/>
</g>
<!-- app/sharedStyles.js&#45;&gt;theme.js -->
<g id="edge105" class="edge">
<title>app/sharedStyles.js&#45;&gt;theme.js</title>
<path fill="none" stroke="#757575" d="M1633.3388,-949.9759C1642.0574,-946.3736 1650.7372,-941.8007 1658.0127,-936.0493 1694.8466,-906.9317 1721.5329,-857.6018 1734.6794,-829.4424"/>
<polygon fill="#757575" stroke="#757575" points="1737.9718,-830.6561 1738.904,-820.1023 1731.5939,-827.7713 1737.9718,-830.6561"/>
</g>
<!-- utils/date.js -->
<g id="node44" class="node">
<title>utils/date.js</title>
<path fill="none" stroke="#cfffac" d="M1778.8648,-331.1482C1778.8648,-331.1482 1708.9282,-331.1482 1708.9282,-331.1482 1704.8952,-331.1482 1700.8623,-327.1152 1700.8623,-323.0823 1700.8623,-323.0823 1700.8623,-315.0164 1700.8623,-315.0164 1700.8623,-310.9834 1704.8952,-306.9505 1708.9282,-306.9505 1708.9282,-306.9505 1778.8648,-306.9505 1778.8648,-306.9505 1782.8977,-306.9505 1786.9307,-310.9834 1786.9307,-315.0164 1786.9307,-315.0164 1786.9307,-323.0823 1786.9307,-323.0823 1786.9307,-327.1152 1782.8977,-331.1482 1778.8648,-331.1482"/>
<text text-anchor="middle" x="1743.8965" y="-315.8986" font-family="Arial" font-size="14.00" fill="#cfffac">utils/date.js</text>
</g>
<!-- utils/index.js&#45;&gt;utils/date.js -->
<g id="edge107" class="edge">
<title>utils/index.js&#45;&gt;utils/date.js</title>
<path fill="none" stroke="#757575" d="M1634.7198,-304.2932C1652.2993,-306.6692 1672.4685,-309.3952 1690.6494,-311.8525"/>
<polygon fill="#757575" stroke="#757575" points="1690.4231,-315.3537 1700.8018,-313.2247 1691.3607,-308.4167 1690.4231,-315.3537"/>
</g>
<!-- utils/money.js -->
<g id="node45" class="node">
<title>utils/money.js</title>
<path fill="none" stroke="#cfffac" d="M1785.5984,-289.1482C1785.5984,-289.1482 1702.1945,-289.1482 1702.1945,-289.1482 1698.1616,-289.1482 1694.1286,-285.1152 1694.1286,-281.0823 1694.1286,-281.0823 1694.1286,-273.0164 1694.1286,-273.0164 1694.1286,-268.9834 1698.1616,-264.9505 1702.1945,-264.9505 1702.1945,-264.9505 1785.5984,-264.9505 1785.5984,-264.9505 1789.6314,-264.9505 1793.6643,-268.9834 1793.6643,-273.0164 1793.6643,-273.0164 1793.6643,-281.0823 1793.6643,-281.0823 1793.6643,-285.1152 1789.6314,-289.1482 1785.5984,-289.1482"/>
<text text-anchor="middle" x="1743.8965" y="-273.8986" font-family="Arial" font-size="14.00" fill="#cfffac">utils/money.js</text>
</g>
<!-- utils/index.js&#45;&gt;utils/money.js -->
<g id="edge108" class="edge">
<title>utils/index.js&#45;&gt;utils/money.js</title>
<path fill="none" stroke="#757575" d="M1634.7198,-291.8055C1650.2021,-289.7129 1667.693,-287.3489 1684.0653,-285.136"/>
<polygon fill="#757575" stroke="#757575" points="1684.6458,-288.5895 1694.0868,-283.7815 1683.7081,-281.6525 1684.6458,-288.5895"/>
</g>
<!-- app/index.js -->
<g id="node7" class="node">
<title>app/index.js</title>
<path fill="none" stroke="#c6c5fe" d="M181.9785,-699.1482C181.9785,-699.1482 107.6758,-699.1482 107.6758,-699.1482 103.6429,-699.1482 99.6099,-695.1152 99.6099,-691.0823 99.6099,-691.0823 99.6099,-683.0164 99.6099,-683.0164 99.6099,-678.9834 103.6429,-674.9505 107.6758,-674.9505 107.6758,-674.9505 181.9785,-674.9505 181.9785,-674.9505 186.0114,-674.9505 190.0444,-678.9834 190.0444,-683.0164 190.0444,-683.0164 190.0444,-691.0823 190.0444,-691.0823 190.0444,-695.1152 186.0114,-699.1482 181.9785,-699.1482"/>
<text text-anchor="middle" x="144.8271" y="-683.8986" font-family="Arial" font-size="14.00" fill="#c6c5fe">app/index.js</text>
</g>
<!-- app/index.js&#45;&gt;theme.js -->
<g id="edge10" class="edge">
<title>app/index.js&#45;&gt;theme.js</title>
<path fill="none" stroke="#757575" d="M147.2806,-699.2326C168.0835,-800.8647 318.6608,-1504.0493 502.5327,-1504.0493 502.5327,-1504.0493 502.5327,-1504.0493 1350.1519,-1504.0493 1501.7767,-1504.0493 1579.1221,-1486.5343 1658.0127,-1357.0493 1713.5455,-1265.9021 1737.2422,-922.1705 1742.6496,-830.5865"/>
<polygon fill="#757575" stroke="#757575" points="1746.1509,-830.6642 1743.2318,-820.4795 1739.1624,-830.2616 1746.1509,-830.6642"/>
</g>
<!-- app/misc/index.js -->
<g id="node8" class="node">
<title>app/misc/index.js</title>
<path fill="none" stroke="#c6c5fe" d="M556.3463,-1091.1482C556.3463,-1091.1482 448.7191,-1091.1482 448.7191,-1091.1482 444.6862,-1091.1482 440.6532,-1087.1152 440.6532,-1083.0823 440.6532,-1083.0823 440.6532,-1075.0164 440.6532,-1075.0164 440.6532,-1070.9834 444.6862,-1066.9505 448.7191,-1066.9505 448.7191,-1066.9505 556.3463,-1066.9505 556.3463,-1066.9505 560.3793,-1066.9505 564.4122,-1070.9834 564.4122,-1075.0164 564.4122,-1075.0164 564.4122,-1083.0823 564.4122,-1083.0823 564.4122,-1087.1152 560.3793,-1091.1482 556.3463,-1091.1482"/>
<text text-anchor="middle" x="502.5327" y="-1075.8986" font-family="Arial" font-size="14.00" fill="#c6c5fe">app/misc/index.js</text>
</g>
<!-- app/index.js&#45;&gt;app/misc/index.js -->
<g id="edge6" class="edge">
<title>app/index.js&#45;&gt;app/misc/index.js</title>
<path fill="none" stroke="#757575" d="M155.9248,-699.2109C207.0309,-755.2167 419.9567,-988.5564 484.1409,-1058.8942"/>
<polygon fill="#757575" stroke="#757575" points="481.884,-1061.6135 491.21,-1066.6411 487.0548,-1056.895 481.884,-1061.6135"/>
</g>
<!-- app/money/index.js -->
<g id="node9" class="node">
<title>app/money/index.js</title>
<path fill="none" stroke="#c6c5fe" d="M357.6744,-582.1482C357.6744,-582.1482 237.5512,-582.1482 237.5512,-582.1482 233.5183,-582.1482 229.4853,-578.1152 229.4853,-574.0823 229.4853,-574.0823 229.4853,-566.0164 229.4853,-566.0164 229.4853,-561.9834 233.5183,-557.9505 237.5512,-557.9505 237.5512,-557.9505 357.6744,-557.9505 357.6744,-557.9505 361.7073,-557.9505 365.7403,-561.9834 365.7403,-566.0164 365.7403,-566.0164 365.7403,-574.0823 365.7403,-574.0823 365.7403,-578.1152 361.7073,-582.1482 357.6744,-582.1482"/>
<text text-anchor="middle" x="297.6128" y="-566.8986" font-family="Arial" font-size="14.00" fill="#c6c5fe">app/money/index.js</text>
</g>
<!-- app/index.js&#45;&gt;app/money/index.js -->
<g id="edge7" class="edge">
<title>app/index.js&#45;&gt;app/money/index.js</title>
<path fill="none" stroke="#757575" d="M160.6024,-674.9689C187.3638,-654.4757 241.8242,-612.7711 273.4285,-588.5691"/>
<polygon fill="#757575" stroke="#757575" points="275.8829,-591.098 281.6944,-582.2393 271.627,-585.5404 275.8829,-591.098"/>
</g>
<!-- app/settings/index.js -->
<g id="node10" class="node">
<title>app/settings/index.js</title>
<path fill="none" stroke="#c6c5fe" d="M360.9015,-699.1482C360.9015,-699.1482 234.3241,-699.1482 234.3241,-699.1482 230.2912,-699.1482 226.2582,-695.1152 226.2582,-691.0823 226.2582,-691.0823 226.2582,-683.0164 226.2582,-683.0164 226.2582,-678.9834 230.2912,-674.9505 234.3241,-674.9505 234.3241,-674.9505 360.9015,-674.9505 360.9015,-674.9505 364.9344,-674.9505 368.9674,-678.9834 368.9674,-683.0164 368.9674,-683.0164 368.9674,-691.0823 368.9674,-691.0823 368.9674,-695.1152 364.9344,-699.1482 360.9015,-699.1482"/>
<text text-anchor="middle" x="297.6128" y="-683.8986" font-family="Arial" font-size="14.00" fill="#c6c5fe">app/settings/index.js</text>
</g>
<!-- app/index.js&#45;&gt;app/settings/index.js -->
<g id="edge8" class="edge">
<title>app/index.js&#45;&gt;app/settings/index.js</title>
<path fill="none" stroke="#757575" d="M190.2542,-687.0493C198.3468,-687.0493 206.9975,-687.0493 215.7444,-687.0493"/>
<polygon fill="#757575" stroke="#757575" points="216.029,-690.5494 226.029,-687.0493 216.029,-683.5494 216.029,-690.5494"/>
</g>
<!-- config.json -->
<g id="node11" class="node">
<title>config.json</title>
<path fill="none" stroke="#cfffac" d="M330.9776,-540.1482C330.9776,-540.1482 264.248,-540.1482 264.248,-540.1482 260.215,-540.1482 256.1821,-536.1152 256.1821,-532.0823 256.1821,-532.0823 256.1821,-524.0164 256.1821,-524.0164 256.1821,-519.9834 260.215,-515.9505 264.248,-515.9505 264.248,-515.9505 330.9776,-515.9505 330.9776,-515.9505 335.0105,-515.9505 339.0435,-519.9834 339.0435,-524.0164 339.0435,-524.0164 339.0435,-532.0823 339.0435,-532.0823 339.0435,-536.1152 335.0105,-540.1482 330.9776,-540.1482"/>
<text text-anchor="middle" x="297.6128" y="-524.8986" font-family="Arial" font-size="14.00" fill="#cfffac">config.json</text>
</g>
<!-- app/index.js&#45;&gt;config.json -->
<g id="edge9" class="edge">
<title>app/index.js&#45;&gt;config.json</title>
<path fill="none" stroke="#757575" d="M148.6387,-674.6315C157.5839,-647.588 182.5313,-583.0711 226.1855,-549.0493 232.1432,-544.4062 239.1029,-540.7886 246.2966,-537.9703"/>
<polygon fill="#757575" stroke="#757575" points="247.8435,-541.1408 256.1793,-534.6013 245.5848,-534.5152 247.8435,-541.1408"/>
</g>
<!-- app/misc/electricityReadingsList.js -->
<g id="node16" class="node">
<title>app/misc/electricityReadingsList.js</title>
<path fill="none" stroke="#c6c5fe" d="M857.2482,-1070.1482C857.2482,-1070.1482 643.995,-1070.1482 643.995,-1070.1482 639.9621,-1070.1482 635.9291,-1066.1152 635.9291,-1062.0823 635.9291,-1062.0823 635.9291,-1054.0164 635.9291,-1054.0164 635.9291,-1049.9834 639.9621,-1045.9505 643.995,-1045.9505 643.995,-1045.9505 857.2482,-1045.9505 857.2482,-1045.9505 861.2811,-1045.9505 865.314,-1049.9834 865.314,-1054.0164 865.314,-1054.0164 865.314,-1062.0823 865.314,-1062.0823 865.314,-1066.1152 861.2811,-1070.1482 857.2482,-1070.1482"/>
<text text-anchor="middle" x="750.6216" y="-1054.8986" font-family="Arial" font-size="14.00" fill="#c6c5fe">app/misc/electricityReadingsList.js</text>
</g>
<!-- app/misc/index.js&#45;&gt;app/misc/electricityReadingsList.js -->
<g id="edge26" class="edge">
<title>app/misc/index.js&#45;&gt;app/misc/electricityReadingsList.js</title>
<path fill="none" stroke="#757575" d="M564.4961,-1073.8043C583.2047,-1072.2207 604.4517,-1070.4222 625.732,-1068.6209"/>
<polygon fill="#757575" stroke="#757575" points="626.1659,-1072.0967 635.8351,-1067.7657 625.5755,-1065.1217 626.1659,-1072.0967"/>
</g>
<!-- app/misc/home.js -->
<g id="node18" class="node">
<title>app/misc/home.js</title>
<path fill="none" stroke="#c6c5fe" d="M804.9864,-1112.1482C804.9864,-1112.1482 696.2568,-1112.1482 696.2568,-1112.1482 692.2238,-1112.1482 688.1909,-1108.1152 688.1909,-1104.0823 688.1909,-1104.0823 688.1909,-1096.0164 688.1909,-1096.0164 688.1909,-1091.9834 692.2238,-1087.9505 696.2568,-1087.9505 696.2568,-1087.9505 804.9864,-1087.9505 804.9864,-1087.9505 809.0193,-1087.9505 813.0523,-1091.9834 813.0523,-1096.0164 813.0523,-1096.0164 813.0523,-1104.0823 813.0523,-1104.0823 813.0523,-1108.1152 809.0193,-1112.1482 804.9864,-1112.1482"/>
<text text-anchor="middle" x="750.6216" y="-1096.8986" font-family="Arial" font-size="14.00" fill="#c6c5fe">app/misc/home.js</text>
</g>
<!-- app/misc/index.js&#45;&gt;app/misc/home.js -->
<g id="edge27" class="edge">
<title>app/misc/index.js&#45;&gt;app/misc/home.js</title>
<path fill="none" stroke="#757575" d="M564.4961,-1084.2943C598.998,-1087.2148 642.1333,-1090.8661 678.1886,-1093.9181"/>
<polygon fill="#757575" stroke="#757575" points="677.8976,-1097.4059 688.1572,-1094.7619 678.4881,-1090.4308 677.8976,-1097.4059"/>
</g>
<!-- app/misc/store.js -->
<g id="node19" class="node">
<title>app/misc/store.js</title>
<path fill="none" stroke="#c6c5fe" d="M803.0899,-1476.1482C803.0899,-1476.1482 698.1533,-1476.1482 698.1533,-1476.1482 694.1203,-1476.1482 690.0874,-1472.1152 690.0874,-1468.0823 690.0874,-1468.0823 690.0874,-1460.0164 690.0874,-1460.0164 690.0874,-1455.9834 694.1203,-1451.9505 698.1533,-1451.9505 698.1533,-1451.9505 803.0899,-1451.9505 803.0899,-1451.9505 807.1228,-1451.9505 811.1558,-1455.9834 811.1558,-1460.0164 811.1558,-1460.0164 811.1558,-1468.0823 811.1558,-1468.0823 811.1558,-1472.1152 807.1228,-1476.1482 803.0899,-1476.1482"/>
<text text-anchor="middle" x="750.6216" y="-1460.8986" font-family="Arial" font-size="14.00" fill="#c6c5fe">app/misc/store.js</text>
</g>
<!-- app/misc/index.js&#45;&gt;app/misc/store.js -->
<g id="edge28" class="edge">
<title>app/misc/index.js&#45;&gt;app/misc/store.js</title>
<path fill="none" stroke="#757575" d="M503.093,-1091.2199C506.1302,-1142.2516 524.9411,-1340.827 636.0254,-1438.0493 648.2934,-1448.7865 664.0692,-1455.3537 679.9672,-1459.3082"/>
<polygon fill="#757575" stroke="#757575" points="679.3375,-1462.7528 689.8515,-1461.4466 680.8178,-1455.9111 679.3375,-1462.7528"/>
</g>
<!-- app/money/accountDetails.js -->
<g id="node22" class="node">
<title>app/money/accountDetails.js</title>
<path fill="none" stroke="#c6c5fe" d="M591.9522,-921.1482C591.9522,-921.1482 413.1133,-921.1482 413.1133,-921.1482 409.0803,-921.1482 405.0474,-917.1152 405.0474,-913.0823 405.0474,-913.0823 405.0474,-905.0164 405.0474,-905.0164 405.0474,-900.9834 409.0803,-896.9505 413.1133,-896.9505 413.1133,-896.9505 591.9522,-896.9505 591.9522,-896.9505 595.9851,-896.9505 600.0181,-900.9834 600.0181,-905.0164 600.0181,-905.0164 600.0181,-913.0823 600.0181,-913.0823 600.0181,-917.1152 595.9851,-921.1482 591.9522,-921.1482"/>
<text text-anchor="middle" x="502.5327" y="-905.8986" font-family="Arial" font-size="14.00" fill="#c6c5fe">app/money/accountDetails.js</text>
</g>
<!-- app/money/index.js&#45;&gt;app/money/accountDetails.js -->
<g id="edge64" class="edge">
<title>app/money/index.js&#45;&gt;app/money/accountDetails.js</title>
<path fill="none" stroke="#757575" d="M307.6567,-582.3886C322.0286,-600.2938 348.9422,-634.7634 369.04,-666.0493 419.7385,-744.9706 470.6066,-844.5506 492.0071,-887.6033"/>
<polygon fill="#757575" stroke="#757575" points="488.9993,-889.4169 496.5706,-896.8281 495.2736,-886.3129 488.9993,-889.4169"/>
</g>
<!-- app/money/accounts.js -->
<g id="node27" class="node">
<title>app/money/accounts.js</title>
<path fill="none" stroke="#c6c5fe" d="M574.1593,-88.1482C574.1593,-88.1482 430.9061,-88.1482 430.9061,-88.1482 426.8732,-88.1482 422.8402,-84.1152 422.8402,-80.0823 422.8402,-80.0823 422.8402,-72.0164 422.8402,-72.0164 422.8402,-67.9834 426.8732,-63.9505 430.9061,-63.9505 430.9061,-63.9505 574.1593,-63.9505 574.1593,-63.9505 578.1923,-63.9505 582.2252,-67.9834 582.2252,-72.0164 582.2252,-72.0164 582.2252,-80.0823 582.2252,-80.0823 582.2252,-84.1152 578.1923,-88.1482 574.1593,-88.1482"/>
<text text-anchor="middle" x="502.5327" y="-72.8986" font-family="Arial" font-size="14.00" fill="#c6c5fe">app/money/accounts.js</text>
</g>
<!-- app/money/index.js&#45;&gt;app/money/accounts.js -->
<g id="edge65" class="edge">
<title>app/money/index.js&#45;&gt;app/money/accounts.js</title>
<path fill="none" stroke="#757575" d="M359.0055,-557.9563C362.767,-555.4937 366.1801,-552.5545 369.04,-549.0493 429.381,-475.096 350.2726,-199.22 405.04,-121.0493 414.1218,-108.0868 427.903,-98.7727 442.2676,-92.1127"/>
<polygon fill="#757575" stroke="#757575" points="443.8981,-95.2235 451.7479,-88.1078 441.1741,-88.7752 443.8981,-95.2235"/>
</g>
<!-- app/money/home.js -->
<g id="node31" class="node">
<title>app/money/home.js</title>
<path fill="none" stroke="#c6c5fe" d="M563.6457,-582.1482C563.6457,-582.1482 441.4198,-582.1482 441.4198,-582.1482 437.3868,-582.1482 433.3539,-578.1152 433.3539,-574.0823 433.3539,-574.0823 433.3539,-566.0164 433.3539,-566.0164 433.3539,-561.9834 437.3868,-557.9505 441.4198,-557.9505 441.4198,-557.9505 563.6457,-557.9505 563.6457,-557.9505 567.6786,-557.9505 571.7115,-561.9834 571.7115,-566.0164 571.7115,-566.0164 571.7115,-574.0823 571.7115,-574.0823 571.7115,-578.1152 567.6786,-582.1482 563.6457,-582.1482"/>
<text text-anchor="middle" x="502.5327" y="-566.8986" font-family="Arial" font-size="14.00" fill="#c6c5fe">app/money/home.js</text>
</g>
<!-- app/money/index.js&#45;&gt;app/money/home.js -->
<g id="edge66" class="edge">
<title>app/money/index.js&#45;&gt;app/money/home.js</title>
<path fill="none" stroke="#757575" d="M365.8482,-570.0493C384.2047,-570.0493 404.2171,-570.0493 423.1249,-570.0493"/>
<polygon fill="#757575" stroke="#757575" points="423.1964,-573.5494 433.1964,-570.0493 423.1963,-566.5494 423.1964,-573.5494"/>
</g>
<!-- app/money/monthTransactions.js -->
<g id="node34" class="node">
<title>app/money/monthTransactions.js</title>
<path fill="none" stroke="#c6c5fe" d="M1143.8713,-542.1482C1143.8713,-542.1482 938.616,-542.1482 938.616,-542.1482 934.583,-542.1482 930.5501,-538.1152 930.5501,-534.0823 930.5501,-534.0823 930.5501,-526.0164 930.5501,-526.0164 930.5501,-521.9834 934.583,-517.9505 938.616,-517.9505 938.616,-517.9505 1143.8713,-517.9505 1143.8713,-517.9505 1147.9043,-517.9505 1151.9372,-521.9834 1151.9372,-526.0164 1151.9372,-526.0164 1151.9372,-534.0823 1151.9372,-534.0823 1151.9372,-538.1152 1147.9043,-542.1482 1143.8713,-542.1482"/>
<text text-anchor="middle" x="1041.2437" y="-526.8986" font-family="Arial" font-size="14.00" fill="#c6c5fe">app/money/monthTransactions.js</text>
</g>
<!-- app/money/index.js&#45;&gt;app/money/monthTransactions.js -->
<g id="edge67" class="edge">
<title>app/money/index.js&#45;&gt;app/money/monthTransactions.js</title>
<path fill="none" stroke="#757575" d="M350.3496,-557.9613C367.6793,-554.4668 387.0987,-551.0572 405.04,-549.0493 583.5967,-529.0661 791.9842,-526.8026 920.2778,-527.811"/>
<polygon fill="#757575" stroke="#757575" points="920.4925,-531.3129 930.5225,-527.8999 920.5533,-524.3132 920.4925,-531.3129"/>
</g>
<!-- app/money/monthlyAnalytics.js -->
<g id="node35" class="node">
<title>app/money/monthlyAnalytics.js</title>
<path fill="none" stroke="#c6c5fe" d="M1137.3771,-424.1482C1137.3771,-424.1482 945.1102,-424.1482 945.1102,-424.1482 941.0773,-424.1482 937.0443,-420.1152 937.0443,-416.0823 937.0443,-416.0823 937.0443,-408.0164 937.0443,-408.0164 937.0443,-403.9834 941.0773,-399.9505 945.1102,-399.9505 945.1102,-399.9505 1137.3771,-399.9505 1137.3771,-399.9505 1141.41,-399.9505 1145.443,-403.9834 1145.443,-408.0164 1145.443,-408.0164 1145.443,-416.0823 1145.443,-416.0823 1145.443,-420.1152 1141.41,-424.1482 1137.3771,-424.1482"/>
<text text-anchor="middle" x="1041.2437" y="-408.8986" font-family="Arial" font-size="14.00" fill="#c6c5fe">app/money/monthlyAnalytics.js</text>
</g>
<!-- app/money/index.js&#45;&gt;app/money/monthlyAnalytics.js -->
<g id="edge68" class="edge">
<title>app/money/index.js&#45;&gt;app/money/monthlyAnalytics.js</title>
<path fill="none" stroke="#757575" d="M343.3652,-557.9131C351.9873,-555.2569 360.8609,-552.2669 369.04,-549.0493 385.6868,-542.5006 388.0849,-536.7522 405.04,-531.0493 617.6967,-459.5217 680.6594,-479.1959 901.2178,-438.0493 922.3058,-434.1152 945.1831,-429.8614 966.2147,-425.9565"/>
<polygon fill="#757575" stroke="#757575" points="966.8605,-429.3965 976.0538,-424.1301 965.5829,-422.514 966.8605,-429.3965"/>
</g>
<!-- app/money/store.js -->
<g id="node36" class="node">
<title>app/money/store.js</title>
<path fill="none" stroke="#c6c5fe" d="M561.7493,-154.1482C561.7493,-154.1482 443.3161,-154.1482 443.3161,-154.1482 439.2831,-154.1482 435.2502,-150.1152 435.2502,-146.0823 435.2502,-146.0823 435.2502,-138.0164 435.2502,-138.0164 435.2502,-133.9834 439.2831,-129.9505 443.3161,-129.9505 443.3161,-129.9505 561.7493,-129.9505 561.7493,-129.9505 565.7823,-129.9505 569.8152,-133.9834 569.8152,-138.0164 569.8152,-138.0164 569.8152,-146.0823 569.8152,-146.0823 569.8152,-150.1152 565.7823,-154.1482 561.7493,-154.1482"/>
<text text-anchor="middle" x="502.5327" y="-138.8986" font-family="Arial" font-size="14.00" fill="#c6c5fe">app/money/store.js</text>
</g>
<!-- app/money/index.js&#45;&gt;app/money/store.js -->
<g id="edge69" class="edge">
<title>app/money/index.js&#45;&gt;app/money/store.js</title>
<path fill="none" stroke="#757575" d="M358.9653,-557.9233C362.7359,-555.4682 366.1621,-552.5397 369.04,-549.0493 423.1426,-483.4341 350.1109,-232.9741 405.04,-168.0493 410.6512,-161.417 417.7472,-156.3786 425.5422,-152.5655"/>
<polygon fill="#757575" stroke="#757575" points="427.0876,-155.7131 434.9667,-148.63 424.3902,-149.2537 427.0876,-155.7131"/>
</g>
<!-- app/money/transactionDetails.js -->
<g id="node37" class="node">
<title>app/money/transactionDetails.js</title>
<path fill="none" stroke="#c6c5fe" d="M1140.6118,-812.1482C1140.6118,-812.1482 941.8755,-812.1482 941.8755,-812.1482 937.8426,-812.1482 933.8096,-808.1152 933.8096,-804.0823 933.8096,-804.0823 933.8096,-796.0164 933.8096,-796.0164 933.8096,-791.9834 937.8426,-787.9505 941.8755,-787.9505 941.8755,-787.9505 1140.6118,-787.9505 1140.6118,-787.9505 1144.6447,-787.9505 1148.6777,-791.9834 1148.6777,-796.0164 1148.6777,-796.0164 1148.6777,-804.0823 1148.6777,-804.0823 1148.6777,-808.1152 1144.6447,-812.1482 1140.6118,-812.1482"/>
<text text-anchor="middle" x="1041.2437" y="-796.8986" font-family="Arial" font-size="14.00" fill="#c6c5fe">app/money/transactionDetails.js</text>
</g>
<!-- app/money/index.js&#45;&gt;app/money/transactionDetails.js -->
<g id="edge70" class="edge">
<title>app/money/index.js&#45;&gt;app/money/transactionDetails.js</title>
<path fill="none" stroke="#757575" d="M336.8072,-582.1719C462.179,-620.9485 853.288,-741.9159 991.9155,-784.7925"/>
<polygon fill="#757575" stroke="#757575" points="991.2528,-788.251 1001.8405,-787.8622 993.3212,-781.5636 991.2528,-788.251"/>
</g>
<!-- app/screen.js -->
<g id="node17" class="node">
<title>app/screen.js</title>
<path fill="none" stroke="#c6c5fe" d="M1391.8549,-639.1482C1391.8549,-639.1482 1308.4488,-639.1482 1308.4488,-639.1482 1304.4159,-639.1482 1300.3829,-635.1152 1300.3829,-631.0823 1300.3829,-631.0823 1300.3829,-623.0164 1300.3829,-623.0164 1300.3829,-618.9834 1304.4159,-614.9505 1308.4488,-614.9505 1308.4488,-614.9505 1391.8549,-614.9505 1391.8549,-614.9505 1395.8878,-614.9505 1399.9208,-618.9834 1399.9208,-623.0164 1399.9208,-623.0164 1399.9208,-631.0823 1399.9208,-631.0823 1399.9208,-635.1152 1395.8878,-639.1482 1391.8549,-639.1482"/>
<text text-anchor="middle" x="1350.1519" y="-623.8986" font-family="Arial" font-size="14.00" fill="#c6c5fe">app/screen.js</text>
</g>
<!-- app/settings/index.js&#45;&gt;app/screen.js -->
<g id="edge104" class="edge">
<title>app/settings/index.js&#45;&gt;app/screen.js</title>
<path fill="none" stroke="#757575" d="M369.1077,-681.9907C476.9788,-673.8797 687.6226,-656.1762 865.2178,-630.0493 881.3439,-627.6769 884.9932,-624.6121 901.2178,-623.0493 1025.1118,-611.1158 1056.8108,-621.5756 1181.2695,-623.0493 1217.3904,-623.477 1257.8477,-624.4191 1290.1071,-625.2816"/>
<polygon fill="#757575" stroke="#757575" points="1290.1855,-628.7849 1300.277,-625.5581 1290.3758,-621.7875 1290.1855,-628.7849"/>
</g>
<!-- app/misc/electricityReadingAdd.js -->
<g id="node12" class="node">
<title>app/misc/electricityReadingAdd.js</title>
<path fill="none" stroke="#c6c5fe" d="M1145.9944,-1261.1482C1145.9944,-1261.1482 936.4929,-1261.1482 936.4929,-1261.1482 932.46,-1261.1482 928.427,-1257.1152 928.427,-1253.0823 928.427,-1253.0823 928.427,-1245.0164 928.427,-1245.0164 928.427,-1240.9834 932.46,-1236.9505 936.4929,-1236.9505 936.4929,-1236.9505 1145.9944,-1236.9505 1145.9944,-1236.9505 1150.0273,-1236.9505 1154.0603,-1240.9834 1154.0603,-1245.0164 1154.0603,-1245.0164 1154.0603,-1253.0823 1154.0603,-1253.0823 1154.0603,-1257.1152 1150.0273,-1261.1482 1145.9944,-1261.1482"/>
<text text-anchor="middle" x="1041.2437" y="-1245.8986" font-family="Arial" font-size="14.00" fill="#c6c5fe">app/misc/electricityReadingAdd.js</text>
</g>
<!-- app/misc/electricityReadingAdd.js&#45;&gt;theme.js -->
<g id="edge15" class="edge">
<title>app/misc/electricityReadingAdd.js&#45;&gt;theme.js</title>
<path fill="none" stroke="#757575" d="M1082.8623,-1261.1007C1198.5736,-1291.7614 1524.3682,-1358.1116 1658.0127,-1177.0493 1699.7249,-1120.5373 1731.6146,-901.4893 1741.0388,-830.4377"/>
<polygon fill="#757575" stroke="#757575" points="1744.5313,-830.7218 1742.3565,-820.3526 1737.5903,-829.8148 1744.5313,-830.7218"/>
</g>
<!-- app/misc/electricityReadingAdd.js&#45;&gt;app/outlineButton.js -->
<g id="edge11" class="edge">
<title>app/misc/electricityReadingAdd.js&#45;&gt;app/outlineButton.js</title>
<path fill="none" stroke="#757575" d="M1083.5879,-1261.1106C1166.4418,-1282.1525 1353.2154,-1316.7859 1483.0342,-1244.0493 1539.64,-1212.3335 1570.0629,-1136.3082 1582.1827,-1098.3701"/>
<polygon fill="#757575" stroke="#757575" points="1585.6759,-1098.9139 1585.2443,-1088.3279 1578.9801,-1096.8725 1585.6759,-1098.9139"/>
</g>
<!-- app/misc/electricityReadingAdd.js&#45;&gt;app/sharedStyles.js -->
<g id="edge13" class="edge">
<title>app/misc/electricityReadingAdd.js&#45;&gt;app/sharedStyles.js</title>
<path fill="none" stroke="#757575" d="M1065.8772,-1236.976C1093.922,-1223.1748 1141.0597,-1199.8081 1181.2695,-1179.0493 1322.348,-1106.2159 1489.0603,-1016.1033 1557.1719,-979.1124"/>
<polygon fill="#757575" stroke="#757575" points="1558.9999,-982.1026 1566.1155,-974.2528 1555.6578,-975.9519 1558.9999,-982.1026"/>
</g>
<!-- app/pill.js -->
<g id="node13" class="node">
<title>app/pill.js</title>
<path fill="none" stroke="#cfffac" d="M1379.4521,-1396.1482C1379.4521,-1396.1482 1320.8516,-1396.1482 1320.8516,-1396.1482 1316.8187,-1396.1482 1312.7857,-1392.1152 1312.7857,-1388.0823 1312.7857,-1388.0823 1312.7857,-1380.0164 1312.7857,-1380.0164 1312.7857,-1375.9834 1316.8187,-1371.9505 1320.8516,-1371.9505 1320.8516,-1371.9505 1379.4521,-1371.9505 1379.4521,-1371.9505 1383.485,-1371.9505 1387.518,-1375.9834 1387.518,-1380.0164 1387.518,-1380.0164 1387.518,-1388.0823 1387.518,-1388.0823 1387.518,-1392.1152 1383.485,-1396.1482 1379.4521,-1396.1482"/>
<text text-anchor="middle" x="1350.1519" y="-1380.8986" font-family="Arial" font-size="14.00" fill="#cfffac">app/pill.js</text>
</g>
<!-- app/misc/electricityReadingAdd.js&#45;&gt;app/pill.js -->
<g id="edge12" class="edge">
<title>app/misc/electricityReadingAdd.js&#45;&gt;app/pill.js</title>
<path fill="none" stroke="#757575" d="M1068.9291,-1261.1485C1124.5945,-1285.4756 1250.1022,-1340.3253 1312.8979,-1367.7685"/>
<polygon fill="#757575" stroke="#757575" points="1311.8527,-1371.1313 1322.4175,-1371.9288 1314.6559,-1364.7171 1311.8527,-1371.1313"/>
</g>
<!-- firebaseHelper.js -->
<g id="node14" class="node">
<title>firebaseHelper.js</title>
<path fill="none" stroke="#cfffac" d="M1402.3617,-738.1482C1402.3617,-738.1482 1297.942,-738.1482 1297.942,-738.1482 1293.9091,-738.1482 1289.8761,-734.1152 1289.8761,-730.0823 1289.8761,-730.0823 1289.8761,-722.0164 1289.8761,-722.0164 1289.8761,-717.9834 1293.9091,-713.9505 1297.942,-713.9505 1297.942,-713.9505 1402.3617,-713.9505 1402.3617,-713.9505 1406.3946,-713.9505 1410.4276,-717.9834 1410.4276,-722.0164 1410.4276,-722.0164 1410.4276,-730.0823 1410.4276,-730.0823 1410.4276,-734.1152 1406.3946,-738.1482 1402.3617,-738.1482"/>
<text text-anchor="middle" x="1350.1519" y="-722.8986" font-family="Arial" font-size="14.00" fill="#cfffac">firebaseHelper.js</text>
</g>
<!-- app/misc/electricityReadingAdd.js&#45;&gt;firebaseHelper.js -->
<g id="edge14" class="edge">
<title>app/misc/electricityReadingAdd.js&#45;&gt;firebaseHelper.js</title>
<path fill="none" stroke="#757575" d="M1092.7729,-1236.9421C1123.7216,-1226.8388 1160.927,-1209.0935 1181.2695,-1179.0493 1235.2794,-1099.2813 1151.7042,-817.6268 1217.2695,-747.0493 1233.1248,-729.9821 1256.7963,-723.0262 1279.7867,-720.8936"/>
<polygon fill="#757575" stroke="#757575" points="1280.1644,-724.3767 1289.921,-720.2465 1279.7183,-717.3909 1280.1644,-724.3767"/>
</g>
<!-- app/misc/electricityReadingItem.js -->
<g id="node15" class="node">
<title>app/misc/electricityReadingItem.js</title>
<path fill="none" stroke="#c6c5fe" d="M1146.8118,-1170.1482C1146.8118,-1170.1482 935.6755,-1170.1482 935.6755,-1170.1482 931.6425,-1170.1482 927.6096,-1166.1152 927.6096,-1162.0823 927.6096,-1162.0823 927.6096,-1154.0164 927.6096,-1154.0164 927.6096,-1149.9834 931.6425,-1145.9505 935.6755,-1145.9505 935.6755,-1145.9505 1146.8118,-1145.9505 1146.8118,-1145.9505 1150.8448,-1145.9505 1154.8777,-1149.9834 1154.8777,-1154.0164 1154.8777,-1154.0164 1154.8777,-1162.0823 1154.8777,-1162.0823 1154.8777,-1166.1152 1150.8448,-1170.1482 1146.8118,-1170.1482"/>
<text text-anchor="middle" x="1041.2437" y="-1154.8986" font-family="Arial" font-size="14.00" fill="#c6c5fe">app/misc/electricityReadingItem.js</text>
</g>
<!-- app/misc/electricityReadingItem.js&#45;&gt;theme.js -->
<g id="edge18" class="edge">
<title>app/misc/electricityReadingItem.js&#45;&gt;theme.js</title>
<path fill="none" stroke="#757575" d="M1079.464,-1170.0993C1185.0025,-1200.7931 1484.1287,-1270.0183 1658.0127,-1130.0493 1705.6236,-1091.7246 1733.1452,-897.337 1741.3081,-830.5885"/>
<polygon fill="#757575" stroke="#757575" points="1744.8214,-830.6847 1742.5306,-820.3405 1737.8706,-829.8555 1744.8214,-830.6847"/>
</g>
<!-- app/misc/electricityReadingItem.js&#45;&gt;app/outlineButton.js -->
<g id="edge16" class="edge">
<title>app/misc/electricityReadingItem.js&#45;&gt;app/outlineButton.js</title>
<path fill="none" stroke="#757575" d="M1121.7026,-1145.994C1225.5053,-1130.441 1405.0035,-1103.5465 1508.5631,-1088.0299"/>
<polygon fill="#757575" stroke="#757575" points="1509.2794,-1091.4618 1518.6504,-1086.5185 1508.2421,-1084.539 1509.2794,-1091.4618"/>
</g>
<!-- app/misc/electricityReadingItem.js&#45;&gt;firebaseHelper.js -->
<g id="edge17" class="edge">
<title>app/misc/electricityReadingItem.js&#45;&gt;firebaseHelper.js</title>
<path fill="none" stroke="#757575" d="M1106.5492,-1145.932C1133.9198,-1137.4432 1163.4617,-1123.1191 1181.2695,-1099.0493 1228.0358,-1035.8383 1163.2142,-804.1522 1217.2695,-747.0493 1233.2144,-730.2055 1256.7841,-723.2695 1279.664,-721.0892"/>
<polygon fill="#757575" stroke="#757575" points="1280.0042,-724.5744 1289.7492,-720.417 1279.5386,-717.5899 1280.0042,-724.5744"/>
</g>
<!-- app/misc/electricityReadingsList.js&#45;&gt;app/misc/electricityReadingItem.js -->
<g id="edge19" class="edge">
<title>app/misc/electricityReadingsList.js&#45;&gt;app/misc/electricityReadingItem.js</title>
<path fill="none" stroke="#757575" d="M848.1254,-1070.1464C854.1214,-1072.629 859.8803,-1075.57 865.2178,-1079.0493 889.0726,-1094.5996 877.3812,-1116.4711 901.2178,-1132.0493 907.2653,-1136.0016 913.7565,-1139.3905 920.5112,-1142.2929"/>
<polygon fill="#757575" stroke="#757575" points="919.2809,-1145.5699 929.8687,-1145.9566 921.833,-1139.0517 919.2809,-1145.5699"/>
</g>
<!-- app/misc/electricityReadingsList.js&#45;&gt;app/screen.js -->
<g id="edge20" class="edge">
<title>app/misc/electricityReadingsList.js&#45;&gt;app/screen.js</title>
<path fill="none" stroke="#757575" d="M795.7541,-1045.9491C820.1886,-1037.0233 848.6789,-1022.2975 865.2178,-999.0493 931.0566,-906.502 825.7722,-830.9476 901.2178,-746.0493 927.3374,-716.6571 1174.3036,-662.9655 1290.3937,-639.0705"/>
<polygon fill="#757575" stroke="#757575" points="1291.1094,-642.4967 1300.202,-637.0585 1289.7027,-635.6394 1291.1094,-642.4967"/>
</g>
<!-- app/screen.js&#45;&gt;theme.js -->
<g id="edge103" class="edge">
<title>app/screen.js&#45;&gt;theme.js</title>
<path fill="none" stroke="#757575" d="M1399.8619,-622.2095C1464.6491,-618.4347 1578.9809,-620.6826 1658.0127,-672.0493 1700.0848,-699.3941 1725.4081,-755.3551 1736.767,-786.2887"/>
<polygon fill="#757575" stroke="#757575" points="1733.4713,-787.4675 1740.0878,-795.7423 1740.0757,-785.1474 1733.4713,-787.4675"/>
</g>
<!-- app/misc/home.js&#45;&gt;app/card.js -->
<g id="edge21" class="edge">
<title>app/misc/home.js&#45;&gt;app/card.js</title>
<path fill="none" stroke="#757575" d="M813.3139,-1092.833C830.4913,-1089.7146 848.8738,-1085.2928 865.2178,-1079.0493 882.7344,-1072.3579 884.5311,-1065.6026 901.2178,-1057.0493 933.2422,-1040.6342 970.8978,-1024.9601 999.0895,-1013.8984"/>
<polygon fill="#757575" stroke="#757575" points="1000.5899,-1017.0704 1008.6419,-1010.1845 998.0532,-1010.5462 1000.5899,-1017.0704"/>
</g>
<!-- app/misc/home.js&#45;&gt;theme.js -->
<g id="edge25" class="edge">
<title>app/misc/home.js&#45;&gt;theme.js</title>
<path fill="none" stroke="#757575" d="M813.1955,-1096.45C831.9496,-1098.501 851.2267,-1104.1844 865.2178,-1117.0493 916.6403,-1164.3328 849.0022,-1223.6431 901.2178,-1270.0493 949.6309,-1313.0762 1419.3439,-1317.826 1483.0342,-1306.0493 1564.9204,-1290.908 1604.3085,-1302.6926 1658.0127,-1239.0493 1711.3596,-1175.8295 1735.9512,-910.4915 1742.227,-830.7858"/>
<polygon fill="#757575" stroke="#757575" points="1745.747,-830.6573 1743.0213,-820.4191 1738.7675,-830.1224 1745.747,-830.6573"/>
</g>
<!-- app/misc/home.js&#45;&gt;app/misc/electricityReadingAdd.js -->
<g id="edge22" class="edge">
<title>app/misc/home.js&#45;&gt;app/misc/electricityReadingAdd.js</title>
<path fill="none" stroke="#757575" d="M773.2566,-1112.0993C802.6597,-1127.7119 855.6255,-1155.6977 901.2178,-1179.0493 937.4037,-1197.5832 979.1118,-1218.3584 1007.5327,-1232.4272"/>
<polygon fill="#757575" stroke="#757575" points="1006.1193,-1235.6328 1016.6346,-1236.9284 1009.2223,-1229.3581 1006.1193,-1235.6328"/>
</g>
<!-- app/misc/home.js&#45;&gt;firebaseHelper.js -->
<g id="edge24" class="edge">
<title>app/misc/home.js&#45;&gt;firebaseHelper.js</title>
<path fill="none" stroke="#757575" d="M813.2571,-1101.136C832.0147,-1098.4118 851.2783,-1092.1274 865.2178,-1079.0493 913.3281,-1033.9117 855.4309,-982.542 901.2178,-935.0493 991.1464,-841.7703 1087.7018,-943.6775 1181.2695,-854.0493 1217.5032,-819.3412 1178.9418,-779.4301 1217.2695,-747.0493 1234.5205,-732.4749 1257.6968,-725.9143 1279.8614,-723.3929"/>
<polygon fill="#757575" stroke="#757575" points="1280.2947,-726.8683 1289.9491,-722.5043 1279.6805,-719.8953 1280.2947,-726.8683"/>
</g>
<!-- app/misc/home.js&#45;&gt;app/screen.js -->
<g id="edge23" class="edge">
<title>app/misc/home.js&#45;&gt;app/screen.js</title>
<path fill="none" stroke="#757575" d="M813.0752,-1102.3135C832.2758,-1099.7547 851.8492,-1093.2709 865.2178,-1079.0493 957.1954,-981.2031 810.8782,-878.41 901.2178,-779.0493 986.9128,-684.7969 1073.3824,-785.7806 1181.2695,-718.0493 1203.2568,-704.2458 1196.0898,-687.0624 1217.2695,-672.0493 1238.9258,-656.6984 1266.2263,-646.2622 1290.4404,-639.3383"/>
<polygon fill="#757575" stroke="#757575" points="1291.518,-642.6725 1300.2503,-636.6727 1289.6824,-635.9174 1291.518,-642.6725"/>
</g>
<!-- app/misc/reducers/index.js -->
<g id="node21" class="node">
<title>app/misc/reducers/index.js</title>
<path fill="none" stroke="#c6c5fe" d="M1123.9153,-1476.1482C1123.9153,-1476.1482 958.572,-1476.1482 958.572,-1476.1482 954.5391,-1476.1482 950.5062,-1472.1152 950.5062,-1468.0823 950.5062,-1468.0823 950.5062,-1460.0164 950.5062,-1460.0164 950.5062,-1455.9834 954.5391,-1451.9505 958.572,-1451.9505 958.572,-1451.9505 1123.9153,-1451.9505 1123.9153,-1451.9505 1127.9482,-1451.9505 1131.9811,-1455.9834 1131.9811,-1460.0164 1131.9811,-1460.0164 1131.9811,-1468.0823 1131.9811,-1468.0823 1131.9811,-1472.1152 1127.9482,-1476.1482 1123.9153,-1476.1482"/>
<text text-anchor="middle" x="1041.2437" y="-1460.8986" font-family="Arial" font-size="14.00" fill="#c6c5fe">app/misc/reducers/index.js</text>
</g>
<!-- app/misc/store.js&#45;&gt;app/misc/reducers/index.js -->
<g id="edge30" class="edge">
<title>app/misc/store.js&#45;&gt;app/misc/reducers/index.js</title>
<path fill="none" stroke="#757575" d="M811.1917,-1464.0493C848.4614,-1464.0493 897.1632,-1464.0493 940.1561,-1464.0493"/>
<polygon fill="#757575" stroke="#757575" points="940.3772,-1467.5494 950.3772,-1464.0493 940.3772,-1460.5494 940.3772,-1467.5494"/>
</g>
<!-- app/misc/reducers/electricityReadings.js -->
<g id="node20" class="node">
<title>app/misc/reducers/electricityReadings.js</title>
<path fill="none" stroke="#cfffac" d="M1474.8507,-1476.1482C1474.8507,-1476.1482 1225.453,-1476.1482 1225.453,-1476.1482 1221.42,-1476.1482 1217.3871,-1472.1152 1217.3871,-1468.0823 1217.3871,-1468.0823 1217.3871,-1460.0164 1217.3871,-1460.0164 1217.3871,-1455.9834 1221.42,-1451.9505 1225.453,-1451.9505 1225.453,-1451.9505 1474.8507,-1451.9505 1474.8507,-1451.9505 1478.8837,-1451.9505 1482.9166,-1455.9834 1482.9166,-1460.0164 1482.9166,-1460.0164 1482.9166,-1468.0823 1482.9166,-1468.0823 1482.9166,-1472.1152 1478.8837,-1476.1482 1474.8507,-1476.1482"/>
<text text-anchor="middle" x="1350.1519" y="-1460.8986" font-family="Arial" font-size="14.00" fill="#cfffac">app/misc/reducers/electricityReadings.js</text>
</g>
<!-- app/misc/reducers/index.js&#45;&gt;app/misc/reducers/electricityReadings.js -->
<g id="edge29" class="edge">
<title>app/misc/reducers/index.js&#45;&gt;app/misc/reducers/electricityReadings.js</title>
<path fill="none" stroke="#757575" d="M1132.2555,-1464.0493C1155.744,-1464.0493 1181.6017,-1464.0493 1207.0465,-1464.0493"/>
<polygon fill="#757575" stroke="#757575" points="1207.151,-1467.5494 1217.151,-1464.0493 1207.1509,-1460.5494 1207.151,-1467.5494"/>
</g>
<!-- app/money/accountDetails.js&#45;&gt;theme.js -->
<g id="edge37" class="edge">
<title>app/money/accountDetails.js&#45;&gt;theme.js</title>
<path fill="none" stroke="#757575" d="M513.362,-921.0991C534.2484,-945.1317 579.8161,-1001.5849 600.0254,-1058.0493 625.0327,-1127.9192 582.9171,-1338.2162 636.0254,-1390.0493 700.6947,-1453.1658 950.8787,-1424.0493 1041.2437,-1424.0493 1041.2437,-1424.0493 1041.2437,-1424.0493 1350.1519,-1424.0493 1500.6469,-1424.0493 1576.7496,-1409.7184 1658.0127,-1283.0493 1707.44,-1206.0044 1735.051,-914.5518 1742.0862,-830.7276"/>
<polygon fill="#757575" stroke="#757575" points="1745.5937,-830.7791 1742.926,-820.5257 1738.6173,-830.2048 1745.5937,-830.7791"/>
</g>
<!-- app/money/accountDetails.js&#45;&gt;app/pill.js -->
<g id="edge34" class="edge">
<title>app/money/accountDetails.js&#45;&gt;app/pill.js</title>
<path fill="none" stroke="#757575" d="M513.313,-921.1167C534.1137,-945.1803 579.5379,-1001.6852 600.0254,-1058.0493 623.2648,-1121.9843 585.8746,-1316.0857 636.0254,-1362.0493 684.9171,-1406.859 1150.525,-1392.1533 1302.4614,-1386.099"/>
<polygon fill="#757575" stroke="#757575" points="1302.9983,-1389.5802 1312.8487,-1385.679 1302.7154,-1382.586 1302.9983,-1389.5802"/>
</g>
<!-- app/money/accountDetails.js&#45;&gt;firebaseHelper.js -->
<g id="edge36" class="edge">
<title>app/money/accountDetails.js&#45;&gt;firebaseHelper.js</title>
<path fill="none" stroke="#757575" d="M586.4699,-896.9782C667.1072,-885.4981 792.4054,-867.9644 901.2178,-854.0493 963.3759,-846.1004 1130.1832,-857.3398 1181.2695,-821.0493 1211.0863,-799.8682 1187.8763,-768.8143 1217.2695,-747.0493 1235.0941,-733.8507 1257.9791,-727.5543 1279.7178,-724.8557"/>
<polygon fill="#757575" stroke="#757575" points="1280.3344,-728.3115 1289.9353,-723.8311 1279.6359,-721.3464 1280.3344,-728.3115"/>
</g>
<!-- app/money/accountDetails.js&#45;&gt;app/screen.js -->
<g id="edge35" class="edge">
<title>app/money/accountDetails.js&#45;&gt;app/screen.js</title>
<path fill="none" stroke="#757575" d="M530.3954,-896.9502C593.8948,-868.5848 752.5562,-793.179 865.2178,-701.0493 883.9899,-685.6983 879.5083,-670.8542 901.2178,-660.0493 967.8266,-626.8978 1183.7087,-624.8054 1289.9598,-625.9094"/>
<polygon fill="#757575" stroke="#757575" points="1290.1596,-629.4119 1300.1999,-626.0293 1290.2416,-622.4124 1290.1596,-629.4119"/>
</g>
<!-- app/money/accountEntry.js -->
<g id="node23" class="node">
<title>app/money/accountEntry.js</title>
<path fill="none" stroke="#c6c5fe" d="M834.3849,-990.1482C834.3849,-990.1482 666.8583,-990.1482 666.8583,-990.1482 662.8253,-990.1482 658.7924,-986.1152 658.7924,-982.0823 658.7924,-982.0823 658.7924,-974.0164 658.7924,-974.0164 658.7924,-969.9834 662.8253,-965.9505 666.8583,-965.9505 666.8583,-965.9505 834.3849,-965.9505 834.3849,-965.9505 838.4178,-965.9505 842.4508,-969.9834 842.4508,-974.0164 842.4508,-974.0164 842.4508,-982.0823 842.4508,-982.0823 842.4508,-986.1152 838.4178,-990.1482 834.3849,-990.1482"/>
<text text-anchor="middle" x="750.6216" y="-974.8986" font-family="Arial" font-size="14.00" fill="#c6c5fe">app/money/accountEntry.js</text>
</g>
<!-- app/money/accountDetails.js&#45;&gt;app/money/accountEntry.js -->
<g id="edge31" class="edge">
<title>app/money/accountDetails.js&#45;&gt;app/money/accountEntry.js</title>
<path fill="none" stroke="#757575" d="M546.0304,-921.1472C588.1481,-932.8612 652.0923,-950.6457 697.2644,-963.2093"/>
<polygon fill="#757575" stroke="#757575" points="696.6017,-966.6578 707.1739,-965.9654 698.4774,-959.9137 696.6017,-966.6578"/>
</g>
<!-- app/money/accountEntryForm.js -->
<g id="node24" class="node">
<title>app/money/accountEntryForm.js</title>
<path fill="none" stroke="#c6c5fe" d="M1141.7085,-1090.1482C1141.7085,-1090.1482 940.7788,-1090.1482 940.7788,-1090.1482 936.7458,-1090.1482 932.7129,-1086.1152 932.7129,-1082.0823 932.7129,-1082.0823 932.7129,-1074.0164 932.7129,-1074.0164 932.7129,-1069.9834 936.7458,-1065.9505 940.7788,-1065.9505 940.7788,-1065.9505 1141.7085,-1065.9505 1141.7085,-1065.9505 1145.7415,-1065.9505 1149.7744,-1069.9834 1149.7744,-1074.0164 1149.7744,-1074.0164 1149.7744,-1082.0823 1149.7744,-1082.0823 1149.7744,-1086.1152 1145.7415,-1090.1482 1141.7085,-1090.1482"/>
<text text-anchor="middle" x="1041.2437" y="-1074.8986" font-family="Arial" font-size="14.00" fill="#c6c5fe">app/money/accountEntryForm.js</text>
</g>
<!-- app/money/accountDetails.js&#45;&gt;app/money/accountEntryForm.js -->
<g id="edge32" class="edge">
<title>app/money/accountDetails.js&#45;&gt;app/money/accountEntryForm.js</title>
<path fill="none" stroke="#757575" d="M516.1825,-921.2448C539.1391,-941.0261 587.7211,-979.8259 636.0254,-999.0493 731.9614,-1037.2284 765.3138,-1010.9619 865.2178,-1037.0493 881.6771,-1041.3473 884.8317,-1045.4799 901.2178,-1050.0493 920.1298,-1055.3231 940.7414,-1060.0135 960.1911,-1063.9769"/>
<polygon fill="#757575" stroke="#757575" points="959.7493,-1067.4577 970.241,-1065.9824 961.1193,-1060.593 959.7493,-1067.4577"/>
</g>
<!-- app/moneyDisplay.js -->
<g id="node25" class="node">
<title>app/moneyDisplay.js</title>
<path fill="none" stroke="#c6c5fe" d="M1414.2188,-268.1482C1414.2188,-268.1482 1286.0849,-268.1482 1286.0849,-268.1482 1282.0519,-268.1482 1278.019,-264.1152 1278.019,-260.0823 1278.019,-260.0823 1278.019,-252.0164 1278.019,-252.0164 1278.019,-247.9834 1282.0519,-243.9505 1286.0849,-243.9505 1286.0849,-243.9505 1414.2188,-243.9505 1414.2188,-243.9505 1418.2518,-243.9505 1422.2847,-247.9834 1422.2847,-252.0164 1422.2847,-252.0164 1422.2847,-260.0823 1422.2847,-260.0823 1422.2847,-264.1152 1418.2518,-268.1482 1414.2188,-268.1482"/>
<text text-anchor="middle" x="1350.1519" y="-252.8986" font-family="Arial" font-size="14.00" fill="#c6c5fe">app/moneyDisplay.js</text>
</g>
<!-- app/money/accountDetails.js&#45;&gt;app/moneyDisplay.js -->
<g id="edge33" class="edge">
<title>app/money/accountDetails.js&#45;&gt;app/moneyDisplay.js</title>
<path fill="none" stroke="#757575" d="M505.1305,-896.7854C515.1803,-851.6118 555.0428,-691.7515 636.0254,-588.0493 797.2562,-381.5855 1117.1619,-298.2003 1267.9164,-269.3123"/>
<polygon fill="#757575" stroke="#757575" points="1268.8567,-272.6969 1278.0361,-267.4065 1267.5611,-265.8178 1268.8567,-272.6969"/>
</g>
<!-- app/money/accountEntry.js&#45;&gt;theme.js -->
<g id="edge41" class="edge">
<title>app/money/accountEntry.js&#45;&gt;theme.js</title>
<path fill="none" stroke="#757575" d="M785.8998,-990.1176C810.3682,-999.8429 842.5121,-1015.4646 865.2178,-1037.0493 888.3118,-1059.0032 873.6032,-1083.1514 901.2178,-1099.0493 941.1646,-1122.047 1607.8927,-1134.605 1658.0127,-1097.0493 1701.7835,-1064.2511 1731.3264,-892.3946 1740.7001,-830.3864"/>
<polygon fill="#757575" stroke="#757575" points="1744.214,-830.5492 1742.2145,-820.1448 1737.2893,-829.5252 1744.214,-830.5492"/>
</g>
<!-- app/money/accountEntry.js&#45;&gt;app/dateInput.js -->
<g id="edge38" class="edge">
<title>app/money/accountEntry.js&#45;&gt;app/dateInput.js</title>
<path fill="none" stroke="#757575" d="M812.9974,-990.1608C830.0868,-994.0301 848.5038,-998.7147 865.2178,-1004.0493 881.7304,-1009.3196 884.221,-1015.65 901.2178,-1019.0493 1023.2681,-1043.4594 1074.8311,-1083.5707 1181.2695,-1019.0493 1210.8489,-1001.1188 1189.5577,-970.7495 1217.2695,-950.0493 1235.8062,-936.2028 1259.7319,-929.1603 1282.1627,-925.7365"/>
<polygon fill="#757575" stroke="#757575" points="1282.8767,-929.1731 1292.3388,-924.4067 1281.9695,-922.2321 1282.8767,-929.1731"/>
</g>
<!-- app/money/accountEntry.js&#45;&gt;app/money/accountEntryForm.js -->
<g id="edge39" class="edge">
<title>app/money/accountEntry.js&#45;&gt;app/money/accountEntryForm.js</title>
<path fill="none" stroke="#757575" d="M835.6993,-990.172C846.1104,-993.6926 856.2308,-998.2228 865.2178,-1004.0493 887.5933,-1018.5561 878.56,-1037.9875 901.2178,-1052.0493 908.0882,-1056.3132 915.4884,-1059.9121 923.1709,-1062.9461"/>
<polygon fill="#757575" stroke="#757575" points="922.0709,-1066.27 932.6652,-1066.3736 924.4478,-1059.6859 922.0709,-1066.27"/>
</g>
<!-- app/moneyInput.js -->
<g id="node26" class="node">
<title>app/moneyInput.js</title>
<path fill="none" stroke="#c6c5fe" d="M1407.4928,-780.1482C1407.4928,-780.1482 1292.8109,-780.1482 1292.8109,-780.1482 1288.7779,-780.1482 1284.745,-776.1152 1284.745,-772.0823 1284.745,-772.0823 1284.745,-764.0164 1284.745,-764.0164 1284.745,-759.9834 1288.7779,-755.9505 1292.8109,-755.9505 1292.8109,-755.9505 1407.4928,-755.9505 1407.4928,-755.9505 1411.5258,-755.9505 1415.5587,-759.9834 1415.5587,-764.0164 1415.5587,-764.0164 1415.5587,-772.0823 1415.5587,-772.0823 1415.5587,-776.1152 1411.5258,-780.1482 1407.4928,-780.1482"/>
<text text-anchor="middle" x="1350.1519" y="-764.8986" font-family="Arial" font-size="14.00" fill="#c6c5fe">app/moneyInput.js</text>
</g>
<!-- app/money/accountEntry.js&#45;&gt;app/moneyInput.js -->
<g id="edge40" class="edge">
<title>app/money/accountEntry.js&#45;&gt;app/moneyInput.js</title>
<path fill="none" stroke="#757575" d="M792.8671,-965.9935C900.9657,-935.131 1179.2817,-855.5774 1181.2695,-854.0493 1205.9251,-835.0964 1191.8119,-811.9104 1217.2695,-794.0493 1233.9786,-782.3262 1254.6401,-775.5645 1274.6506,-771.7472"/>
<polygon fill="#757575" stroke="#757575" points="1275.4339,-775.1647 1284.715,-770.0548 1274.273,-768.2616 1275.4339,-775.1647"/>
</g>
<!-- app/money/accountEntryForm.js&#45;&gt;theme.js -->
<g id="edge47" class="edge">
<title>app/money/accountEntryForm.js&#45;&gt;theme.js</title>
<path fill="none" stroke="#757575" d="M1149.9785,-1073.2416C1304.9193,-1064.4272 1579.2192,-1040.946 1658.0127,-983.0493 1709.3949,-945.2941 1731.6641,-868.3275 1739.8421,-830.3133"/>
<polygon fill="#757575" stroke="#757575" points="1743.3215,-830.7642 1741.8664,-820.2698 1736.4595,-829.3811 1743.3215,-830.7642"/>
</g>
<!-- app/money/accountEntryForm.js&#45;&gt;app/dateInput.js -->
<g id="edge42" class="edge">
<title>app/money/accountEntryForm.js&#45;&gt;app/dateInput.js</title>
<path fill="none" stroke="#757575" d="M1149.7834,-1069.9884C1161.2496,-1065.7368 1172.0622,-1059.9241 1181.2695,-1052.0493 1217.8038,-1020.8026 1180.8862,-981.4716 1217.2695,-950.0493 1235.0916,-934.6574 1259.3133,-927.3303 1282.1971,-924.1132"/>
<polygon fill="#757575" stroke="#757575" points="1282.7158,-927.5765 1292.2433,-922.9422 1281.9053,-920.6236 1282.7158,-927.5765"/>
</g>
<!-- app/money/accountEntryForm.js&#45;&gt;app/outlineButton.js -->
<g id="edge44" class="edge">
<title>app/money/accountEntryForm.js&#45;&gt;app/outlineButton.js</title>
<path fill="none" stroke="#757575" d="M1150.0229,-1077.6518C1255.8925,-1077.2649 1414.2524,-1076.6862 1508.8824,-1076.3404"/>
<polygon fill="#757575" stroke="#757575" points="1508.98,-1079.8401 1518.9671,-1076.3035 1508.9543,-1072.8402 1508.98,-1079.8401"/>
</g>
<!-- app/money/accountEntryForm.js&#45;&gt;app/sharedStyles.js -->
<g id="edge45" class="edge">
<title>app/money/accountEntryForm.js&#45;&gt;app/sharedStyles.js</title>
<path fill="none" stroke="#757575" d="M1149.895,-1066.0913C1161.0769,-1062.0637 1171.7934,-1056.8294 1181.2695,-1050.0493 1207.1835,-1031.5082 1190.2275,-1004.9027 1217.2695,-988.0493 1264.2901,-958.7447 1414.929,-957.0351 1509.2502,-959.0992"/>
<polygon fill="#757575" stroke="#757575" points="1509.2482,-962.6001 1519.3286,-959.3387 1509.4146,-955.6021 1509.2482,-962.6001"/>
</g>
<!-- app/money/accountEntryForm.js&#45;&gt;firebaseHelper.js -->
<g id="edge46" class="edge">
<title>app/money/accountEntryForm.js&#45;&gt;firebaseHelper.js</title>
<path fill="none" stroke="#757575" d="M1105.4979,-1065.9083C1133.0023,-1057.3973 1162.9465,-1043.062 1181.2695,-1019.0493 1255.2429,-922.1057 1132.1338,-834.3536 1217.2695,-747.0493 1233.4625,-730.4439 1257.0879,-723.5613 1279.9429,-721.3571"/>
<polygon fill="#757575" stroke="#757575" points="1280.2738,-724.8428 1290.0121,-720.6696 1279.7969,-717.859 1280.2738,-724.8428"/>
</g>
<!-- app/money/accountEntryForm.js&#45;&gt;app/moneyInput.js -->
<g id="edge43" class="edge">
<title>app/money/accountEntryForm.js&#45;&gt;app/moneyInput.js</title>
<path fill="none" stroke="#757575" d="M1098.7573,-1065.9677C1127.1066,-1057.2903 1159.7412,-1042.7945 1181.2695,-1019.0493 1217.5275,-979.0576 1189.5526,-949.3715 1217.2695,-903.0493 1246.1628,-854.7612 1295.7974,-810.7126 1325.5383,-786.809"/>
<polygon fill="#757575" stroke="#757575" points="1328.0526,-789.2828 1333.7251,-780.3344 1323.7104,-783.7923 1328.0526,-789.2828"/>
</g>
<!-- app/moneyDisplay.js&#45;&gt;theme.js -->
<g id="edge99" class="edge">
<title>app/moneyDisplay.js&#45;&gt;theme.js</title>
<path fill="none" stroke="#757575" d="M1422.4881,-251.0397C1502.5663,-247.1608 1624.7591,-246.7299 1658.0127,-277.0493 1696.5129,-312.1523 1733.1541,-689.5725 1741.9203,-785.8149"/>
<polygon fill="#757575" stroke="#757575" points="1738.4444,-786.2406 1742.8288,-795.8856 1745.4161,-785.6116 1738.4444,-786.2406"/>
</g>
<!-- app/moneyDisplay.js&#45;&gt;utils/index.js -->
<g id="edge100" class="edge">
<title>app/moneyDisplay.js&#45;&gt;utils/index.js</title>
<path fill="none" stroke="#757575" d="M1418.779,-268.1411C1454.6765,-274.4661 1498.0854,-282.1145 1532.0191,-288.0935"/>
<polygon fill="#757575" stroke="#757575" points="1531.7716,-291.6037 1542.2273,-289.8921 1532.9864,-284.7099 1531.7716,-291.6037"/>
</g>
<!-- app/moneyInput.js&#45;&gt;theme.js -->
<g id="edge101" class="edge">
<title>app/moneyInput.js&#45;&gt;theme.js</title>
<path fill="none" stroke="#757575" d="M1415.4664,-772.0945C1477.889,-776.308 1574.569,-783.7403 1658.0127,-794.0493 1671.5136,-795.7173 1686.1427,-797.944 1699.4359,-800.13"/>
<polygon fill="#757575" stroke="#757575" points="1698.859,-803.5821 1709.3001,-801.7838 1700.0165,-796.6784 1698.859,-803.5821"/>
</g>
<!-- app/moneyInput.js&#45;&gt;utils/index.js -->
<g id="edge102" class="edge">
<title>app/moneyInput.js&#45;&gt;utils/index.js</title>
<path fill="none" stroke="#757575" d="M1415.5513,-772.1673C1439.4797,-770.2682 1465.0634,-763.7369 1483.0342,-747.0493 1547.1267,-687.5336 1578.6506,-402.6265 1586.5181,-320.3451"/>
<polygon fill="#757575" stroke="#757575" points="1590.0087,-320.6069 1587.4539,-310.3248 1583.0391,-319.956 1590.0087,-320.6069"/>
</g>
<!-- app/money/accounts.js&#45;&gt;app/screen.js -->
<g id="edge50" class="edge">
<title>app/money/accounts.js&#45;&gt;app/screen.js</title>
<path fill="none" stroke="#757575" d="M537.9259,-88.1186C557.3779,-95.7622 581.2881,-106.8847 600.0254,-121.0493 619.6375,-135.8753 619.402,-144.9356 636.0254,-163.0493 749.7544,-286.9746 756.0658,-348.063 901.2178,-433.0493 1012.5137,-498.2129 1064.4434,-454.4164 1181.2695,-509.0493 1238.7239,-535.9174 1297.6149,-582.1815 1328.3847,-608.079"/>
<polygon fill="#757575" stroke="#757575" points="1326.4095,-610.994 1336.2931,-614.8103 1330.9466,-605.6634 1326.4095,-610.994"/>
</g>
<!-- app/money/category.js -->
<g id="node28" class="node">
<title>app/money/category.js</title>
<path fill="none" stroke="#c6c5fe" d="M820.3712,-24.1482C820.3712,-24.1482 680.8719,-24.1482 680.8719,-24.1482 676.839,-24.1482 672.806,-20.1152 672.806,-16.0823 672.806,-16.0823 672.806,-8.0164 672.806,-8.0164 672.806,-3.9834 676.839,.0495 680.8719,.0495 680.8719,.0495 820.3712,.0495 820.3712,.0495 824.4042,.0495 828.4371,-3.9834 828.4371,-8.0164 828.4371,-8.0164 828.4371,-16.0823 828.4371,-16.0823 828.4371,-20.1152 824.4042,-24.1482 820.3712,-24.1482"/>
<text text-anchor="middle" x="750.6216" y="-8.8986" font-family="Arial" font-size="14.00" fill="#c6c5fe">app/money/category.js</text>
</g>
<!-- app/money/accounts.js&#45;&gt;app/money/category.js -->
<g id="edge48" class="edge">
<title>app/money/accounts.js&#45;&gt;app/money/category.js</title>
<path fill="none" stroke="#757575" d="M542.9799,-63.9184C569.3707,-56.1562 604.6249,-46.0744 636.0254,-38.0493 651.739,-34.0334 668.7445,-30.0043 684.7242,-26.3575"/>
<polygon fill="#757575" stroke="#757575" points="685.5401,-29.7614 694.5205,-24.1398 683.9945,-22.9342 685.5401,-29.7614"/>
</g>
<!-- app/money/lineItem.js -->
<g id="node29" class="node">
<title>app/money/lineItem.js</title>
<path fill="none" stroke="#c6c5fe" d="M1109.3566,-62.1482C1109.3566,-62.1482 973.1307,-62.1482 973.1307,-62.1482 969.0978,-62.1482 965.0648,-58.1152 965.0648,-54.0823 965.0648,-54.0823 965.0648,-46.0164 965.0648,-46.0164 965.0648,-41.9834 969.0978,-37.9505 973.1307,-37.9505 973.1307,-37.9505 1109.3566,-37.9505 1109.3566,-37.9505 1113.3895,-37.9505 1117.4225,-41.9834 1117.4225,-46.0164 1117.4225,-46.0164 1117.4225,-54.0823 1117.4225,-54.0823 1117.4225,-58.1152 1113.3895,-62.1482 1109.3566,-62.1482"/>
<text text-anchor="middle" x="1041.2437" y="-46.8986" font-family="Arial" font-size="14.00" fill="#c6c5fe">app/money/lineItem.js</text>
</g>
<!-- app/money/accounts.js&#45;&gt;app/money/lineItem.js -->
<g id="edge49" class="edge">
<title>app/money/accounts.js&#45;&gt;app/money/lineItem.js</title>
<path fill="none" stroke="#757575" d="M582.3112,-72.1989C682.0864,-67.3835 852.2534,-59.1706 954.974,-54.213"/>
<polygon fill="#757575" stroke="#757575" points="955.1866,-57.7069 965.0062,-53.7288 954.8491,-50.715 955.1866,-57.7069"/>
</g>
<!-- app/money/category.js&#45;&gt;app/money/lineItem.js -->
<g id="edge51" class="edge">
<title>app/money/category.js&#45;&gt;app/money/lineItem.js</title>
<path fill="none" stroke="#757575" d="M828.503,-22.2326C867.4856,-27.3298 914.7874,-33.5147 954.8801,-38.7569"/>
<polygon fill="#757575" stroke="#757575" points="954.539,-42.242 964.9084,-40.0682 955.4466,-35.3011 954.539,-42.242"/>
</g>
<!-- app/money/lineItem.js&#45;&gt;app/moneyDisplay.js -->
<g id="edge71" class="edge">
<title>app/money/lineItem.js&#45;&gt;app/moneyDisplay.js</title>
<path fill="none" stroke="#757575" d="M1078.7828,-62.1867C1107.9189,-72.4596 1148.6988,-88.7421 1181.2695,-109.0493 1241.8283,-146.8065 1302.3861,-206.013 1331.7975,-236.4842"/>
<polygon fill="#757575" stroke="#757575" points="1329.474,-239.1186 1338.9139,-243.9288 1334.534,-234.2817 1329.474,-239.1186"/>
</g>
<!-- app/money/financeOverview.js -->
<g id="node30" class="node">
<title>app/money/financeOverview.js</title>
<path fill="none" stroke="#c6c5fe" d="M1136.0528,-268.1482C1136.0528,-268.1482 946.4345,-268.1482 946.4345,-268.1482 942.4016,-268.1482 938.3686,-264.1152 938.3686,-260.0823 938.3686,-260.0823 938.3686,-252.0164 938.3686,-252.0164 938.3686,-247.9834 942.4016,-243.9505 946.4345,-243.9505 946.4345,-243.9505 1136.0528,-243.9505 1136.0528,-243.9505 1140.0857,-243.9505 1144.1187,-247.9834 1144.1187,-252.0164 1144.1187,-252.0164 1144.1187,-260.0823 1144.1187,-260.0823 1144.1187,-264.1152 1140.0857,-268.1482 1136.0528,-268.1482"/>
<text text-anchor="middle" x="1041.2437" y="-252.8986" font-family="Arial" font-size="14.00" fill="#c6c5fe">app/money/financeOverview.js</text>
</g>
<!-- app/money/financeOverview.js&#45;&gt;theme.js -->
<g id="edge54" class="edge">
<title>app/money/financeOverview.js&#45;&gt;theme.js</title>
<path fill="none" stroke="#757575" d="M1125.2257,-243.9706C1154.3091,-240.3358 1187.1615,-236.8389 1217.2695,-235.0493 1412.8711,-223.4228 1513.4399,-113.7849 1658.0127,-246.0493 1698.8147,-283.3776 1733.9983,-686.0632 1742.1301,-785.8006"/>
<polygon fill="#757575" stroke="#757575" points="1738.6555,-786.2578 1742.9485,-795.9439 1745.6328,-785.6948 1738.6555,-786.2578"/>
</g>
<!-- app/money/financeOverview.js&#45;&gt;firebaseHelper.js -->
<g id="edge53" class="edge">
<title>app/money/financeOverview.js&#45;&gt;firebaseHelper.js</title>
<path fill="none" stroke="#757575" d="M1060.5283,-268.2588C1091.7513,-289.1817 1152.7447,-335.0913 1181.2695,-391.0493 1233.6504,-493.8061 1153.1399,-552.1843 1217.2695,-648.0493 1237.1807,-677.8138 1272.6039,-697.7781 1301.8715,-710.0527"/>
<polygon fill="#757575" stroke="#757575" points="1300.9454,-713.4521 1311.5297,-713.9236 1303.5496,-706.9545 1300.9454,-713.4521"/>
</g>
<!-- app/money/financeOverview.js&#45;&gt;app/moneyDisplay.js -->
<g id="edge52" class="edge">
<title>app/money/financeOverview.js&#45;&gt;app/moneyDisplay.js</title>
<path fill="none" stroke="#757575" d="M1144.5351,-256.0493C1184.4551,-256.0493 1229.5155,-256.0493 1267.2576,-256.0493"/>
<polygon fill="#757575" stroke="#757575" points="1267.6984,-259.5494 1277.6984,-256.0493 1267.6984,-252.5494 1267.6984,-259.5494"/>
</g>
<!-- app/money/home.js&#45;&gt;app/card.js -->
<g id="edge55" class="edge">
<title>app/money/home.js&#45;&gt;app/card.js</title>
<path fill="none" stroke="#757575" d="M510.174,-582.4309C545.9454,-639.1868 703.4684,-876.0289 901.2178,-977.0493 928.1021,-990.7832 961.4176,-996.1729 988.8066,-998.0637"/>
<polygon fill="#757575" stroke="#757575" points="988.8097,-1001.5691 998.9878,-998.6271 989.1965,-994.5798 988.8097,-1001.5691"/>
</g>
<!-- app/money/home.js&#45;&gt;theme.js -->
<g id="edge62" class="edge">
<title>app/money/home.js&#45;&gt;theme.js</title>
<path fill="none" stroke="#757575" d="M521.8318,-557.7725C577.7497,-523.0217 745.7904,-424.3402 901.2178,-391.0493 983.5241,-373.4202 1595.4017,-368.7911 1658.0127,-425.0493 1712.4935,-474.0023 1736.0358,-710.799 1742.1833,-785.4551"/>
<polygon fill="#757575" stroke="#757575" points="1738.7102,-785.9333 1742.9944,-795.6233 1745.6881,-785.3766 1738.7102,-785.9333"/>
</g>
<!-- app/money/home.js&#45;&gt;utils/index.js -->
<g id="edge63" class="edge">
<title>app/money/home.js&#45;&gt;utils/index.js</title>
<path fill="none" stroke="#757575" d="M504.289,-557.5998C513.9459,-491.0598 562.826,-178.273 636.0254,-121.0493 731.5066,-46.4068 1062.4372,-85.2367 1181.2695,-109.0493 1335.3362,-139.9225 1499.2906,-239.367 1562.0286,-280.247"/>
<polygon fill="#757575" stroke="#757575" points="1560.2581,-283.2716 1570.5374,-285.8384 1564.1024,-277.4216 1560.2581,-283.2716"/>
</g>
<!-- app/money/home.js&#45;&gt;app/pill.js -->
<g id="edge59" class="edge">
<title>app/money/home.js&#45;&gt;app/pill.js</title>
<path fill="none" stroke="#757575" d="M506.9927,-582.3008C522.1405,-624.3299 572.215,-766.757 600.0254,-888.0493 623.4431,-990.1834 582.568,-1030.9268 636.0254,-1121.0493 711.7498,-1248.7114 764.108,-1267.1923 901.2178,-1324.0493 1038.7544,-1381.0834 1218.4398,-1386.5717 1302.6773,-1385.5637"/>
<polygon fill="#757575" stroke="#757575" points="1302.7655,-1389.0629 1312.7096,-1385.4069 1302.6561,-1382.0637 1302.7655,-1389.0629"/>
</g>
<!-- app/money/home.js&#45;&gt;firebaseHelper.js -->
<g id="edge61" class="edge">
<title>app/money/home.js&#45;&gt;firebaseHelper.js</title>
<path fill="none" stroke="#757575" d="M524.4589,-582.2915C550.3142,-596.155 594.9771,-618.3338 636.0254,-630.0493 865.5811,-695.5667 1149.7217,-716.7509 1279.5091,-723.2906"/>
<polygon fill="#757575" stroke="#757575" points="1279.5504,-726.7967 1289.7097,-723.7903 1279.893,-719.8051 1279.5504,-726.7967"/>
</g>
<!-- app/money/home.js&#45;&gt;app/screen.js -->
<g id="edge60" class="edge">
<title>app/money/home.js&#45;&gt;app/screen.js</title>
<path fill="none" stroke="#757575" d="M571.6875,-568.9091C694.7295,-567.678 959.5775,-568.6309 1181.2695,-594.0493 1217.6923,-598.2254 1258.0036,-605.981 1290.1054,-612.9246"/>
<polygon fill="#757575" stroke="#757575" points="1289.7065,-616.4203 1300.2243,-615.1449 1291.2068,-609.5829 1289.7065,-616.4203"/>
</g>
<!-- app/money/home.js&#45;&gt;app/money/financeOverview.js -->
<g id="edge56" class="edge">
<title>app/money/home.js&#45;&gt;app/money/financeOverview.js</title>
<path fill="none" stroke="#757575" d="M503.8911,-557.6999C509.6696,-511.7857 536.6706,-350.0825 636.0254,-282.0493 681.8322,-250.6831 824.6638,-248.0713 927.7908,-250.7047"/>
<polygon fill="#757575" stroke="#757575" points="927.8634,-254.2079 937.9559,-250.9843 928.056,-247.2106 927.8634,-254.2079"/>
</g>
<!-- app/money/spendTracking.js -->
<g id="node32" class="node">
<title>app/money/spendTracking.js</title>
<path fill="none" stroke="#c6c5fe" d="M1439.5523,-348.1482C1439.5523,-348.1482 1260.7514,-348.1482 1260.7514,-348.1482 1256.7184,-348.1482 1252.6855,-344.1152 1252.6855,-340.0823 1252.6855,-340.0823 1252.6855,-332.0164 1252.6855,-332.0164 1252.6855,-327.9834 1256.7184,-323.9505 1260.7514,-323.9505 1260.7514,-323.9505 1439.5523,-323.9505 1439.5523,-323.9505 1443.5853,-323.9505 1447.6182,-327.9834 1447.6182,-332.0164 1447.6182,-332.0164 1447.6182,-340.0823 1447.6182,-340.0823 1447.6182,-344.1152 1443.5853,-348.1482 1439.5523,-348.1482"/>
<text text-anchor="middle" x="1350.1519" y="-332.8986" font-family="Arial" font-size="14.00" fill="#c6c5fe">app/money/spendTracking.js</text>
</g>
<!-- app/money/home.js&#45;&gt;app/money/spendTracking.js -->
<g id="edge57" class="edge">
<title>app/money/home.js&#45;&gt;app/money/spendTracking.js</title>
<path fill="none" stroke="#757575" d="M505.8376,-557.7428C516.7837,-519.7258 555.8082,-403.9591 636.0254,-358.0493 852.4709,-234.1734 1169.4155,-291.305 1295.4954,-321.5355"/>
<polygon fill="#757575" stroke="#757575" points="1294.7685,-324.9607 1305.3129,-323.9282 1296.4261,-318.1598 1294.7685,-324.9607"/>
</g>
<!-- app/money/transactionAdd.js -->
<g id="node33" class="node">
<title>app/money/transactionAdd.js</title>
<path fill="none" stroke="#c6c5fe" d="M840.607,-621.1482C840.607,-621.1482 660.6362,-621.1482 660.6362,-621.1482 656.6032,-621.1482 652.5703,-617.1152 652.5703,-613.0823 652.5703,-613.0823 652.5703,-605.0164 652.5703,-605.0164 652.5703,-600.9834 656.6032,-596.9505 660.6362,-596.9505 660.6362,-596.9505 840.607,-596.9505 840.607,-596.9505 844.6399,-596.9505 848.6729,-600.9834 848.6729,-605.0164 848.6729,-605.0164 848.6729,-613.0823 848.6729,-613.0823 848.6729,-617.1152 844.6399,-621.1482 840.607,-621.1482"/>
<text text-anchor="middle" x="750.6216" y="-605.8986" font-family="Arial" font-size="14.00" fill="#c6c5fe">app/money/transactionAdd.js</text>
</g>
<!-- app/money/home.js&#45;&gt;app/money/transactionAdd.js -->
<g id="edge58" class="edge">
<title>app/money/home.js&#45;&gt;app/money/transactionAdd.js</title>
<path fill="none" stroke="#757575" d="M571.6393,-580.913C600.1069,-585.3881 633.4121,-590.6238 663.5216,-595.3571"/>
<polygon fill="#757575" stroke="#757575" points="663.1763,-598.8457 673.5986,-596.9412 664.2635,-591.9306 663.1763,-598.8457"/>
</g>
<!-- app/money/spendTracking.js&#45;&gt;theme.js -->
<g id="edge83" class="edge">
<title>app/money/spendTracking.js&#45;&gt;theme.js</title>
<path fill="none" stroke="#757575" d="M1447.4536,-331.9225C1525.8647,-330.7767 1627.8507,-334.9257 1658.0127,-362.0493 1722.0566,-419.6416 1739.3379,-703.7234 1743.0292,-785.804"/>
<polygon fill="#757575" stroke="#757575" points="1739.5325,-785.9588 1743.4553,-795.8006 1746.5261,-785.6606 1739.5325,-785.9588"/>
</g>
<!-- app/money/spendTracking.js&#45;&gt;utils/index.js -->
<g id="edge84" class="edge">
<title>app/money/spendTracking.js&#45;&gt;utils/index.js</title>
<path fill="none" stroke="#757575" d="M1425.9016,-323.9737C1460.3451,-318.4829 1500.3954,-312.0983 1532.1314,-307.039"/>
<polygon fill="#757575" stroke="#757575" points="1532.8013,-310.4765 1542.1255,-305.4458 1531.6992,-303.5638 1532.8013,-310.4765"/>
</g>
<!-- app/money/transactionAdd.js&#45;&gt;theme.js -->
<g id="edge87" class="edge">
<title>app/money/transactionAdd.js&#45;&gt;theme.js</title>
<path fill="none" stroke="#757575" d="M763.3357,-596.6885C787.6632,-574.0038 843.5294,-526.4584 901.2178,-509.0493 910.2292,-506.3299 1472.6913,-508.8648 1483.0342,-510.0493 1562.2905,-519.126 1598.9458,-496.4298 1658.0127,-550.0493 1693.9772,-582.697 1727.6164,-729.5642 1739.4302,-785.9288"/>
<polygon fill="#757575" stroke="#757575" points="1736.0463,-786.8488 1741.4962,-795.9344 1742.9016,-785.4332 1736.0463,-786.8488"/>
</g>
<!-- app/money/transactionForm.js -->
<g id="node42" class="node">
<title>app/money/transactionForm.js</title>
<path fill="none" stroke="#c6c5fe" d="M1135.4807,-968.1482C1135.4807,-968.1482 947.0066,-968.1482 947.0066,-968.1482 942.9736,-968.1482 938.9407,-964.1152 938.9407,-960.0823 938.9407,-960.0823 938.9407,-952.0164 938.9407,-952.0164 938.9407,-947.9834 942.9736,-943.9505 947.0066,-943.9505 947.0066,-943.9505 1135.4807,-943.9505 1135.4807,-943.9505 1139.5137,-943.9505 1143.5466,-947.9834 1143.5466,-952.0164 1143.5466,-952.0164 1143.5466,-960.0823 1143.5466,-960.0823 1143.5466,-964.1152 1139.5137,-968.1482 1135.4807,-968.1482"/>
<text text-anchor="middle" x="1041.2437" y="-952.8986" font-family="Arial" font-size="14.00" fill="#c6c5fe">app/money/transactionForm.js</text>
</g>
<!-- app/money/transactionAdd.js&#45;&gt;app/money/transactionForm.js -->
<g id="edge86" class="edge">
<title>app/money/transactionAdd.js&#45;&gt;app/money/transactionForm.js</title>
<path fill="none" stroke="#757575" d="M758.0586,-621.1072C778.8293,-654.406 839.9605,-749.8756 901.2178,-821.0493 939.5114,-865.542 990.367,-911.86 1019.0657,-937.0076"/>
<polygon fill="#757575" stroke="#757575" points="1017.043,-939.8872 1026.8833,-943.8138 1021.6394,-934.6077 1017.043,-939.8872"/>
</g>
<!-- app/money/monthTransactions.js&#45;&gt;theme.js -->
<g id="edge74" class="edge">
<title>app/money/monthTransactions.js&#45;&gt;theme.js</title>
<path fill="none" stroke="#757575" d="M1141.5741,-517.9885C1273.4849,-507.6919 1506.2337,-509.3546 1658.0127,-623.0493 1711.8955,-663.4119 1733.1141,-745.8618 1740.4663,-785.6219"/>
<polygon fill="#757575" stroke="#757575" points="1737.0438,-786.3716 1742.1879,-795.6338 1743.9425,-785.1853 1737.0438,-786.3716"/>
</g>
<!-- app/money/monthTransactions.js&#45;&gt;utils/index.js -->
<g id="edge75" class="edge">
<title>app/money/monthTransactions.js&#45;&gt;utils/index.js</title>
<path fill="none" stroke="#757575" d="M1076.8693,-517.9683C1152.8672,-491.793 1335.9579,-426.5766 1483.0342,-357.0493 1509.8055,-344.3937 1539.1165,-327.7626 1560.0323,-315.3845"/>
<polygon fill="#757575" stroke="#757575" points="1561.936,-318.3244 1568.7309,-310.1954 1558.3498,-312.3128 1561.936,-318.3244"/>
</g>
<!-- app/money/monthTransactions.js&#45;&gt;firebaseHelper.js -->
<g id="edge73" class="edge">
<title>app/money/monthTransactions.js&#45;&gt;firebaseHelper.js</title>
<path fill="none" stroke="#757575" d="M1058.506,-542.1225C1089.7815,-563.8833 1158.0685,-610.8777 1217.2695,-648.0493 1251.7211,-669.681 1292.132,-693.1367 1319.2656,-708.6163"/>
<polygon fill="#757575" stroke="#757575" points="1317.8551,-711.8406 1328.2778,-713.7429 1321.3163,-705.7561 1317.8551,-711.8406"/>
</g>
<!-- app/money/monthTransactions.js&#45;&gt;app/screen.js -->
<g id="edge72" class="edge">
<title>app/money/monthTransactions.js&#45;&gt;app/screen.js</title>
<path fill="none" stroke="#757575" d="M1124.2163,-542.1313C1143.1734,-545.806 1163.0863,-550.4065 1181.2695,-556.0493 1197.9919,-561.2388 1201.1792,-565.1451 1217.2695,-572.0493 1248.6376,-585.509 1284.3989,-600.2781 1310.9155,-611.1197"/>
<polygon fill="#757575" stroke="#757575" points="1309.6602,-614.3876 1320.2413,-614.9266 1312.3057,-607.9068 1309.6602,-614.3876"/>
</g>
<!-- app/money/monthlyAnalytics.js&#45;&gt;theme.js -->
<g id="edge78" class="edge">
<title>app/money/monthlyAnalytics.js&#45;&gt;theme.js</title>
<path fill="none" stroke="#757575" d="M1145.5205,-409.0117C1301.0325,-406.7186 1583.4481,-411.8905 1658.0127,-476.0493 1705.8923,-517.2472 1733.4037,-718.2363 1741.4181,-785.8252"/>
<polygon fill="#757575" stroke="#757575" points="1737.9486,-786.2912 1742.5755,-795.8223 1744.9021,-785.4862 1737.9486,-786.2912"/>
</g>
<!-- app/money/monthlyAnalytics.js&#45;&gt;utils/index.js -->
<g id="edge79" class="edge">
<title>app/money/monthlyAnalytics.js&#45;&gt;utils/index.js</title>
<path fill="none" stroke="#757575" d="M1057.119,-399.9611C1086.7093,-378.2254 1153.123,-333.1278 1217.2695,-315.0493 1325.5146,-284.5425 1458.4643,-287.697 1532.2974,-292.8174"/>
<polygon fill="#757575" stroke="#757575" points="1532.0859,-296.3112 1542.3145,-293.5496 1532.5963,-289.3298 1532.0859,-296.3112"/>
</g>
<!-- app/money/monthlyAnalytics.js&#45;&gt;firebaseHelper.js -->
<g id="edge77" class="edge">
<title>app/money/monthlyAnalytics.js&#45;&gt;firebaseHelper.js</title>
<path fill="none" stroke="#757575" d="M1069.4285,-424.1111C1101.4205,-439.2624 1152.8405,-468.3039 1181.2695,-509.0493 1217.7856,-561.3854 1178.8161,-597.1197 1217.2695,-648.0493 1239.2821,-677.2038 1275.6233,-697.4497 1304.7421,-709.9951"/>
<polygon fill="#757575" stroke="#757575" points="1303.7308,-713.3645 1314.3091,-713.9562 1306.4086,-706.8969 1303.7308,-713.3645"/>
</g>
<!-- app/money/monthlyAnalytics.js&#45;&gt;app/screen.js -->
<g id="edge76" class="edge">
<title>app/money/monthlyAnalytics.js&#45;&gt;app/screen.js</title>
<path fill="none" stroke="#757575" d="M1074.9607,-424.1456C1104.2774,-435.4204 1147.2664,-453.8138 1181.2695,-476.0493 1241.7036,-515.5688 1302.3155,-576.0672 1331.7676,-607.1281"/>
<polygon fill="#757575" stroke="#757575" points="1329.4964,-609.8223 1338.8944,-614.7139 1334.5981,-605.0293 1329.4964,-609.8223"/>
</g>
<!-- app/money/reducers/index.js -->
<g id="node39" class="node">
<title>app/money/reducers/index.js</title>
<path fill="none" stroke="#c6c5fe" d="M840.041,-154.1482C840.041,-154.1482 661.2021,-154.1482 661.2021,-154.1482 657.1692,-154.1482 653.1362,-150.1152 653.1362,-146.0823 653.1362,-146.0823 653.1362,-138.0164 653.1362,-138.0164 653.1362,-133.9834 657.1692,-129.9505 661.2021,-129.9505 661.2021,-129.9505 840.041,-129.9505 840.041,-129.9505 844.074,-129.9505 848.1069,-133.9834 848.1069,-138.0164 848.1069,-138.0164 848.1069,-146.0823 848.1069,-146.0823 848.1069,-150.1152 844.074,-154.1482 840.041,-154.1482"/>
<text text-anchor="middle" x="750.6216" y="-138.8986" font-family="Arial" font-size="14.00" fill="#c6c5fe">app/money/reducers/index.js</text>
</g>
<!-- app/money/store.js&#45;&gt;app/money/reducers/index.js -->
<g id="edge85" class="edge">
<title>app/money/store.js&#45;&gt;app/money/reducers/index.js</title>
<path fill="none" stroke="#757575" d="M569.9964,-142.0493C592.4439,-142.0493 618.0375,-142.0493 642.7587,-142.0493"/>
<polygon fill="#757575" stroke="#757575" points="642.9167,-145.5494 652.9167,-142.0493 642.9166,-138.5494 642.9167,-145.5494"/>
</g>
<!-- app/money/transactionDetails.js&#45;&gt;theme.js -->
<g id="edge92" class="edge">
<title>app/money/transactionDetails.js&#45;&gt;theme.js</title>
<path fill="none" stroke="#757575" d="M1125.444,-787.9458C1145.0613,-782.3261 1164.9597,-774.0976 1181.2695,-762.0493 1205.3698,-744.2461 1191.0285,-719.5126 1217.2695,-705.0493 1320.715,-648.0334 1366.9984,-682.9707 1483.0342,-705.0493 1570.0303,-721.6025 1665.0809,-766.6233 1712.8311,-791.3071"/>
<polygon fill="#757575" stroke="#757575" points="1711.2501,-794.4299 1721.7341,-795.9583 1714.4914,-788.2256 1711.2501,-794.4299"/>
</g>
<!-- app/money/transactionDetails.js&#45;&gt;app/dateInput.js -->
<g id="edge88" class="edge">
<title>app/money/transactionDetails.js&#45;&gt;app/dateInput.js</title>
<path fill="none" stroke="#757575" d="M1071.4255,-812.1647C1127.4826,-834.6668 1247.652,-882.9045 1310.3046,-908.0541"/>
<polygon fill="#757575" stroke="#757575" points="1309.2634,-911.4075 1319.8475,-911.8847 1311.8711,-904.9114 1309.2634,-911.4075"/>
</g>
<!-- app/money/transactionDetails.js&#45;&gt;firebaseHelper.js -->
<g id="edge91" class="edge">
<title>app/money/transactionDetails.js&#45;&gt;firebaseHelper.js</title>
<path fill="none" stroke="#757575" d="M1138.6535,-787.9704C1153.2726,-784.4528 1167.9112,-779.9117 1181.2695,-774.0493 1199.5836,-766.0122 1198.8492,-754.8399 1217.2695,-747.0493 1236.7726,-738.8008 1259.1284,-733.7609 1279.8701,-730.6914"/>
<polygon fill="#757575" stroke="#757575" points="1280.4611,-734.1434 1289.9031,-729.3374 1279.5249,-727.2063 1280.4611,-734.1434"/>
</g>
<!-- app/money/transactionDetails.js&#45;&gt;app/screen.js -->
<g id="edge90" class="edge">
<title>app/money/transactionDetails.js&#45;&gt;app/screen.js</title>
<path fill="none" stroke="#757575" d="M1148.7286,-792.3745C1160.5861,-788.0907 1171.7804,-782.1651 1181.2695,-774.0493 1217.8038,-742.8026 1183.0597,-705.8251 1217.2695,-672.0493 1236.8552,-652.7121 1265.0411,-641.6783 1290.4188,-635.3851"/>
<polygon fill="#757575" stroke="#757575" points="1291.3779,-638.7564 1300.3498,-633.1213 1289.822,-631.9315 1291.3779,-638.7564"/>
</g>
<!-- app/money/transactionDetails.js&#45;&gt;app/moneyInput.js -->
<g id="edge89" class="edge">
<title>app/money/transactionDetails.js&#45;&gt;app/moneyInput.js</title>
<path fill="none" stroke="#757575" d="M1148.8511,-788.9022C1190.2323,-784.6155 1236.569,-779.8154 1274.3449,-775.9022"/>
<polygon fill="#757575" stroke="#757575" points="1275.1752,-779.335 1284.7614,-774.8232 1274.4539,-772.3723 1275.1752,-779.335"/>
</g>
<!-- app/money/reducers/accounts.js -->
<g id="node38" class="node">
<title>app/money/reducers/accounts.js</title>
<path fill="none" stroke="#cfffac" d="M1141.729,-226.1482C1141.729,-226.1482 940.7583,-226.1482 940.7583,-226.1482 936.7254,-226.1482 932.6924,-222.1152 932.6924,-218.0823 932.6924,-218.0823 932.6924,-210.0164 932.6924,-210.0164 932.6924,-205.9834 936.7254,-201.9505 940.7583,-201.9505 940.7583,-201.9505 1141.729,-201.9505 1141.729,-201.9505 1145.762,-201.9505 1149.7949,-205.9834 1149.7949,-210.0164 1149.7949,-210.0164 1149.7949,-218.0823 1149.7949,-218.0823 1149.7949,-222.1152 1145.762,-226.1482 1141.729,-226.1482"/>
<text text-anchor="middle" x="1041.2437" y="-210.8986" font-family="Arial" font-size="14.00" fill="#cfffac">app/money/reducers/accounts.js</text>
</g>
<!-- app/money/reducers/index.js&#45;&gt;app/money/reducers/accounts.js -->
<g id="edge80" class="edge">
<title>app/money/reducers/index.js&#45;&gt;app/money/reducers/accounts.js</title>
<path fill="none" stroke="#757575" d="M823.5034,-154.1611C837.66,-157.7377 852.1497,-162.2909 865.2178,-168.0493 883.0435,-175.9042 883.1128,-185.8615 901.2178,-193.0493 908.0505,-195.762 915.1978,-198.1274 922.4929,-200.1898"/>
<polygon fill="#757575" stroke="#757575" points="921.9559,-203.6673 932.5167,-202.8184 923.7316,-196.8962 921.9559,-203.6673"/>
</g>
<!-- app/money/reducers/monthTransactions.js -->
<g id="node40" class="node">
<title>app/money/reducers/monthTransactions.js</title>
<path fill="none" stroke="#cfffac" d="M1173.2295,-184.1482C1173.2295,-184.1482 909.2578,-184.1482 909.2578,-184.1482 905.2248,-184.1482 901.1919,-180.1152 901.1919,-176.0823 901.1919,-176.0823 901.1919,-168.0164 901.1919,-168.0164 901.1919,-163.9834 905.2248,-159.9505 909.2578,-159.9505 909.2578,-159.9505 1173.2295,-159.9505 1173.2295,-159.9505 1177.2625,-159.9505 1181.2954,-163.9834 1181.2954,-168.0164 1181.2954,-168.0164 1181.2954,-176.0823 1181.2954,-176.0823 1181.2954,-180.1152 1177.2625,-184.1482 1173.2295,-184.1482"/>
<text text-anchor="middle" x="1041.2437" y="-168.8986" font-family="Arial" font-size="14.00" fill="#cfffac">app/money/reducers/monthTransactions.js</text>
</g>
<!-- app/money/reducers/index.js&#45;&gt;app/money/reducers/monthTransactions.js -->
<g id="edge81" class="edge">
<title>app/money/reducers/index.js&#45;&gt;app/money/reducers/monthTransactions.js</title>
<path fill="none" stroke="#757575" d="M848.203,-152.1223C869.3669,-154.307 892.0503,-156.6486 914.1617,-158.931"/>
<polygon fill="#757575" stroke="#757575" points="913.9666,-162.4294 924.2732,-159.9748 914.6854,-155.4664 913.9666,-162.4294"/>
</g>
<!-- app/money/reducers/monthlyAnalytics.js -->
<g id="node41" class="node">
<title>app/money/reducers/monthlyAnalytics.js</title>
<path fill="none" stroke="#cfffac" d="M1166.2357,-142.1482C1166.2357,-142.1482 916.2516,-142.1482 916.2516,-142.1482 912.2186,-142.1482 908.1857,-138.1152 908.1857,-134.0823 908.1857,-134.0823 908.1857,-126.0164 908.1857,-126.0164 908.1857,-121.9834 912.2186,-117.9505 916.2516,-117.9505 916.2516,-117.9505 1166.2357,-117.9505 1166.2357,-117.9505 1170.2687,-117.9505 1174.3016,-121.9834 1174.3016,-126.0164 1174.3016,-126.0164 1174.3016,-134.0823 1174.3016,-134.0823 1174.3016,-138.1152 1170.2687,-142.1482 1166.2357,-142.1482"/>
<text text-anchor="middle" x="1041.2437" y="-126.8986" font-family="Arial" font-size="14.00" fill="#cfffac">app/money/reducers/monthlyAnalytics.js</text>
</g>
<!-- app/money/reducers/index.js&#45;&gt;app/money/reducers/monthlyAnalytics.js -->
<g id="edge82" class="edge">
<title>app/money/reducers/index.js&#45;&gt;app/money/reducers/monthlyAnalytics.js</title>
<path fill="none" stroke="#757575" d="M848.203,-138.0201C864.112,-137.3632 880.8796,-136.6709 897.6174,-135.9797"/>
<polygon fill="#757575" stroke="#757575" points="898.1802,-139.4596 908.0273,-135.5499 897.8914,-132.4655 898.1802,-139.4596"/>
</g>
<!-- app/money/transactionForm.js&#45;&gt;theme.js -->
<g id="edge98" class="edge">
<title>app/money/transactionForm.js&#45;&gt;theme.js</title>
<path fill="none" stroke="#757575" d="M1093.8812,-943.9448C1121.2287,-936.2237 1154.4441,-924.5248 1181.2695,-908.0493 1200.2848,-896.3706 1197.1473,-882.6966 1217.2695,-873.0493 1381.2067,-794.4522 1605.3557,-798.4078 1699.4541,-804.3453"/>
<polygon fill="#757575" stroke="#757575" points="1699.2666,-807.8405 1709.4783,-805.0172 1699.7348,-800.8562 1699.2666,-807.8405"/>
</g>
<!-- app/money/transactionForm.js&#45;&gt;app/dateInput.js -->
<g id="edge93" class="edge">
<title>app/money/transactionForm.js&#45;&gt;app/dateInput.js</title>
<path fill="none" stroke="#757575" d="M1143.6765,-945.4382C1189.1718,-940.7253 1241.4852,-935.3062 1282.0713,-931.1018"/>
<polygon fill="#757575" stroke="#757575" points="1282.5397,-934.5721 1292.1258,-930.0603 1281.8184,-927.6094 1282.5397,-934.5721"/>
</g>
<!-- app/money/transactionForm.js&#45;&gt;app/outlineButton.js -->
<g id="edge95" class="edge">
<title>app/money/transactionForm.js&#45;&gt;app/outlineButton.js</title>
<path fill="none" stroke="#757575" d="M1129.9658,-968.1279C1147.0391,-970.7986 1164.7457,-973.8086 1181.2695,-977.0493 1308.8843,-1002.0775 1456.8106,-1040.4124 1534.487,-1061.2751"/>
<polygon fill="#757575" stroke="#757575" points="1533.9503,-1064.7552 1544.5165,-1063.9767 1535.771,-1057.9961 1533.9503,-1064.7552"/>
</g>
<!-- app/money/transactionForm.js&#45;&gt;app/sharedStyles.js -->
<g id="edge96" class="edge">
<title>app/money/transactionForm.js&#45;&gt;app/sharedStyles.js</title>
<path fill="none" stroke="#757575" d="M1138.6535,-943.9704C1153.2726,-940.4528 1167.9112,-935.9117 1181.2695,-930.0493 1199.5836,-922.0122 1198.2959,-909.3739 1217.2695,-903.0493 1329.3257,-865.6972 1368.7354,-873.2573 1483.0342,-903.0493 1513.2807,-910.9331 1544.0435,-929.6176 1564.4814,-943.8646"/>
<polygon fill="#757575" stroke="#757575" points="1562.6725,-946.8741 1572.8412,-949.8486 1566.7469,-941.182 1562.6725,-946.8741"/>
</g>
<!-- app/money/transactionForm.js&#45;&gt;firebaseHelper.js -->
<g id="edge97" class="edge">
<title>app/money/transactionForm.js&#45;&gt;firebaseHelper.js</title>
<path fill="none" stroke="#757575" d="M1094.5234,-943.9048C1124.1398,-934.5014 1159.3346,-918.4794 1181.2695,-892.0493 1223.6754,-840.9531 1168.3282,-791.925 1217.2695,-747.0493 1234.0641,-731.6499 1257.3565,-724.9378 1279.7552,-722.5281"/>
<polygon fill="#757575" stroke="#757575" points="1280.2697,-725.9981 1289.9571,-721.708 1279.7087,-719.0206 1280.2697,-725.9981"/>
</g>
<!-- app/money/transactionForm.js&#45;&gt;app/moneyInput.js -->
<g id="edge94" class="edge">
<title>app/money/transactionForm.js&#45;&gt;app/moneyInput.js</title>
<path fill="none" stroke="#757575" d="M1143.7391,-951.0653C1157.5942,-946.5841 1170.6645,-939.8856 1181.2695,-930.0493 1227.1126,-887.5294 1171.6317,-836.7895 1217.2695,-794.0493 1232.7519,-779.55 1253.8293,-772.0418 1274.6339,-768.3977"/>
<polygon fill="#757575" stroke="#757575" points="1275.4138,-771.8208 1284.7994,-766.9054 1274.3971,-764.895 1275.4138,-771.8208"/>
</g>
<!-- index.js -->
<g id="node43" class="node">
<title>index.js</title>
<path fill="none" stroke="#c6c5fe" d="M55.639,-699.1482C55.639,-699.1482 7.8298,-699.1482 7.8298,-699.1482 3.7968,-699.1482 -.2361,-695.1152 -.2361,-691.0823 -.2361,-691.0823 -.2361,-683.0164 -.2361,-683.0164 -.2361,-678.9834 3.7968,-674.9505 7.8298,-674.9505 7.8298,-674.9505 55.639,-674.9505 55.639,-674.9505 59.6719,-674.9505 63.7049,-678.9834 63.7049,-683.0164 63.7049,-683.0164 63.7049,-691.0823 63.7049,-691.0823 63.7049,-695.1152 59.6719,-699.1482 55.639,-699.1482"/>
<text text-anchor="middle" x="31.7344" y="-683.8986" font-family="Arial" font-size="14.00" fill="#c6c5fe">index.js</text>
</g>
<!-- index.js&#45;&gt;app/index.js -->
<g id="edge106" class="edge">
<title>index.js&#45;&gt;app/index.js</title>
<path fill="none" stroke="#757575" d="M63.538,-687.0493C71.5207,-687.0493 80.323,-687.0493 89.099,-687.0493"/>
<polygon fill="#757575" stroke="#757575" points="89.3385,-690.5494 99.3385,-687.0493 89.3384,-683.5494 89.3385,-690.5494"/>
</g>
</g>
</svg>
